<?xml version="1.0" encoding="UTF-8"?><svg id="a" xmlns="http://www.w3.org/2000/svg" xmlns:xlink="http://www.w3.org/1999/xlink" viewBox="0 0 512 512"><defs><linearGradient id="b" x1="142.04" y1="102.02" x2="207.56" y2="174.35" gradientTransform="translate(40 312) rotate(-90)" gradientUnits="userSpaceOnUse"><stop offset="0" stop-color="#6dbf86"/><stop offset="1" stop-color="#499d65"/></linearGradient><linearGradient id="c" x1="305.99" y1="109.34" x2="365.65" y2="169" gradientTransform="translate(200 472) rotate(-90)" xlink:href="#b"/><linearGradient id="d" x1="227.39" y1="186.42" x2="289.51" y2="413.62" gradientUnits="userSpaceOnUse"><stop offset="0" stop-color="#498e59"/><stop offset="1" stop-color="#093a12"/></linearGradient><linearGradient id="e" x1="391.8" y1="176.15" x2="430.09" y2="245.92" gradientTransform="translate(200 632) rotate(-90)" xlink:href="#b"/><linearGradient id="f" x1="76.14" y1="183.39" x2="114.43" y2="238.7" gradientTransform="translate(-120 312) rotate(-90)" xlink:href="#b"/></defs><path d="M147.43,96h68.57v80h-68.57c-6.31,0-11.43-5.12-11.43-11.43v-57.14c0-6.31,5.12-11.43,11.43-11.43Z" transform="translate(312 -40) rotate(90)" fill="url(#b)"/><path d="M307.43,96h68.57v80h-68.57c-6.31,0-11.43-5.12-11.43-11.43v-57.14c0-6.31,5.12-11.43,11.43-11.43Z" transform="translate(472 -200) rotate(90)" fill="url(#c)"/><path d="M296,256v-80h-80v80h-80v68.57c0,6.31,5.12,11.43,11.43,11.43h68.57v68.57c0,6.31,5.12,11.43,11.43,11.43h57.14c6.31,0,11.43-5.12,11.43-11.43v-68.57h68.57c6.31,0,11.43-5.12,11.43-11.43v-68.57h-80Z" fill="url(#d)"/><path d="M387.43,176h57.14c6.31,0,11.43,5.12,11.43,11.43v68.57h-80v-68.57c0-6.31,5.12-11.43,11.43-11.43Z" transform="translate(632 -200) rotate(90)" fill="url(#e)"/><path d="M56,176h80v68.57c0,6.31-5.12,11.43-11.43,11.43h-57.14c-6.31,0-11.43-5.12-11.43-11.43v-68.57h0Z" transform="translate(312 120) rotate(90)" fill="url(#f)"/></svg>