<svg xmlns="http://www.w3.org/2000/svg" width="56" height="56" viewBox="0 0 56 56" fill="none">
    <path d="M49 46.6667H53.6666V51.3333H2.33331V46.6667H6.99998V7C6.99998 6.38116 7.24581 5.78767 7.6834 5.35008C8.12098 4.9125 8.71447 4.66666 9.33331 4.66666H46.6666C47.2855 4.66666 47.879 4.9125 48.3166 5.35008C48.7541 5.78767 49 6.38116 49 7V46.6667ZM25.6666 18.6667H21V23.3333H25.6666V28H30.3333V23.3333H35V18.6667H30.3333V14H25.6666V18.6667ZM32.6666 46.6667H37.3333V32.6667H18.6666V46.6667H23.3333V37.3333H32.6666V46.6667Z" fill="#E2E8F0"/>
</svg>