<svg xmlns="http://www.w3.org/2000/svg" xmlns:xlink="http://www.w3.org/1999/xlink" version="1.1" width="1000" height="1000" viewBox="0 0 1000 1000" xml:space="preserve">
<desc>Created with Fabric.js 3.5.0</desc>
<defs>
</defs>
<rect x="0" y="0" width="100%" height="100%" fill="#ffffff"/>
<g transform="matrix(1.0763 0 0 1.0763 500.0166 598.1546)" id="905212">
<g style="" vector-effect="non-scaling-stroke">
		<g transform="matrix(1 0 0 1 9.0551 250.3692)">
<circle style="stroke: none; stroke-width: 1; stroke-dasharray: none; stroke-linecap: butt; stroke-dashoffset: 0; stroke-linejoin: miter; stroke-miterlimit: 4; is-custom-font: none; font-file-url: none; fill: rgb(0,160,113); fill-rule: nonzero; opacity: 1;" cx="0" cy="0" r="46"/>
</g>
		<g transform="matrix(1 0 0 1 43.4995 23.0069)">
<path style="stroke: none; stroke-width: 1; stroke-dasharray: none; stroke-linecap: butt; stroke-dashoffset: 0; stroke-linejoin: miter; stroke-miterlimit: 4; is-custom-font: none; font-file-url: none; fill: rgb(242,242,242); fill-rule: nonzero; opacity: 1;" transform=" translate(-643.4995, -473.0069)" d="M 883.86176 743.78487 c 25.7345 -7.72868 53.09381 -15.78786 73.50313 -34.161 c 18.23763 -16.41813 30.55024 -41.48912 22.99475 -66.1115 c -7.54 -24.57187 -30.12421 -40.95629 -53.44165 -49.10532 c -13.225 -4.62188 -27.06087 -7.18608 -40.89147 -9.20037 c -15.03485 -2.18967 -30.13615 -3.98373 -45.23026 -5.71012 q -91.67724 -10.48563 -184.04386 -12.811 c -30.38456 -0.76525 -60.76358 -0.74682 -91.15243 -0.3057 c -27.13937 0.394 -55.72215 0.38417 -80.899 -11.15051 c -19.57846 -8.96979 -37.348 -25.28881 -42.8033 -46.73352 c -6.29728 -24.75467 5.318 -49.96382 21.97993 -67.892 c 8.78265 -9.45011 19.04731 -17.40385 29.63621 -24.71743 c 11.4874 -7.93416 23.37539 -15.30643 35.52084 -22.18813 a 494.63414 494.63414 0 0 1 74.7667 -34.4685 c 12.74555 -4.63445 25.68047 -8.63281 38.72759 -12.32143 c 11.017 -3.11469 22.06832 -6.23382 32.71588 -10.47748 c 20.58349 -8.20371 40.161 -22.09985 45.39464 -44.88142 c 4.96024 -21.59145 -3.40305 -45.03067 -18.065 -61.07057 c -16.96282 -18.557 -42.53949 -26.69181 -67.06007 -28.008 c -27.52842 -1.47765 -54.42246 5.412 -80.29678 14.15585 c -27.59673 9.326 -54.59854 20.04924 -82.77827 27.60322 a 556.95783 556.95783 0 0 1 -85.19574 15.83655 c -14.08227 1.49951 -28.59019 3.19273 -42.75626 2.04475 c -11.87246 -0.96211 -23.68426 -4.45375 -32.43408 -12.87964 c -7.50252 -7.22477 -11.97184 -17.154 -10.4353 -27.63238 c 0.27909 -1.90318 3.17022 -1.09407 2.89284 0.79752 c -1.8704 12.75513 6.79991 24.50863 17.48415 30.5293 c 12.34817 6.95832 27.37408 6.9678 41.1218 6.172 a 537.82528 537.82528 0 0 0 88.51452 -12.79561 c 28.59252 -6.53059 56.16382 -15.86633 83.70391 -25.83908 c 26.15594 -9.47153 52.89665 -18.71579 80.84009 -20.76729 c 24.24611 -1.78007 49.75165 1.75222 70.87426 14.42313 c 18.56387 11.136 32.21482 29.70722 36.56451 51.01813 c 4.25044 20.82462 -1.63632 41.785 -17.4 56.31714 c -16.32147 15.04633 -38.7007 21.47909 -59.55655 27.40368 c -26.45223 7.51437 -52.33726 16.29809 -77.39248 27.7031 a 485.82354 485.82354 0 0 0 -72.8001 40.92805 c -22.24625 15.20228 -44.2007 34.33058 -51.23658 61.45126 c -3.27739 12.63313 -2.67227 26.03212 2.8116 37.96461 c 4.87605 10.60993 12.90656 19.53469 22.26169 26.41853 c 22.32074 16.42443 50.45266 19.79665 77.41421 20.13212 c 30.28143 0.37678 60.56382 -0.64518 90.85508 -0.148 q 92.5988 1.51977 184.81863 11.27265 q 23.108 2.44594 46.15759 5.40711 c 13.82158 1.776 27.68967 3.54058 41.27849 6.69464 c 24.16222 5.60822 47.67389 16.39167 62.69178 36.878 a 61.31938 61.31938 0 0 1 11.94709 30.44593 c 1.05134 11.52384 -1.76985 23.0693 -6.98016 33.32083 c -11.53233 22.69042 -33.13363 37.12286 -56.07337 46.60471 c -12.28683 5.0786 -25.03167 8.926 -37.7516 12.74609 c -1.853 0.55651 -2.64487 -2.338 -0.79752 -2.89283 Z" stroke-linecap="round"/>
</g>
		<g transform="matrix(1 0 0 1 -296.4449 -228.1308)">
<circle style="stroke: none; stroke-width: 1; stroke-dasharray: none; stroke-linecap: butt; stroke-dashoffset: 0; stroke-linejoin: miter; stroke-miterlimit: 4; is-custom-font: none; font-file-url: none; fill: rgb(242,242,242); fill-rule: nonzero; opacity: 1;" cx="0" cy="0" r="24"/>
</g>
		<g transform="matrix(1 0 0 1 -129.9449 -182.6308)">
<circle style="stroke: none; stroke-width: 1; stroke-dasharray: none; stroke-linecap: butt; stroke-dashoffset: 0; stroke-linejoin: miter; stroke-miterlimit: 4; is-custom-font: none; font-file-url: none; fill: rgb(242,242,242); fill-rule: nonzero; opacity: 1;" cx="0" cy="0" r="24"/>
</g>
		<g transform="matrix(1 0 0 1 11.0551 -273.6308)">
<circle style="stroke: none; stroke-width: 1; stroke-dasharray: none; stroke-linecap: butt; stroke-dashoffset: 0; stroke-linejoin: miter; stroke-miterlimit: 4; is-custom-font: none; font-file-url: none; fill: rgb(242,242,242); fill-rule: nonzero; opacity: 1;" cx="0" cy="0" r="24"/>
</g>
		<g transform="matrix(1 0 0 1 99.0551 -171.6308)">
<circle style="stroke: none; stroke-width: 1; stroke-dasharray: none; stroke-linecap: butt; stroke-dashoffset: 0; stroke-linejoin: miter; stroke-miterlimit: 4; is-custom-font: none; font-file-url: none; fill: rgb(242,242,242); fill-rule: nonzero; opacity: 1;" cx="0" cy="0" r="24"/>
</g>
		<g transform="matrix(1 0 0 1 -19.9449 -53.6308)">
<circle style="stroke: none; stroke-width: 1; stroke-dasharray: none; stroke-linecap: butt; stroke-dashoffset: 0; stroke-linejoin: miter; stroke-miterlimit: 4; is-custom-font: none; font-file-url: none; fill: rgb(242,242,242); fill-rule: nonzero; opacity: 1;" cx="0" cy="0" r="24"/>
</g>
		<g transform="matrix(1 0 0 1 -170.9449 3.3692)">
<circle style="stroke: none; stroke-width: 1; stroke-dasharray: none; stroke-linecap: butt; stroke-dashoffset: 0; stroke-linejoin: miter; stroke-miterlimit: 4; is-custom-font: none; font-file-url: none; fill: rgb(242,242,242); fill-rule: nonzero; opacity: 1;" cx="0" cy="0" r="24"/>
</g>
		<g transform="matrix(1 0 0 1 -10.9449 92.3692)">
<circle style="stroke: none; stroke-width: 1; stroke-dasharray: none; stroke-linecap: butt; stroke-dashoffset: 0; stroke-linejoin: miter; stroke-miterlimit: 4; is-custom-font: none; font-file-url: none; fill: rgb(242,242,242); fill-rule: nonzero; opacity: 1;" cx="0" cy="0" r="24"/>
</g>
		<g transform="matrix(1 0 0 1 161.0551 142.3692)">
<circle style="stroke: none; stroke-width: 1; stroke-dasharray: none; stroke-linecap: butt; stroke-dashoffset: 0; stroke-linejoin: miter; stroke-miterlimit: 4; is-custom-font: none; font-file-url: none; fill: rgb(242,242,242); fill-rule: nonzero; opacity: 1;" cx="0" cy="0" r="24"/>
</g>
		<g transform="matrix(1 0 0 1 362.0551 131.3692)">
<circle style="stroke: none; stroke-width: 1; stroke-dasharray: none; stroke-linecap: butt; stroke-dashoffset: 0; stroke-linejoin: miter; stroke-miterlimit: 4; is-custom-font: none; font-file-url: none; fill: rgb(242,242,242); fill-rule: nonzero; opacity: 1;" cx="0" cy="0" r="24"/>
</g>
		<g transform="matrix(1 0 0 1 5.0868 -36.6308)">
<path style="stroke: none; stroke-width: 1; stroke-dasharray: none; stroke-linecap: butt; stroke-dashoffset: 0; stroke-linejoin: miter; stroke-miterlimit: 4; is-custom-font: none; font-file-url: none; fill: rgb(0,160,113); fill-rule: nonzero; opacity: 1;" transform=" translate(-605.0868, -413.3692)" d="M 604.12763 220.37264 c -71.89185 0.50782 -130.75611 58.92987 -131.77735 130.81635 c -0.00946 0.66369 -0.01381 5.33048 -0.01324 11.43422 a 33.74778 33.74778 0 0 0 33.74387 33.746 h 0.00007 a 33.76855 33.76855 0 0 0 33.76114 -33.79775 c -0.00343 -4.15211 -0.00551 -7.02584 -0.00551 -7.20227 a 64.00037 64.00037 0 1 1 98.52027 53.8794 l 0.01171 0.01422 s -48.02832 30.91956 -62.67089 73.33545 l 0.01245 0.003 a 94.00389 94.00389 0 0 0 -3.87354 26.76794 c 0 3.72538 0.21916 36.32138 0.64261 62.77767 a 34.78649 34.78649 0 0 0 34.79009 34.22233 h 0.00007 a 34.79588 34.79588 0 0 0 34.79384 -35.01061 c -0.14706 -24.22912 -0.22661 -52.44168 -0.22661 -54.48939 c 0 -26.04473 25.12525 -51.99475 45.76367 -68.91741 c 23.76587 -19.48694 40.86792 -46.04291 47.73706 -75.99909 a 86.7618 86.7618 0 0 0 2.49927 -18.8335 A 132.75 132.75 0 0 0 604.12763 220.37264 Z" stroke-linecap="round"/>
</g>
		<g transform="matrix(1 0 0 1 0.0018 296.4401)">
<path style="stroke: none; stroke-width: 1; stroke-dasharray: none; stroke-linecap: butt; stroke-dashoffset: 0; stroke-linejoin: miter; stroke-miterlimit: 4; is-custom-font: none; font-file-url: none; fill: rgb(63,61,86); fill-rule: nonzero; opacity: 1;" transform=" translate(-600.0017, -746.4401)" d="M 1021.147 747.63078 H 178.853 a 1.19069 1.19069 0 0 1 0 -2.38137 h 842.294 a 1.19068 1.19068 0 0 1 0 2.38137 Z" stroke-linecap="round"/>
</g>
		<g transform="matrix(1 0 0 1 206.1112 -54.6349)">
<circle style="stroke: none; stroke-width: 1; stroke-dasharray: none; stroke-linecap: butt; stroke-dashoffset: 0; stroke-linejoin: miter; stroke-miterlimit: 4; is-custom-font: none; font-file-url: none; fill: rgb(47,46,65); fill-rule: nonzero; opacity: 1;" cx="0" cy="0" r="30"/>
</g>
		<g transform="matrix(1 0 0 1 141.6298 260.8542)">
<polygon style="stroke: none; stroke-width: 1; stroke-dasharray: none; stroke-linecap: butt; stroke-dashoffset: 0; stroke-linejoin: miter; stroke-miterlimit: 4; is-custom-font: none; font-file-url: none; fill: rgb(160,97,106); fill-rule: nonzero; opacity: 1;" points="9.0445,23.644 -3.2145,23.644 -9.0475,-23.644 9.0475,-23.644 9.0445,23.644 "/>
</g>
		<g transform="matrix(1 0 0 1 134.0364 288.4382)">
<path style="stroke: none; stroke-width: 1; stroke-dasharray: none; stroke-linecap: butt; stroke-dashoffset: 0; stroke-linejoin: miter; stroke-miterlimit: 4; is-custom-font: none; font-file-url: none; fill: rgb(47,46,65); fill-rule: nonzero; opacity: 1;" transform=" translate(-556.374, -586.0691)" d="M 551.99554 578.62562 h 23.64387 a 0 0 0 0 1 0 0 v 14.88687 a 0 0 0 0 1 0 0 H 537.10868 a 0 0 0 0 1 0 0 v 0 A 14.88686 14.88686 0 0 1 551.99554 578.62562 Z" stroke-linecap="round"/>
</g>
		<g transform="matrix(1 0 0 1 236.6298 260.8542)">
<polygon style="stroke: none; stroke-width: 1; stroke-dasharray: none; stroke-linecap: butt; stroke-dashoffset: 0; stroke-linejoin: miter; stroke-miterlimit: 4; is-custom-font: none; font-file-url: none; fill: rgb(160,97,106); fill-rule: nonzero; opacity: 1;" points="9.0445,23.644 -3.2145,23.644 -9.0475,-23.644 9.0475,-23.644 9.0445,23.644 "/>
</g>
		<g transform="matrix(1 0 0 1 229.0364 288.4382)">
<path style="stroke: none; stroke-width: 1; stroke-dasharray: none; stroke-linecap: butt; stroke-dashoffset: 0; stroke-linejoin: miter; stroke-miterlimit: 4; is-custom-font: none; font-file-url: none; fill: rgb(47,46,65); fill-rule: nonzero; opacity: 1;" transform=" translate(-651.374, -586.0691)" d="M 646.99554 578.62562 h 23.64387 a 0 0 0 0 1 0 0 v 14.88687 a 0 0 0 0 1 0 0 H 632.10868 a 0 0 0 0 1 0 0 v 0 A 14.88686 14.88686 0 0 1 646.99554 578.62562 Z" stroke-linecap="round"/>
</g>
		<g transform="matrix(1 0 0 1 201.5521 -49.0207)">
<circle style="stroke: none; stroke-width: 1; stroke-dasharray: none; stroke-linecap: butt; stroke-dashoffset: 0; stroke-linejoin: miter; stroke-miterlimit: 4; is-custom-font: none; font-file-url: none; fill: rgb(160,97,106); fill-rule: nonzero; opacity: 1;" cx="0" cy="0" r="24.56103"/>
</g>
		<g transform="matrix(1 0 0 1 190.5935 128.2151)">
<path style="stroke: none; stroke-width: 1; stroke-dasharray: none; stroke-linecap: butt; stroke-dashoffset: 0; stroke-linejoin: miter; stroke-miterlimit: 4; is-custom-font: none; font-file-url: none; fill: rgb(47,46,65); fill-rule: nonzero; opacity: 1;" transform=" translate(-790.5934, -578.2151)" d="M 816.19123 504.7751 l 10.98975 -25.25 a 31.38253 31.38253 0 0 0 -6.94971 -35.6 a 31.87322 31.87322 0 0 0 -3.07031 -2.67 a 30.93522 30.93522 0 0 0 -18.98975 -6.57 a 32.179 32.179 0 0 0 -13.3999 2.98 c -0.36035 0.16 -0.71 0.33 -1.07031 0.5 c -0.68994 0.33 -1.36963 0.69 -2.02979 1.06 a 31.67823 31.67823 0 0 0 -15.70019 23.88 l -4.8501 40.64 c -1.21973 3.19 -44.73975 118.39 -29.51953 206.34 a 4.46692 4.46692 0 0 0 3.81982 3.67 l 15.43018 2.1 a 4.49661 4.49661 0 0 0 5.00976 -3.53 l 25.89014 -123.41 a 3.50323 3.50323 0 0 1 6.79981 -0.23 l 36.58007 129.78 a 4.47129 4.47129 0 0 0 4.31006 3.28 a 5.12184 5.12184 0 0 0 0.87012 -0.08 l 18.84961 -3.63 a 4.471 4.471 0 0 0 3.63037 -4.81 C 850.02131 682.3351 835.3011 527.60512 816.19123 504.7751 Z" stroke-linecap="round"/>
</g>
		<g transform="matrix(1 0 0 1 123.4219 -10.9846)">
<path style="stroke: none; stroke-width: 1; stroke-dasharray: none; stroke-linecap: butt; stroke-dashoffset: 0; stroke-linejoin: miter; stroke-miterlimit: 4; is-custom-font: none; font-file-url: none; fill: rgb(160,97,106); fill-rule: nonzero; opacity: 1;" transform=" translate(-723.4219, -439.0154)" d="M 706.10166 421.41909 A 10.05576 10.05576 0 0 0 716.696 432.6225 l 13.72894 32.99236 l 10.385 -15.3943 l -14.62937 -28.97 a 10.11027 10.11027 0 0 0 -20.07892 0.16852 Z" stroke-linecap="round"/>
</g>
		<g transform="matrix(1 0 0 1 213.1579 67.8037)">
<path style="stroke: none; stroke-width: 1; stroke-dasharray: none; stroke-linecap: butt; stroke-dashoffset: 0; stroke-linejoin: miter; stroke-miterlimit: 4; is-custom-font: none; font-file-url: none; fill: rgb(160,97,106); fill-rule: nonzero; opacity: 1;" transform=" translate(-813.1578, -517.8037)" d="M 800.19025 537.99553 a 10.05577 10.05577 0 0 0 8.42651 -12.91316 l 28.88533 -21.03846 l -17.39036 -6.51224 l -24.76387 20.97687 a 10.11028 10.11028 0 0 0 4.84239 19.487 Z" stroke-linecap="round"/>
</g>
		<g transform="matrix(1 0 0 1 155.4936 13.0003)">
<path style="stroke: none; stroke-width: 1; stroke-dasharray: none; stroke-linecap: butt; stroke-dashoffset: 0; stroke-linejoin: miter; stroke-miterlimit: 4; is-custom-font: none; font-file-url: none; fill: rgb(47,46,65); fill-rule: nonzero; opacity: 1;" transform=" translate(-755.4936, -463.0003)" d="M 753.10188 487.61024 a 17.05692 17.05692 0 0 1 -3.29834 -0.32519 a 16.30539 16.30539 0 0 1 -11.94751 -9.61621 l -19.23438 -23.45313 a 4.50075 4.50075 0 0 1 1.11109 -6.68066 l 13.68432 -8.4707 a 4.50007 4.50007 0 0 1 6.21533 1.49023 l 13.5564 22.334 L 779.15022 443.702 A 9.72146 9.72146 0 0 1 790.46 459.26356 l -25.91186 23.63672 A 16.25271 16.25271 0 0 1 753.10188 487.61024 Z" stroke-linecap="round"/>
</g>
		<g transform="matrix(1 0 0 1 231.3344 34.3032)">
<path style="stroke: none; stroke-width: 1; stroke-dasharray: none; stroke-linecap: butt; stroke-dashoffset: 0; stroke-linejoin: miter; stroke-miterlimit: 4; is-custom-font: none; font-file-url: none; fill: rgb(47,46,65); fill-rule: nonzero; opacity: 1;" transform=" translate(-831.3344, -484.3032)" d="M 823.252 522.8827 c -0.03515 0 -0.07055 0 -0.10571 -0.001 a 4.50783 4.50783 0 0 1 -3.31079 -1.57031 l -12.16626 -14.19336 a 4.49979 4.49979 0 0 1 0.92041 -6.67286 l 22.78149 -15.1875 l -20.63842 -24.8125 a 9.721 9.721 0 0 1 14.8872 -12.18261 l 25.0835 24.51269 a 16.52481 16.52481 0 0 1 -3.67529 26.94043 l -20.50122 21.75391 A 4.50742 4.50742 0 0 1 823.252 522.8827 Z" stroke-linecap="round"/>
</g>
		<g transform="matrix(1 0 0 1 199.2247 1.3843)">
<path style="stroke: none; stroke-width: 1; stroke-dasharray: none; stroke-linecap: butt; stroke-dashoffset: 0; stroke-linejoin: miter; stroke-miterlimit: 4; is-custom-font: none; font-file-url: none; fill: rgb(230,230,230); fill-rule: nonzero; opacity: 1;" transform=" translate(-799.2247, -451.3843)" d="M 795.30707 470.58358 a 4.63212 4.63212 0 0 1 -0.584 -0.03711 a 4.46111 4.46111 0 0 1 -3.71045 -3.06885 l -9.14234 -28.02929 a 3.08255 3.08255 0 0 1 1.594 -3.72461 l 0.29663 -0.14014 c 0.269 -0.12793 0.5354 -0.25439 0.80737 -0.37549 a 32.57412 32.57412 0 0 1 13.603 -3.023 a 31.327 31.327 0 0 1 17.16138 5.15674 a 3.13007 3.13007 0 0 1 0.90136 4.29443 L 799.08393 468.504 A 4.45513 4.45513 0 0 1 795.30707 470.58358 Z" stroke-linecap="round"/>
</g>
		<g transform="matrix(1 0 0 1 229.7634 -77.8446)">
<circle style="stroke: none; stroke-width: 1; stroke-dasharray: none; stroke-linecap: butt; stroke-dashoffset: 0; stroke-linejoin: miter; stroke-miterlimit: 4; is-custom-font: none; font-file-url: none; fill: rgb(47,46,65); fill-rule: nonzero; opacity: 1;" cx="0" cy="0" r="9.81668"/>
</g>
		<g transform="matrix(1 0 0 1 201.6112 -70.1349)">
<path style="stroke: none; stroke-width: 1; stroke-dasharray: none; stroke-linecap: butt; stroke-dashoffset: 0; stroke-linejoin: miter; stroke-miterlimit: 4; is-custom-font: none; font-file-url: none; fill: rgb(47,46,65); fill-rule: nonzero; opacity: 1;" transform=" translate(-801.6111, -379.8651)" d="M 796.11115 361.36513 h 0 a 26 26 0 0 0 -26 25.99994 v 11.00006 h 13.5293 l 6.4707 -11 l 1.94141 11 h 41.05859 l -11 -11.00006 A 26 26 0 0 0 796.11115 361.36513 Z" stroke-linecap="round"/>
</g>
		<g transform="matrix(1 0 0 1 266.96 -63.0385)">
<path style="stroke: none; stroke-width: 1; stroke-dasharray: none; stroke-linecap: butt; stroke-dashoffset: 0; stroke-linejoin: miter; stroke-miterlimit: 4; is-custom-font: none; font-file-url: none; fill: rgb(47,46,65); fill-rule: nonzero; opacity: 1;" transform=" translate(-866.96, -386.9615)" d="M 834.80883 365.43121 a 15.15 15.15 0 0 1 16.48081 -10.39558 c 6.256 1.04586 11.20228 6.07455 14.14944 11.69107 s 4.30806 11.90252 6.28935 17.92793 s 4.79124 12.08362 9.79306 15.984 s 12.67721 4.9584 17.58966 0.94607 a 20.11809 20.11809 0 0 1 -37.47706 7.18124 c -2.59206 -4.61172 -3.26121 -10.01684 -4.02988 -15.251 s -1.7674 -10.6498 -4.86211 -14.94043 s -8.88772 -7.09293 -13.80374 -5.13859 Z" stroke-linecap="round"/>
</g>
		<g transform="matrix(1 0 0 1 -95.0193 -114.1369)">
<path style="stroke: none; stroke-width: 1; stroke-dasharray: none; stroke-linecap: butt; stroke-dashoffset: 0; stroke-linejoin: miter; stroke-miterlimit: 4; is-custom-font: none; font-file-url: none; fill: rgb(63,61,86); fill-rule: nonzero; opacity: 1;" transform=" translate(-504.9806, -335.8631)" d="M 515.60883 380.40755 h 0 a 33.748 33.748 0 0 1 -33.74414 -33.746 c -0.00049 -6.10376 0.0039 -10.77051 0.01318 -11.4342 a 131.50724 131.50724 0 0 1 15.35889 -59.90875 a 131.80321 131.80321 0 0 0 -25.35889 75.90875 c -0.00928 0.66369 -0.01367 5.33044 -0.01318 11.4342 a 33.748 33.748 0 0 0 33.74414 33.746 h 0 A 33.77281 33.77281 0 0 0 538.09662 371.817 A 33.62247 33.62247 0 0 1 515.60883 380.40755 Z" stroke-linecap="round"/>
</g>
		<g transform="matrix(1 0 0 1 15.9971 -121.8518)">
<path style="stroke: none; stroke-width: 1; stroke-dasharray: none; stroke-linecap: butt; stroke-dashoffset: 0; stroke-linejoin: miter; stroke-miterlimit: 4; is-custom-font: none; font-file-url: none; fill: rgb(63,61,86); fill-rule: nonzero; opacity: 1;" transform=" translate(-615.9971, -328.1482)" d="M 606.415 291.47848 a 64.00385 64.00385 0 0 1 55.65918 89.413 a 63.9972 63.9972 0 1 0 -107.42578 -66.98523 A 63.87073 63.87073 0 0 1 606.415 291.47848 Z" stroke-linecap="round"/>
</g>
		<g transform="matrix(1 0 0 1 5.7814 80.1716)">
<path style="stroke: none; stroke-width: 1; stroke-dasharray: none; stroke-linecap: butt; stroke-dashoffset: 0; stroke-linejoin: miter; stroke-miterlimit: 4; is-custom-font: none; font-file-url: none; fill: rgb(63,61,86); fill-rule: nonzero; opacity: 1;" transform=" translate(-605.7814, -530.1716)" d="M 616.79682 590.40755 h 0 a 34.78682 34.78682 0 0 1 -34.79 -34.22235 c -0.42334 -26.45629 -0.64258 -59.0523 -0.64258 -62.77765 a 94.00389 94.00389 0 0 1 3.87354 -26.76794 l -0.01221 -0.003 a 95.069 95.069 0 0 1 5.49414 -12.70087 a 110.04745 110.04745 0 0 0 -15.49414 28.70087 l 0.01221 0.003 a 94.00389 94.00389 0 0 0 -3.87354 26.76794 c 0 3.72535 0.21924 36.32136 0.64258 62.77765 a 34.78682 34.78682 0 0 0 34.79 34.22235 h 0 a 34.80287 34.80287 0 0 0 33.40185 -25.04846 A 34.66005 34.66005 0 0 1 616.79682 590.40755 Z" stroke-linecap="round"/>
</g>
		<g transform="matrix(1 0 0 1 -286.7522 261.3097)">
<polygon style="stroke: none; stroke-width: 1; stroke-dasharray: none; stroke-linecap: butt; stroke-dashoffset: 0; stroke-linejoin: miter; stroke-miterlimit: 4; is-custom-font: none; font-file-url: none; fill: rgb(255,184,184); fill-rule: nonzero; opacity: 1;" points="-9.0445,23.6445 3.2145,23.6435 9.0475,-23.6445 -9.0475,-23.6435 -9.0445,23.6445 "/>
</g>
		<g transform="matrix(-1 0 0 -1 -279.1587 288.8941)">
<path style="stroke: none; stroke-width: 1; stroke-dasharray: none; stroke-linecap: butt; stroke-dashoffset: 0; stroke-linejoin: miter; stroke-miterlimit: 4; is-custom-font: none; font-file-url: none; fill: rgb(47,46,65); fill-rule: nonzero; opacity: 1;" transform=" translate(-320.8414, -738.8941)" d="M 301.576 731.45065 H 340.1067 a 0 0 0 0 1 0 0 v 14.88687 a 0 0 0 0 1 0 0 H 316.46283 A 14.88686 14.88686 0 0 1 301.576 731.45066 v 0 A 0 0 0 0 1 301.576 731.45065 Z" stroke-linecap="round"/>
</g>
		<g transform="matrix(1 0 0 1 -330.7522 261.3097)">
<polygon style="stroke: none; stroke-width: 1; stroke-dasharray: none; stroke-linecap: butt; stroke-dashoffset: 0; stroke-linejoin: miter; stroke-miterlimit: 4; is-custom-font: none; font-file-url: none; fill: rgb(255,184,184); fill-rule: nonzero; opacity: 1;" points="-9.0445,23.6445 3.2145,23.6435 9.0475,-23.6445 -9.0475,-23.6435 -9.0445,23.6445 "/>
</g>
		<g transform="matrix(-1 0 0 -1 -323.1587 288.8941)">
<path style="stroke: none; stroke-width: 1; stroke-dasharray: none; stroke-linecap: butt; stroke-dashoffset: 0; stroke-linejoin: miter; stroke-miterlimit: 4; is-custom-font: none; font-file-url: none; fill: rgb(47,46,65); fill-rule: nonzero; opacity: 1;" transform=" translate(-276.8414, -738.8941)" d="M 257.576 731.45065 H 296.1067 a 0 0 0 0 1 0 0 v 14.88687 a 0 0 0 0 1 0 0 H 272.46283 A 14.88686 14.88686 0 0 1 257.576 731.45066 v 0 A 0 0 0 0 1 257.576 731.45065 Z" stroke-linecap="round"/>
</g>
		<g transform="matrix(1 0 0 1 -302.1948 188.3829)">
<path style="stroke: none; stroke-width: 1; stroke-dasharray: none; stroke-linecap: butt; stroke-dashoffset: 0; stroke-linejoin: miter; stroke-miterlimit: 4; is-custom-font: none; font-file-url: none; fill: rgb(47,46,65); fill-rule: nonzero; opacity: 1;" transform=" translate(-297.8052, -638.3828)" d="M 270.91659 720.41068 l -11.975 -0.62988 a 4.6735 4.6735 0 0 1 -4.41851 -4.967 l 14.31268 -158.46594 l 65.911 17.78562 l 6.35023 -1.73241 L 321.23868 712.68583 a 4.69622 4.69622 0 0 1 -4.35816 3.94458 l -12.9089 0.60147 a 4.67413 4.67413 0 0 1 -4.93149 -4.79557 l 2.339 -84.19641 a 1.55813 1.55813 0 0 0 -3.0832 -0.36007 L 275.739 716.69228 a 4.64568 4.64568 0 0 1 -4.56913 3.7255 C 271.086 720.41778 271.00154 720.41575 270.91659 720.41068 Z" stroke-linecap="round"/>
</g>
		<g transform="matrix(1 0 0 1 -293.5957 -47.872)">
<circle style="stroke: none; stroke-width: 1; stroke-dasharray: none; stroke-linecap: butt; stroke-dashoffset: 0; stroke-linejoin: miter; stroke-miterlimit: 4; is-custom-font: none; font-file-url: none; fill: rgb(255,184,184); fill-rule: nonzero; opacity: 1;" cx="0" cy="0" r="24.56103"/>
</g>
		<g transform="matrix(1 0 0 1 -296.3333 58.2629)">
<path style="stroke: none; stroke-width: 1; stroke-dasharray: none; stroke-linecap: butt; stroke-dashoffset: 0; stroke-linejoin: miter; stroke-miterlimit: 4; is-custom-font: none; font-file-url: none; fill: rgb(204,204,204); fill-rule: nonzero; opacity: 1;" transform=" translate(-303.6667, -508.2628)" d="M 265.51193 474.28693 l 2.70056 58.26748 l 0.97625 21.19852 a 4.64221 4.64221 0 0 0 3.07432 4.17534 l 63.336 22.94342 a 4.47742 4.47742 0 0 0 1.59954 0.28045 a 4.64358 4.64358 0 0 0 4.66371 -4.7881 L 339.2657 471.5969 A 36.93044 36.93044 0 0 0 308.522 435.91974 c -0.61263 -0.09345 -1.23592 -0.18695 -1.8592 -0.27006 a 36.24947 36.24947 0 0 0 -29.165 9.44122 a 37.23612 37.23612 0 0 0 -11.9859 29.196 Z" stroke-linecap="round"/>
</g>
		<g transform="matrix(1 0 0 1 -240.9843 97.0157)">
<path style="stroke: none; stroke-width: 1; stroke-dasharray: none; stroke-linecap: butt; stroke-dashoffset: 0; stroke-linejoin: miter; stroke-miterlimit: 4; is-custom-font: none; font-file-url: none; fill: rgb(255,184,184); fill-rule: nonzero; opacity: 1;" transform=" translate(-359.0157, -547.0156)" d="M 365.85452 569.24512 a 10.06355 10.06355 0 0 1 -5.36877 -15.22659 l -21.478 -28.56 l 18.53424 -1.14707 l 17.55439 27.29693 a 10.111 10.111 0 0 1 -9.24184 17.63673 Z" stroke-linecap="round"/>
</g>
		<g transform="matrix(1 0 0 1 -256.7804 50.5708)">
<path style="stroke: none; stroke-width: 1; stroke-dasharray: none; stroke-linecap: butt; stroke-dashoffset: 0; stroke-linejoin: miter; stroke-miterlimit: 4; is-custom-font: none; font-file-url: none; fill: rgb(204,204,204); fill-rule: nonzero; opacity: 1;" transform=" translate(-343.2197, -500.5708)" d="M 350.75332 548.85022 a 4.64437 4.64437 0 0 1 -2.54106 -2.51848 L 315.854 469.2374 a 12.4634 12.4634 0 1 1 22.98438 -9.64693 l 32.3582 77.09534 a 4.679 4.679 0 0 1 -2.50048 6.11822 l -14.36542 6.029 a 4.64165 4.64165 0 0 1 -3.57741 0.01724 Z" stroke-linecap="round"/>
</g>
		<g transform="matrix(1 0 0 1 -259.0777 80.4123)">
<path style="stroke: none; stroke-width: 1; stroke-dasharray: none; stroke-linecap: butt; stroke-dashoffset: 0; stroke-linejoin: miter; stroke-miterlimit: 4; is-custom-font: none; font-file-url: none; fill: rgb(63,61,86); fill-rule: nonzero; opacity: 1;" transform=" translate(-340.9223, -530.4123)" d="M 298.50776 546.13086 L 329.587 486.62205 a 4.87826 4.87826 0 0 1 6.57494 -2.06344 l 45.11152 23.5601 a 4.87826 4.87826 0 0 1 2.06343 6.57494 l -31.07927 59.50881 a 4.87827 4.87827 0 0 1 -6.57494 2.06344 L 300.5712 552.7058 A 4.87826 4.87826 0 0 1 298.50776 546.13086 Z" stroke-linecap="round"/>
</g>
		<g transform="matrix(1 0 0 1 -302.9864 63.702)">
<path style="stroke: none; stroke-width: 1; stroke-dasharray: none; stroke-linecap: butt; stroke-dashoffset: 0; stroke-linejoin: miter; stroke-miterlimit: 4; is-custom-font: none; font-file-url: none; fill: rgb(255,184,184); fill-rule: nonzero; opacity: 1;" transform=" translate(-297.0136, -513.7019)" d="M 319.35062 518.94278 a 10.06358 10.06358 0 0 0 -15.517 -4.46026 l -29.77845 -19.75406 l -0.05061 18.56963 L 302.2904 529.21 a 10.111 10.111 0 0 0 17.06022 -10.26718 Z" stroke-linecap="round"/>
</g>
		<g transform="matrix(1 0 0 1 -327.3441 34.0855)">
<path style="stroke: none; stroke-width: 1; stroke-dasharray: none; stroke-linecap: butt; stroke-dashoffset: 0; stroke-linejoin: miter; stroke-miterlimit: 4; is-custom-font: none; font-file-url: none; fill: rgb(204,204,204); fill-rule: nonzero; opacity: 1;" transform=" translate(-272.656, -484.0855)" d="M 281.7006 523.11883 l -24.33677 -19.27776 a 17.16326 17.16326 0 0 1 -7.82343 -27.13518 l 22.09715 -28.95951 a 10.096 10.096 0 0 1 17.1296 10.28435 l -17.48384 28.6 l 25.694 12.18686 a 4.67363 4.67363 0 0 1 1.94814 6.71958 l -10.37175 16.41406 a 4.682 4.682 0 0 1 -3.16671 2.1111 c -0.02565 0.00448 -0.05149 0.00846 -0.0773 0.0123 A 4.69555 4.69555 0 0 1 281.7006 523.11883 Z" stroke-linecap="round"/>
</g>
		<g transform="matrix(1 0 0 1 -296.8293 -55.9969)">
<path style="stroke: none; stroke-width: 1; stroke-dasharray: none; stroke-linecap: butt; stroke-dashoffset: 0; stroke-linejoin: miter; stroke-miterlimit: 4; is-custom-font: none; font-file-url: none; fill: rgb(47,46,65); fill-rule: nonzero; opacity: 1;" transform=" translate(-303.1706, -394.0031)" d="M 287.84537 418.57447 a 2.13479 2.13479 0 0 1 1.85636 -2.81905 a 4.93046 4.93046 0 0 1 3.4761 1.71495 a 13.8334 13.8334 0 0 0 3.07115 2.63711 c 1.18812 0.59889 2.79953 0.51354 3.47685 -0.62824 c 0.63605 -1.07221 0.20023 -2.508 -0.18482 -3.75347 a 36.90711 36.90711 0 0 1 -1.62991 -9.77 c -0.11092 -3.70032 0.41115 -7.562 2.45972 -10.44807 c 2.64387 -3.72475 7.37142 -5.13883 11.84544 -5.0363 s 8.87547 1.48362 13.30713 2.35665 c 1.52992 0.30139 3.32826 0.4555 4.35153 -0.73025 c 1.08805 -1.26082 0.68844 -3.3014 0.22563 -5.00376 c -1.20094 -4.41743 -2.475 -8.98461 -5.26525 -12.55224 a 18.89839 18.89839 0 0 0 -12.06081 -6.79014 a 28.93848 28.93848 0 0 0 -13.46236 1.52838 a 36.09628 36.09628 0 0 0 -17.68285 12.3186 a 29.23592 29.23592 0 0 0 -5.57809 21.60019 a 26.66712 26.66712 0 0 0 9.88579 16.85462 Z" stroke-linecap="round"/>
</g>
		<g transform="matrix(1 0 0 1 3.697 255.2343)">
<path style="stroke: none; stroke-width: 1; stroke-dasharray: none; stroke-linecap: butt; stroke-dashoffset: 0; stroke-linejoin: miter; stroke-miterlimit: 4; is-custom-font: none; font-file-url: none; fill: rgb(63,61,86); fill-rule: nonzero; opacity: 1;" transform=" translate(-603.697, -705.2343)" d="M 598.92043 735.14922 a 45.99375 45.99375 0 0 1 -17.07033 -71.4888 a 45.99715 45.99715 0 1 0 62.56892 66.464 A 45.96919 45.96919 0 0 1 598.92043 735.14922 Z" stroke-linecap="round"/>
</g>
</g>
</g>
<g transform="matrix(1 0 0 1 500 201.4444)" style="" id="289286">
		
<path xml:space="preserve" font-family="Lato" font-size="100" font-style="normal" font-weight="normal" style="stroke: rgb(0,160,113); stroke-width: 1; stroke-dasharray: none; stroke-linecap: butt; stroke-dashoffset: 0; stroke-linejoin: miter; stroke-miterlimit: 4; is-custom-font: none; font-file-url: none; fill: rgb(0,160,113); fill-rule: nonzero; opacity: 1; white-space: pre;" d="M-188.13-40.24L-188.13-40.24Q-186.83-40.24-186.20-39.91Q-185.58-39.59-184.78-38.59L-184.78-38.59L-143.28 15.41Q-143.43 14.11-143.48 12.89Q-143.53 11.66-143.53 10.51L-143.53 10.51L-143.53-40.24L-135.03-40.24L-135.03 31.41L-139.93 31.41Q-141.08 31.41-141.85 31.01Q-142.63 30.61-143.38 29.66L-143.38 29.66L-184.83-24.29Q-184.73-23.04-184.68-21.84Q-184.63-20.64-184.63-19.64L-184.63-19.64L-184.63 31.41L-193.13 31.41L-193.13-40.24L-188.13-40.24ZM-98.43-20.04L-98.43-20.04Q-92.88-20.04-88.40-18.19Q-83.93-16.34-80.80-12.94Q-77.68-9.54-76.00-4.71Q-74.33 0.11-74.33 6.06L-74.33 6.06Q-74.33 12.06-76.00 16.86Q-77.68 21.66-80.80 25.06Q-83.93 28.46-88.40 30.29Q-92.88 32.11-98.43 32.11L-98.43 32.11Q-103.98 32.11-108.45 30.29Q-112.93 28.46-116.08 25.06Q-119.23 21.66-120.93 16.86Q-122.63 12.06-122.63 6.06L-122.63 6.06Q-122.63 0.11-120.93-4.71Q-119.23-9.54-116.08-12.94Q-112.93-16.34-108.45-18.19Q-103.98-20.04-98.43-20.04ZM-98.43 25.16L-98.43 25.16Q-90.93 25.16-87.23 20.14Q-83.53 15.11-83.53 6.11L-83.53 6.11Q-83.53-2.94-87.23-7.99Q-90.93-13.04-98.43-13.04L-98.43-13.04Q-102.23-13.04-105.03-11.74Q-107.83-10.44-109.70-7.99Q-111.58-5.54-112.50-1.96Q-113.43 1.61-113.43 6.11L-113.43 6.11Q-113.43 10.61-112.50 14.16Q-111.58 17.71-109.70 20.14Q-107.83 22.56-105.03 23.86Q-102.23 25.16-98.43 25.16ZM-3.58-33.64L-5.93-29.04Q-6.38-28.29-6.88-27.91Q-7.38-27.54-8.18-27.54L-8.18-27.54Q-9.03-27.54-10.15-28.39Q-11.28-29.24-13.00-30.26Q-14.73-31.29-17.15-32.14Q-19.58-32.99-23.03-32.99L-23.03-32.99Q-26.28-32.99-28.78-32.11Q-31.28-31.24-32.95-29.74Q-34.63-28.24-35.48-26.21Q-36.33-24.19-36.33-21.84L-36.33-21.84Q-36.33-18.84-34.85-16.86Q-33.38-14.89-30.95-13.49Q-28.53-12.09-25.45-11.06Q-22.38-10.04-19.15-8.94Q-15.93-7.84-12.85-6.46Q-9.78-5.09-7.35-2.99Q-4.93-0.89-3.45 2.16Q-1.98 5.21-1.98 9.66L-1.98 9.66Q-1.98 14.36-3.58 18.49Q-5.18 22.61-8.25 25.66Q-11.33 28.71-15.80 30.46Q-20.28 32.21-25.98 32.21L-25.98 32.21Q-32.93 32.21-38.65 29.69Q-44.38 27.16-48.43 22.86L-48.43 22.86L-45.63 18.26Q-45.23 17.71-44.65 17.34Q-44.08 16.96-43.38 16.96L-43.38 16.96Q-42.33 16.96-40.98 18.09Q-39.63 19.21-37.60 20.56Q-35.58 21.91-32.70 23.04Q-29.83 24.16-25.68 24.16L-25.68 24.16Q-22.23 24.16-19.53 23.21Q-16.83 22.26-14.95 20.54Q-13.08 18.81-12.08 16.41Q-11.08 14.01-11.08 11.06L-11.08 11.06Q-11.08 7.81-12.55 5.74Q-14.03 3.66-16.43 2.26Q-18.83 0.86-21.90-0.11Q-24.98-1.09-28.20-2.11Q-31.43-3.14-34.50-4.49Q-37.58-5.84-39.98-7.99Q-42.38-10.14-43.85-13.36Q-45.33-16.59-45.33-21.34L-45.33-21.34Q-45.33-25.14-43.85-28.69Q-42.38-32.24-39.58-34.99Q-36.78-37.74-32.65-39.39Q-28.53-41.04-23.18-41.04L-23.18-41.04Q-17.18-41.04-12.23-39.14Q-7.28-37.24-3.58-33.64L-3.58-33.64ZM9.27-42.24L18.22-42.24L18.22 1.11L20.52 1.11Q21.52 1.11 22.17 0.84Q22.82 0.56 23.62-0.29L23.62-0.29L39.62-17.44Q40.37-18.24 41.12-18.74Q41.87-19.24 43.12-19.24L43.12-19.24L51.22-19.24L32.57 0.61Q31.87 1.46 31.20 2.11Q30.52 2.76 29.67 3.26L29.67 3.26Q30.57 3.86 31.30 4.64Q32.02 5.41 32.67 6.41L32.67 6.41L52.47 31.41L44.47 31.41Q43.37 31.41 42.60 30.99Q41.82 30.56 41.12 29.66L41.12 29.66L24.47 8.91Q23.72 7.86 22.97 7.54Q22.22 7.21 20.72 7.21L20.72 7.21L18.22 7.21L18.22 31.41L9.27 31.41L9.27-42.24ZM62.37-19.24L71.27-19.24L71.27 31.41L62.37 31.41L62.37-19.24ZM73.27-35.14L73.27-35.14Q73.27-33.84 72.75-32.71Q72.22-31.59 71.35-30.71Q70.47-29.84 69.32-29.34Q68.17-28.84 66.87-28.84L66.87-28.84Q65.57-28.84 64.45-29.34Q63.32-29.84 62.45-30.71Q61.57-31.59 61.07-32.71Q60.57-33.84 60.57-35.14L60.57-35.14Q60.57-36.44 61.07-37.61Q61.57-38.79 62.45-39.66Q63.32-40.54 64.45-41.04Q65.57-41.54 66.87-41.54L66.87-41.54Q68.17-41.54 69.32-41.04Q70.47-40.54 71.35-39.66Q72.22-38.79 72.75-37.61Q73.27-36.44 73.27-35.14ZM87.97-42.24L96.87-42.24L96.87 31.41L87.97 31.41L87.97-42.24ZM113.57-42.24L122.47-42.24L122.47 31.41L113.57 31.41L113.57-42.24ZM169.17-14.14L167.17-10.89Q166.57-9.79 165.32-9.79L165.32-9.79Q164.57-9.79 163.62-10.34Q162.67-10.89 161.30-11.56Q159.92-12.24 158.02-12.81Q156.12-13.39 153.52-13.39L153.52-13.39Q151.27-13.39 149.47-12.81Q147.67-12.24 146.40-11.24Q145.12-10.24 144.45-8.91Q143.77-7.59 143.77-6.04L143.77-6.04Q143.77-4.09 144.90-2.79Q146.02-1.49 147.87-0.54Q149.72 0.41 152.07 1.14Q154.42 1.86 156.90 2.69Q159.37 3.51 161.72 4.51Q164.07 5.51 165.92 7.01Q167.77 8.51 168.90 10.69Q170.02 12.86 170.02 15.91L170.02 15.91Q170.02 19.41 168.77 22.39Q167.52 25.36 165.07 27.54Q162.62 29.71 159.07 30.96Q155.52 32.21 150.87 32.21L150.87 32.21Q145.57 32.21 141.27 30.49Q136.97 28.76 133.97 26.06L133.97 26.06L136.07 22.66Q136.47 22.01 137.02 21.66Q137.57 21.31 138.47 21.31L138.47 21.31Q139.37 21.31 140.37 22.01Q141.37 22.71 142.80 23.56Q144.22 24.41 146.25 25.11Q148.27 25.81 151.32 25.81L151.32 25.81Q153.92 25.81 155.87 25.14Q157.82 24.46 159.12 23.31Q160.42 22.16 161.05 20.66Q161.67 19.16 161.67 17.46L161.67 17.46Q161.67 15.36 160.55 13.99Q159.42 12.61 157.57 11.64Q155.72 10.66 153.35 9.94Q150.97 9.21 148.50 8.41Q146.02 7.61 143.65 6.59Q141.27 5.56 139.42 4.01Q137.57 2.46 136.45 0.19Q135.32-2.09 135.32-5.34L135.32-5.34Q135.32-8.24 136.52-10.91Q137.72-13.59 140.02-15.61Q142.32-17.64 145.67-18.84Q149.02-20.04 153.32-20.04L153.32-20.04Q158.32-20.04 162.30-18.46Q166.27-16.89 169.17-14.14L169.17-14.14ZM178.32-30.09L175.97-33.84Q177.52-35.29 179.40-36.59Q181.27-37.89 183.50-38.89Q185.72-39.89 188.30-40.46Q190.87-41.04 193.87-41.04L193.87-41.04Q197.82-41.04 201.20-39.89Q204.57-38.74 207.02-36.64Q209.47-34.54 210.87-31.54Q212.27-28.54 212.27-24.79L212.27-24.79Q212.27-20.99 211.15-18.24Q210.02-15.49 208.30-13.41Q206.57-11.34 204.52-9.81Q202.47-8.29 200.70-6.94Q198.92-5.59 197.65-4.24Q196.37-2.89 196.17-1.24L196.17-1.24L195.27 6.41L189.17 6.41L188.57-1.89L188.57-2.44Q188.57-4.54 189.70-6.16Q190.82-7.79 192.55-9.21Q194.27-10.64 196.25-12.06Q198.22-13.49 199.95-15.21Q201.67-16.94 202.80-19.14Q203.92-21.34 203.92-24.34L203.92-24.34Q203.92-26.49 203.07-28.24Q202.22-29.99 200.77-31.21Q199.32-32.44 197.35-33.09Q195.37-33.74 193.12-33.74L193.12-33.74Q190.07-33.74 187.90-32.99Q185.72-32.24 184.22-31.34Q182.72-30.44 181.80-29.69Q180.87-28.94 180.27-28.94L180.27-28.94Q179.02-28.94 178.32-30.09L178.32-30.09ZM185.77 25.91L185.77 25.91Q185.77 24.61 186.25 23.46Q186.72 22.31 187.55 21.46Q188.37 20.61 189.52 20.11Q190.67 19.61 191.97 19.61L191.97 19.61Q193.27 19.61 194.42 20.11Q195.57 20.61 196.42 21.46Q197.27 22.31 197.75 23.46Q198.22 24.61 198.22 25.91L198.22 25.91Q198.22 27.26 197.75 28.39Q197.27 29.51 196.42 30.36Q195.57 31.21 194.42 31.69Q193.27 32.16 191.97 32.16L191.97 32.16Q190.67 32.16 189.52 31.69Q188.37 31.21 187.55 30.36Q186.72 29.51 186.25 28.39Q185.77 27.26 185.77 25.91Z"/></g>
</svg>