<?xml version="1.0" encoding="UTF-8"?><svg id="a" xmlns="http://www.w3.org/2000/svg" viewBox="0 0 320 120"><path d="m36.47,71.28c-3.81-30.06,4.93-55.28,37.98-59.93,1.79-.26,3.58-.48,5.38-.65-3.26-.23-6.67-.34-10.22-.34-9.59,0-18.09.81-25.51,2.42-7.42,1.61-13.64,4.33-18.67,8.16-5.03,3.83-8.85,8.87-11.48,15.14-2.63,6.27-3.94,14.01-3.94,23.23s1.31,17.47,3.94,23.92c2.63,6.45,6.45,11.64,11.48,15.56,5.02,3.92,11.25,6.71,18.67,8.37,7.42,1.66,15.92,2.49,25.51,2.49,3.51,0,6.87-.11,10.09-.34-21.79-2.13-39.33-11.68-43.22-38.03Z" fill="#fff"/><path d="m115.82,66.62v13.25h10.51c-.37,1.16-.76,2.29-1.2,3.36-2.63,6.45-6.45,11.64-11.48,15.56-5.03,3.92-11.25,6.71-18.67,8.37-2.98.67-6.14,1.2-9.45,1.6-17.94-1.99-35.37-7.41-42.66-25.68.58.49,1.19.93,1.85,1.34,5.62,3.46,13.92,5.19,24.89,5.19s19.24-1.73,24.82-5.19c5.22-3.24,8-9.17,8.33-17.78h13.06Zm10.75-26.49c-.43-1.41-.91-2.77-1.45-4.05-2.63-6.27-6.45-11.32-11.48-15.14-5.03-3.82-11.25-6.54-18.67-8.16-2.95-.64-6.06-1.15-9.34-1.54-7.35.79-14.61,2.14-21.5,4.77-10.25,3.92-18.06,11.35-21.83,21.66.74-.69,1.53-1.32,2.4-1.87,5.62-3.6,13.92-5.39,24.89-5.39s19.24,1.8,24.82,5.39c5.29,3.41,8.07,9.27,8.34,17.58h13.05v-13.25h10.75Zm2.49,19.18c0-2.05-.07-4.03-.2-5.93h-13.05v13.25h12.96c.19-2.33.29-4.77.29-7.31Z" fill="#fff"/><path d="m141.58,28.04c0-1.79.25-3.3.77-4.51s1.25-2.2,2.23-2.94c.98-.74,2.19-1.27,3.63-1.59s3.09-.47,4.96-.47,3.49.16,4.93.47c1.44.31,2.65.84,3.63,1.59.98.74,1.72,1.72,2.23,2.94s.77,2.72.77,4.51-.25,3.39-.77,4.65-1.25,2.26-2.23,3.02c-.98.76-2.19,1.3-3.63,1.63-1.44.32-3.09.48-4.93.48s-3.52-.16-4.96-.48-2.65-.86-3.63-1.63c-.98-.76-1.72-1.77-2.23-3.02s-.77-2.8-.77-4.65Zm18.03,1.07v-1.96c0-1.76-.54-2.98-1.63-3.68-1.08-.7-2.69-1.05-4.82-1.05s-3.74.35-4.84,1.05-1.64,1.93-1.64,3.68v1.96c0,1.86.55,3.13,1.64,3.8s2.7,1.01,4.84,1.01,3.74-.34,4.82-1.01c1.08-.67,1.63-1.94,1.63-3.8Z" fill="#fff"/><path d="m167.33,23.74h4.7v2.12c.55-.86,1.33-1.49,2.32-1.89.99-.4,2.2-.6,3.61-.6,2.19,0,3.9.57,5.16,1.71,1.25,1.14,1.88,2.99,1.88,5.55s-.62,4.34-1.87,5.48c-1.24,1.15-2.97,1.72-5.17,1.72-1.34,0-2.5-.18-3.48-.55-.98-.37-1.75-.94-2.32-1.71v7.25h-4.84v-19.08Zm12.79,7.87v-2.04c0-1.09-.33-1.85-.99-2.28s-1.66-.64-2.98-.64-2.34.22-3,.66c-.65.44-.98,1.2-.98,2.27v2.04c0,1.11.33,1.88.98,2.31.65.43,1.64.65,2.97.65s2.35-.22,3.01-.65.99-1.2.99-2.31Z" fill="#fff"/><path d="m186.89,30.62c0-2.56.73-4.41,2.18-5.55,1.45-1.14,3.54-1.71,6.26-1.71s4.73.52,6.19,1.56c1.46,1.04,2.19,2.81,2.19,5.32v.86h-12.04v.48c0,1.15.31,1.95.93,2.42.62.47,1.53.7,2.73.7,1.09,0,1.92-.14,2.49-.43.56-.29.94-.73,1.11-1.34h4.76c-.36,1.68-1.24,2.92-2.65,3.71-1.41.79-3.31,1.18-5.71,1.18-2.74,0-4.83-.55-6.27-1.64-1.44-1.09-2.16-2.95-2.16-5.56Zm8.44-4.22c-1.11,0-1.99.18-2.63.54s-.99.97-1.02,1.83h7.33c-.04-.86-.35-1.47-.94-1.83s-1.5-.54-2.74-.54Z" fill="#fff"/><path d="m217.92,37.45v-8.36c0-.91-.29-1.54-.86-1.89-.57-.35-1.4-.52-2.47-.52s-1.85.18-2.48.55c-.64.37-.95.99-.95,1.87v8.36h-4.84v-13.7h4.7v2.36c.45-.93,1.19-1.62,2.23-2.07,1.04-.45,2.21-.67,3.52-.67,1.93,0,3.42.41,4.45,1.22,1.03.82,1.55,2.15,1.55,4.02v8.84h-4.84Z" fill="#fff"/><path d="m142.39,51.15h5.05v6.96h9.83v-6.96h5.05v18.54h-5.05v-7.47h-9.83v7.47h-5.05v-18.54Z" fill="#fff"/><path d="m164.88,62.86c0-2.56.73-4.41,2.18-5.55,1.45-1.14,3.54-1.71,6.26-1.71s4.73.52,6.19,1.56c1.46,1.04,2.19,2.81,2.19,5.32v.86h-12.04v.48c0,1.15.31,1.95.93,2.42.62.47,1.53.7,2.73.7,1.09,0,1.92-.14,2.49-.43.56-.29.94-.73,1.11-1.34h4.76c-.36,1.68-1.24,2.92-2.65,3.71-1.41.79-3.31,1.18-5.71,1.18-2.74,0-4.83-.55-6.27-1.64-1.44-1.09-2.16-2.95-2.16-5.56Zm8.44-4.22c-1.11,0-1.99.18-2.63.54s-.99.97-1.02,1.83h7.33c-.04-.86-.35-1.47-.94-1.83s-1.5-.54-2.74-.54Z" fill="#fff"/><path d="m183.47,65.9c0-1.36.49-2.41,1.48-3.16.99-.74,2.57-1.15,4.76-1.22l5.43-.19v-.46c0-.82-.26-1.39-.78-1.71-.52-.31-1.29-.47-2.31-.47s-1.75.12-2.24.36c-.49.24-.8.63-.93,1.17h-4.86c.2-1.5.95-2.65,2.26-3.44,1.31-.79,3.23-1.18,5.78-1.18s4.59.43,5.91,1.28c1.33.85,1.99,2.18,1.99,3.99v8.81h-4.65v-2.1c-.5.77-1.25,1.37-2.26,1.81-1,.44-2.28.66-3.84.66-1.95,0-3.39-.37-4.33-1.11s-1.4-1.76-1.4-3.05Zm4.86-.32c0,.5.2.86.59,1.09.39.22,1.04.34,1.93.34,1.25,0,2.28-.22,3.08-.67.8-.45,1.2-1.15,1.2-2.1v-.48l-4.27.16c-.9.04-1.54.16-1.93.36-.39.21-.59.56-.59,1.06v.24Z" fill="#fff"/><path d="m203.11,50.07h4.84v19.61h-4.84v-19.61Z" fill="#fff"/><path d="m211.93,64.88v-5.37h-1.83v-3.52h1.83v-4.08h4.84v4.08h4.65v3.52h-4.65v4.81c0,.64.17,1.11.5,1.41s.89.44,1.68.44h2.47v3.52h-4.62c-1.72,0-2.96-.38-3.72-1.14-.76-.76-1.14-1.98-1.14-3.67Z" fill="#fff"/><path d="m235.41,69.69v-8.36c0-.91-.29-1.54-.86-1.89-.57-.35-1.4-.52-2.47-.52s-1.85.18-2.48.55c-.64.37-.95.99-.95,1.87v8.36h-4.84v-19.61h4.84v8.01c.48-.84,1.23-1.46,2.24-1.87,1.01-.4,2.14-.6,3.37-.6,1.93,0,3.42.41,4.45,1.22,1.03.82,1.55,2.15,1.55,4.02v8.84h-4.84Z" fill="#fff"/><path d="m242.72,62.84c0-2.67.69-4.54,2.07-5.62,1.38-1.07,3.5-1.61,6.37-1.61,2.4,0,4.3.37,5.71,1.11,1.41.74,2.2,2,2.38,3.78h-4.86c-.13-.52-.42-.92-.87-1.2-.46-.28-1.25-.42-2.38-.42-1.2,0-2.09.2-2.66.59-.57.39-.86,1.13-.86,2.2v2.23c0,1.13.3,1.89.89,2.3.59.4,1.47.6,2.63.6s1.93-.15,2.39-.44c.47-.3.77-.7.91-1.22h4.89c-.23,1.63-1.01,2.86-2.34,3.68-1.33.82-3.28,1.24-5.86,1.24-1.4,0-2.62-.12-3.68-.35-1.06-.23-1.93-.63-2.63-1.18-.7-.55-1.22-1.3-1.57-2.23s-.52-2.09-.52-3.47Z" fill="#fff"/><path d="m260.83,65.9c0-1.36.49-2.41,1.48-3.16.99-.74,2.57-1.15,4.76-1.22l5.43-.19v-.46c0-.82-.26-1.39-.78-1.71-.52-.31-1.29-.47-2.31-.47s-1.75.12-2.24.36c-.49.24-.8.63-.93,1.17h-4.86c.2-1.5.95-2.65,2.26-3.44,1.31-.79,3.23-1.18,5.78-1.18s4.59.43,5.91,1.28c1.33.85,1.99,2.18,1.99,3.99v8.81h-4.65v-2.1c-.5.77-1.25,1.37-2.26,1.81-1,.44-2.28.66-3.84.66-1.95,0-3.39-.37-4.33-1.11s-1.4-1.76-1.4-3.05Zm4.86-.32c0,.5.2.86.59,1.09.39.22,1.04.34,1.93.34,1.25,0,2.28-.22,3.08-.67.8-.45,1.2-1.15,1.2-2.1v-.48l-4.27.16c-.9.04-1.54.16-1.93.36-.39.21-.59.56-.59,1.06v.24Z" fill="#fff"/><path d="m280.47,55.99h4.7v2.85c.34-.88.89-1.57,1.65-2.08s1.78-.77,3.05-.77h2.23v3.98h-3.01c-1.4,0-2.38.23-2.94.69-.56.46-.85,1.2-.85,2.22v6.83h-4.84v-13.7Z" fill="#fff"/><path d="m293.18,62.86c0-2.56.73-4.41,2.18-5.55,1.45-1.14,3.54-1.71,6.26-1.71s4.73.52,6.19,1.56c1.46,1.04,2.19,2.81,2.19,5.32v.86h-12.04v.48c0,1.15.31,1.95.93,2.42.62.47,1.53.7,2.73.7,1.09,0,1.92-.14,2.49-.43.56-.29.94-.73,1.12-1.34h4.76c-.36,1.68-1.24,2.92-2.65,3.71-1.41.79-3.31,1.18-5.71,1.18-2.74,0-4.83-.55-6.27-1.64-1.44-1.09-2.16-2.95-2.16-5.56Zm8.44-4.22c-1.11,0-1.99.18-2.63.54-.64.36-.99.97-1.02,1.83h7.34c-.04-.86-.35-1.47-.94-1.83s-1.5-.54-2.74-.54Z" fill="#fff"/><path d="m155.77,101.93l-8.73-13.51v13.51h-4.65v-18.54h6.93l8.71,13.46v-13.46h4.65v18.54h-6.91Z" fill="#fff"/><path d="m165.23,95.11c0-2.56.73-4.41,2.18-5.55,1.45-1.14,3.54-1.71,6.26-1.71s4.73.52,6.19,1.56c1.46,1.04,2.19,2.81,2.19,5.32v.86h-12.04v.48c0,1.15.31,1.95.93,2.42.62.47,1.53.7,2.73.7,1.09,0,1.92-.14,2.49-.43.56-.29.94-.73,1.11-1.34h4.76c-.36,1.68-1.24,2.92-2.65,3.71-1.41.79-3.31,1.18-5.71,1.18-2.74,0-4.83-.55-6.27-1.64-1.44-1.09-2.16-2.95-2.16-5.56Zm8.44-4.22c-1.11,0-1.99.18-2.63.54s-.99.97-1.02,1.83h7.33c-.04-.86-.35-1.47-.94-1.83s-1.5-.54-2.74-.54Z" fill="#fff"/><path d="m185.19,97.12v-5.37h-1.83v-3.52h1.83v-4.08h4.84v4.08h4.65v3.52h-4.65v4.81c0,.65.17,1.12.5,1.41.33.3.89.44,1.68.44h2.47v3.52h-4.62c-1.72,0-2.96-.38-3.72-1.14-.76-.76-1.14-1.98-1.14-3.67Z" fill="#fff"/><path d="m199.78,101.93l-4.19-13.7h4.54l2.85,9.65,2.85-9.65h5.27l2.88,9.48,2.79-9.48h3.98l-4.19,13.7h-5.48l-2.98-9.86-2.93,9.86h-5.37Z" fill="#fff"/><path d="m221.65,95.08c0-1.38.19-2.53.56-3.47.38-.93.94-1.67,1.68-2.23.74-.56,1.67-.95,2.78-1.18s2.39-.35,3.84-.35,2.74.12,3.86.35,2.05.63,2.79,1.18,1.3,1.3,1.68,2.23c.38.93.56,2.09.56,3.47s-.19,2.56-.56,3.49c-.38.93-.94,1.68-1.68,2.23-.74.56-1.68.95-2.79,1.17s-2.4.34-3.86.34-2.73-.11-3.84-.34-2.04-.61-2.78-1.17c-.74-.55-1.3-1.3-1.68-2.23-.38-.93-.56-2.1-.56-3.49Zm12.87.94v-1.85c0-1.18-.33-1.98-.99-2.4-.66-.42-1.67-.63-3.01-.63s-2.32.21-2.98.63c-.66.42-.99,1.22-.99,2.4v1.85c0,1.16.33,1.96.99,2.39s1.66.65,2.98.65,2.35-.22,3.01-.65c.66-.43.99-1.23.99-2.39Z" fill="#fff"/><path d="m242.02,88.23h4.7v2.85c.34-.88.89-1.57,1.65-2.08s1.78-.77,3.05-.77h2.23v3.98h-3.01c-1.4,0-2.38.23-2.94.69-.56.46-.85,1.2-.85,2.22v6.83h-4.84v-13.7Z" fill="#fff"/><path d="m266.93,88.23h5.37l-5.94,6.5,6.64,7.2h-5.94l-4.76-5.11h-1.67v5.11h-4.84v-19.61h4.84v10.99h1.64l4.65-5.08Z" fill="#fff"/></svg>