<svg xmlns="http://www.w3.org/2000/svg" xmlns:xlink="http://www.w3.org/1999/xlink" id="visual" version="1.1" viewBox="1791.67 0 128.33 1090"><path d="M1794 1090L1796.7 1053.7C1799.3 1017.3 1804.7 944.7 1820.5 872C1836.3 799.3 1862.7 726.7 1857 654C1851.3 581.3 1813.7 508.7 1799.2 436C1784.7 363.3 1793.3 290.7 1806.8 218C1820.3 145.3 1838.7 72.7 1847.8 36.3L1857 0L1920 0L1920 36.3C1920 72.7 1920 145.3 1920 218C1920 290.7 1920 363.3 1920 436C1920 508.7 1920 581.3 1920 654C1920 726.7 1920 799.3 1920 872C1920 944.7 1920 1017.3 1920 1053.7L1920 1090Z" fill="#ffffff" stroke-linecap="round" stroke-linejoin="miter"/></svg>