<svg id="visual" viewBox="0 0 900 900" width="900" height="900" xmlns="http://www.w3.org/2000/svg" xmlns:xlink="http://www.w3.org/1999/xlink" version="1.1"><rect x="0" y="0" width="900" height="900" fill="#004636"></rect><defs><linearGradient id="grad1_0" x1="0%" y1="0%" x2="100%" y2="100%"><stop offset="30%" stop-color="#0d9f6e" stop-opacity="1"></stop><stop offset="70%" stop-color="#0d9f6e" stop-opacity="1"></stop></linearGradient></defs><defs><linearGradient id="grad1_1" x1="0%" y1="0%" x2="100%" y2="100%"><stop offset="30%" stop-color="#0d9f6e" stop-opacity="1"></stop><stop offset="70%" stop-color="#038f65" stop-opacity="1"></stop></linearGradient></defs><defs><linearGradient id="grad1_2" x1="0%" y1="0%" x2="100%" y2="100%"><stop offset="30%" stop-color="#00805c" stop-opacity="1"></stop><stop offset="70%" stop-color="#038f65" stop-opacity="1"></stop></linearGradient></defs><defs><linearGradient id="grad1_3" x1="0%" y1="0%" x2="100%" y2="100%"><stop offset="30%" stop-color="#00805c" stop-opacity="1"></stop><stop offset="70%" stop-color="#007153" stop-opacity="1"></stop></linearGradient></defs><defs><linearGradient id="grad1_4" x1="0%" y1="0%" x2="100%" y2="100%"><stop offset="30%" stop-color="#006249" stop-opacity="1"></stop><stop offset="70%" stop-color="#007153" stop-opacity="1"></stop></linearGradient></defs><defs><linearGradient id="grad1_5" x1="0%" y1="0%" x2="100%" y2="100%"><stop offset="30%" stop-color="#006249" stop-opacity="1"></stop><stop offset="70%" stop-color="#005440" stop-opacity="1"></stop></linearGradient></defs><defs><linearGradient id="grad1_6" x1="0%" y1="0%" x2="100%" y2="100%"><stop offset="30%" stop-color="#004636" stop-opacity="1"></stop><stop offset="70%" stop-color="#005440" stop-opacity="1"></stop></linearGradient></defs><defs><linearGradient id="grad2_0" x1="0%" y1="0%" x2="100%" y2="100%"><stop offset="30%" stop-color="#0d9f6e" stop-opacity="1"></stop><stop offset="70%" stop-color="#0d9f6e" stop-opacity="1"></stop></linearGradient></defs><defs><linearGradient id="grad2_1" x1="0%" y1="0%" x2="100%" y2="100%"><stop offset="30%" stop-color="#038f65" stop-opacity="1"></stop><stop offset="70%" stop-color="#0d9f6e" stop-opacity="1"></stop></linearGradient></defs><defs><linearGradient id="grad2_2" x1="0%" y1="0%" x2="100%" y2="100%"><stop offset="30%" stop-color="#038f65" stop-opacity="1"></stop><stop offset="70%" stop-color="#00805c" stop-opacity="1"></stop></linearGradient></defs><defs><linearGradient id="grad2_3" x1="0%" y1="0%" x2="100%" y2="100%"><stop offset="30%" stop-color="#007153" stop-opacity="1"></stop><stop offset="70%" stop-color="#00805c" stop-opacity="1"></stop></linearGradient></defs><defs><linearGradient id="grad2_4" x1="0%" y1="0%" x2="100%" y2="100%"><stop offset="30%" stop-color="#007153" stop-opacity="1"></stop><stop offset="70%" stop-color="#006249" stop-opacity="1"></stop></linearGradient></defs><defs><linearGradient id="grad2_5" x1="0%" y1="0%" x2="100%" y2="100%"><stop offset="30%" stop-color="#005440" stop-opacity="1"></stop><stop offset="70%" stop-color="#006249" stop-opacity="1"></stop></linearGradient></defs><defs><linearGradient id="grad2_6" x1="0%" y1="0%" x2="100%" y2="100%"><stop offset="30%" stop-color="#005440" stop-opacity="1"></stop><stop offset="70%" stop-color="#004636" stop-opacity="1"></stop></linearGradient></defs><g transform="translate(900, 0)"><path d="M0 572.8C-80.3 570.9 -160.6 569.1 -219.2 529.2C-277.8 489.2 -314.6 411.2 -350 350C-385.5 288.9 -419.5 244.6 -456.4 189C-493.3 133.5 -533 66.8 -572.8 0L0 0Z" fill="#004d3b"></path><path d="M0 490.9C-68.8 489.4 -137.7 487.8 -187.9 453.6C-238.1 419.3 -269.6 352.4 -300 300C-330.4 247.6 -359.6 209.6 -391.2 162C-422.8 114.4 -456.9 57.2 -490.9 0L0 0Z" fill="#005b45"></path><path d="M0 409.1C-57.4 407.8 -114.7 406.5 -156.6 378C-198.4 349.4 -224.7 293.7 -250 250C-275.3 206.3 -299.6 174.7 -326 135C-352.3 95.4 -380.7 47.7 -409.1 0L0 0Z" fill="#006a4e"></path><path d="M0 327.3C-45.9 326.2 -91.8 325.2 -125.2 302.4C-158.7 279.6 -179.8 235 -200 200C-220.3 165.1 -239.7 139.8 -260.8 108C-281.9 76.3 -304.6 38.1 -327.3 0L0 0Z" fill="#007957"></path><path d="M0 245.5C-34.4 244.7 -68.8 243.9 -93.9 226.8C-119 209.7 -134.8 176.2 -150 150C-165.2 123.8 -179.8 104.8 -195.6 81C-211.4 57.2 -228.4 28.6 -245.5 0L0 0Z" fill="#008861"></path><path d="M0 163.6C-22.9 163.1 -45.9 162.6 -62.6 151.2C-79.4 139.8 -89.9 117.5 -100 100C-110.1 82.5 -119.9 69.9 -130.4 54C-140.9 38.1 -152.3 19.1 -163.6 0L0 0Z" fill="#07976a"></path><path d="M0 81.8C-11.5 81.6 -22.9 81.3 -31.3 75.6C-39.7 69.9 -44.9 58.7 -50 50C-55.1 41.3 -59.9 34.9 -65.2 27C-70.5 19.1 -76.1 9.5 -81.8 0L0 0Z" fill="#0d9f6e"></path></g><g transform="translate(0, 900)"><path d="M0 -572.8C58.3 -528.6 116.5 -484.4 192.5 -464.7C268.5 -445 362.2 -449.8 405 -405C447.8 -360.2 439.7 -265.9 459.2 -190.2C478.6 -114.4 525.7 -57.2 572.8 0L0 0Z" fill="#004d3b"></path><path d="M0 -490.9C49.9 -453.1 99.9 -415.2 165 -398.3C230.1 -381.4 310.5 -385.5 347.1 -347.1C383.8 -308.8 376.9 -228 393.6 -163C410.3 -98.1 450.6 -49 490.9 0L0 0Z" fill="#005b45"></path><path d="M0 -409.1C41.6 -377.6 83.2 -346 137.5 -331.9C191.8 -317.9 258.7 -321.3 289.3 -289.3C319.9 -257.3 314.1 -190 328 -135.9C341.9 -81.7 375.5 -40.9 409.1 0L0 0Z" fill="#006a4e"></path><path d="M0 -327.3C33.3 -302 66.6 -276.8 110 -265.5C153.4 -254.3 207 -257 231.4 -231.4C255.9 -205.8 251.3 -152 262.4 -108.7C273.5 -65.4 300.4 -32.7 327.3 0L0 0Z" fill="#007957"></path><path d="M0 -245.5C25 -226.5 49.9 -207.6 82.5 -199.2C115.1 -190.7 155.2 -192.8 173.6 -173.6C191.9 -154.4 188.4 -114 196.8 -81.5C205.1 -49 225.3 -24.5 245.5 0L0 0Z" fill="#008861"></path><path d="M0 -163.6C16.6 -151 33.3 -138.4 55 -132.8C76.7 -127.1 103.5 -128.5 115.7 -115.7C127.9 -102.9 125.6 -76 131.2 -54.3C136.8 -32.7 150.2 -16.3 163.6 0L0 0Z" fill="#07976a"></path><path d="M0 -81.8C8.3 -75.5 16.6 -69.2 27.5 -66.4C38.4 -63.6 51.7 -64.3 57.9 -57.9C64 -51.5 62.8 -38 65.6 -27.2C68.4 -16.3 75.1 -8.2 81.8 0L0 0Z" fill="#0d9f6e"></path></g></svg>