<svg id="visual" viewBox="0 0 100 3080" width="100" height="3080" xmlns="http://www.w3.org/2000/svg" xmlns:xlink="http://www.w3.org/1999/xlink" version="1.1"><path d="M59 3080L55.7 3062.3C52.3 3044.7 45.7 3009.3 42.3 2974C39 2938.7 39 2903.3 37 2867.8C35 2832.3 31 2796.7 32.7 2761.2C34.3 2725.7 41.7 2690.3 41.8 2655C42 2619.7 35 2584.3 31.5 2549C28 2513.7 28 2478.3 31 2443C34 2407.7 40 2372.3 42.3 2336.8C44.7 2301.3 43.3 2265.7 41.7 2230.2C40 2194.7 38 2159.3 36.8 2124C35.7 2088.7 35.3 2053.3 37.2 2018C39 1982.7 43 1947.3 44.8 1912C46.7 1876.7 46.3 1841.3 50.7 1805.8C55 1770.3 64 1734.7 62.8 1699.2C61.7 1663.7 50.3 1628.3 45.8 1593C41.3 1557.7 43.7 1522.3 44 1487C44.3 1451.7 42.7 1416.3 45.3 1380.8C48 1345.3 55 1309.7 59.7 1274.2C64.3 1238.7 66.7 1203.3 68.5 1168C70.3 1132.7 71.7 1097.3 65.8 1062C60 1026.7 47 991.3 40.2 956C33.3 920.7 32.7 885.3 33 849.8C33.3 814.3 34.7 778.7 34.5 743.2C34.3 707.7 32.7 672.3 35.3 637C38 601.7 45 566.3 50.7 531C56.3 495.7 60.7 460.3 59.8 425C59 389.7 53 354.3 54.7 318.8C56.3 283.3 65.7 247.7 65.3 212.2C65 176.7 55 141.3 47.3 106C39.7 70.7 34.3 35.3 31.7 17.7L29 0L100 0L100 17.7C100 35.3 100 70.7 100 106C100 141.3 100 176.7 100 212.2C100 247.7 100 283.3 100 318.8C100 354.3 100 389.7 100 425C100 460.3 100 495.7 100 531C100 566.3 100 601.7 100 637C100 672.3 100 707.7 100 743.2C100 778.7 100 814.3 100 849.8C100 885.3 100 920.7 100 956C100 991.3 100 1026.7 100 1062C100 1097.3 100 1132.7 100 1168C100 1203.3 100 1238.7 100 1274.2C100 1309.7 100 1345.3 100 1380.8C100 1416.3 100 1451.7 100 1487C100 1522.3 100 1557.7 100 1593C100 1628.3 100 1663.7 100 1699.2C100 1734.7 100 1770.3 100 1805.8C100 1841.3 100 1876.7 100 1912C100 1947.3 100 1982.7 100 2018C100 2053.3 100 2088.7 100 2124C100 2159.3 100 2194.7 100 2230.2C100 2265.7 100 2301.3 100 2336.8C100 2372.3 100 2407.7 100 2443C100 2478.3 100 2513.7 100 2549C100 2584.3 100 2619.7 100 2655C100 2690.3 100 2725.7 100 2761.2C100 2796.7 100 2832.3 100 2867.8C100 2903.3 100 2938.7 100 2974C100 3009.3 100 3044.7 100 3062.3L100 3080Z" fill="#ffffff" stroke-linecap="round" stroke-linejoin="miter"></path></svg>