<svg id="visual" viewBox="0 0 1920 1090" width="1920" height="1090" xmlns="http://www.w3.org/2000/svg" xmlns:xlink="http://www.w3.org/1999/xlink" version="1.1"><path d="M849 1090L861.5 1053.7C874 1017.3 899 944.7 932 872C965 799.3 1006 726.7 996.3 654C986.7 581.3 926.3 508.7 914.5 436C902.7 363.3 939.3 290.7 969.2 218C999 145.3 1022 72.7 1033.5 36.3L1045 0L1920 0L1920 36.3C1920 72.7 1920 145.3 1920 218C1920 290.7 1920 363.3 1920 436C1920 508.7 1920 581.3 1920 654C1920 726.7 1920 799.3 1920 872C1920 944.7 1920 1017.3 1920 1053.7L1920 1090Z" fill="#ffffff" stroke-linecap="round" stroke-linejoin="miter"></path></svg>