<svg id="visual" viewBox="0 0 675 900" width="675" height="900" xmlns="http://www.w3.org/2000/svg" xmlns:xlink="http://www.w3.org/1999/xlink" version="1.1"><rect x="0" y="0" width="675" height="900" fill="#03543f"></rect><defs><linearGradient id="grad1_0" x1="0%" y1="0%" x2="100%" y2="100%"><stop offset="30%" stop-color="#057a55" stop-opacity="1"></stop><stop offset="70%" stop-color="#057a55" stop-opacity="1"></stop></linearGradient></defs><defs><linearGradient id="grad1_1" x1="0%" y1="0%" x2="100%" y2="100%"><stop offset="30%" stop-color="#057a55" stop-opacity="1"></stop><stop offset="70%" stop-color="#026d4e" stop-opacity="1"></stop></linearGradient></defs><defs><linearGradient id="grad1_2" x1="0%" y1="0%" x2="100%" y2="100%"><stop offset="30%" stop-color="#026047" stop-opacity="1"></stop><stop offset="70%" stop-color="#026d4e" stop-opacity="1"></stop></linearGradient></defs><defs><linearGradient id="grad1_3" x1="0%" y1="0%" x2="100%" y2="100%"><stop offset="30%" stop-color="#026047" stop-opacity="1"></stop><stop offset="70%" stop-color="#03543f" stop-opacity="1"></stop></linearGradient></defs><defs><linearGradient id="grad2_0" x1="0%" y1="0%" x2="100%" y2="100%"><stop offset="30%" stop-color="#057a55" stop-opacity="1"></stop><stop offset="70%" stop-color="#057a55" stop-opacity="1"></stop></linearGradient></defs><defs><linearGradient id="grad2_1" x1="0%" y1="0%" x2="100%" y2="100%"><stop offset="30%" stop-color="#026d4e" stop-opacity="1"></stop><stop offset="70%" stop-color="#057a55" stop-opacity="1"></stop></linearGradient></defs><defs><linearGradient id="grad2_2" x1="0%" y1="0%" x2="100%" y2="100%"><stop offset="30%" stop-color="#026d4e" stop-opacity="1"></stop><stop offset="70%" stop-color="#026047" stop-opacity="1"></stop></linearGradient></defs><defs><linearGradient id="grad2_3" x1="0%" y1="0%" x2="100%" y2="100%"><stop offset="30%" stop-color="#03543f" stop-opacity="1"></stop><stop offset="70%" stop-color="#026047" stop-opacity="1"></stop></linearGradient></defs><g transform="translate(675, 0)"><path d="M0 506.3C-70.2 501.9 -140.5 497.5 -192.9 465.6C-245.3 433.7 -279.8 374.3 -327.4 327.4C-375 280.5 -435.7 246.2 -467.7 193.7C-499.7 141.3 -503 70.6 -506.2 0L0 0Z" fill="#025a43"></path><path d="M0 379.7C-52.7 376.4 -105.4 373.2 -144.7 349.2C-183.9 325.3 -209.8 280.7 -245.5 245.5C-281.3 210.4 -326.8 184.7 -350.8 145.3C-374.8 105.9 -377.2 53 -379.7 0L0 0Z" fill="#02674a"></path><path d="M0 253.1C-35.1 250.9 -70.2 248.8 -96.4 232.8C-122.6 216.9 -139.9 187.1 -163.7 163.7C-187.5 140.3 -217.9 123.1 -233.9 96.9C-249.9 70.6 -251.5 35.3 -253.1 0L0 0Z" fill="#037452"></path><path d="M0 126.6C-17.6 125.5 -35.1 124.4 -48.2 116.4C-61.3 108.4 -69.9 93.6 -81.8 81.8C-93.8 70.1 -108.9 61.6 -116.9 48.4C-124.9 35.3 -125.7 17.7 -126.6 0L0 0Z" fill="#057a55"></path></g><g transform="translate(0, 900)"><path d="M0 -506.2C53.4 -459.3 106.8 -412.3 158.8 -383.4C210.8 -354.5 261.4 -343.8 317.5 -317.5C373.6 -291.2 435.3 -249.2 467.7 -193.7C500.1 -138.2 503.2 -69.1 506.3 0L0 0Z" fill="#025a43"></path><path d="M0 -379.7C40.1 -344.4 80.1 -309.2 119.1 -287.6C158.1 -265.9 196 -257.9 238.1 -238.1C280.2 -218.4 326.5 -186.9 350.8 -145.3C375.1 -103.7 377.4 -51.8 379.7 0L0 0Z" fill="#02674a"></path><path d="M0 -253.1C26.7 -229.6 53.4 -206.1 79.4 -191.7C105.4 -177.3 130.7 -171.9 158.7 -158.7C186.8 -145.6 217.7 -124.6 233.9 -96.9C250.1 -69.1 251.6 -34.6 253.1 0L0 0Z" fill="#037452"></path><path d="M0 -126.6C13.4 -114.8 26.7 -103.1 39.7 -95.9C52.7 -88.6 65.3 -86 79.4 -79.4C93.4 -72.8 108.8 -62.3 116.9 -48.4C125 -34.6 125.8 -17.3 126.6 0L0 0Z" fill="#057a55"></path></g></svg>