<svg id="visual" viewBox="0 0 100 3080" width="100" height="3080" xmlns="http://www.w3.org/2000/svg" xmlns:xlink="http://www.w3.org/1999/xlink" version="1.1"><path d="M68 3080L68.8 3062.3C69.7 3044.7 71.3 3009.3 72.3 2974C73.3 2938.7 73.7 2903.3 65 2867.8C56.3 2832.3 38.7 2796.7 36.3 2761.2C34 2725.7 47 2690.3 49.7 2655C52.3 2619.7 44.7 2584.3 49.3 2549C54 2513.7 71 2478.3 72 2443C73 2407.7 58 2372.3 54.5 2336.8C51 2301.3 59 2265.7 67.7 2230.2C76.3 2194.7 85.7 2159.3 87 2124C88.3 2088.7 81.7 2053.3 79.7 2018C77.7 1982.7 80.3 1947.3 72.7 1912C65 1876.7 47 1841.3 46.3 1805.8C45.7 1770.3 62.3 1734.7 60.5 1699.2C58.7 1663.7 38.3 1628.3 26.7 1593C15 1557.7 12 1522.3 22.2 1487C32.3 1451.7 55.7 1416.3 55.7 1380.8C55.7 1345.3 32.3 1309.7 29.8 1274.2C27.3 1238.7 45.7 1203.3 56.7 1168C67.7 1132.7 71.3 1097.3 64 1062C56.7 1026.7 38.3 991.3 36.2 956C34 920.7 48 885.3 59.8 849.8C71.7 814.3 81.3 778.7 83.7 743.2C86 707.7 81 672.3 68.2 637C55.3 601.7 34.7 566.3 37.8 531C41 495.7 68 460.3 68 425C68 389.7 41 354.3 29.5 318.8C18 283.3 22 247.7 28 212.2C34 176.7 42 141.3 50.3 106C58.7 70.7 67.3 35.3 71.7 17.7L76 0L100 0L100 17.7C100 35.3 100 70.7 100 106C100 141.3 100 176.7 100 212.2C100 247.7 100 283.3 100 318.8C100 354.3 100 389.7 100 425C100 460.3 100 495.7 100 531C100 566.3 100 601.7 100 637C100 672.3 100 707.7 100 743.2C100 778.7 100 814.3 100 849.8C100 885.3 100 920.7 100 956C100 991.3 100 1026.7 100 1062C100 1097.3 100 1132.7 100 1168C100 1203.3 100 1238.7 100 1274.2C100 1309.7 100 1345.3 100 1380.8C100 1416.3 100 1451.7 100 1487C100 1522.3 100 1557.7 100 1593C100 1628.3 100 1663.7 100 1699.2C100 1734.7 100 1770.3 100 1805.8C100 1841.3 100 1876.7 100 1912C100 1947.3 100 1982.7 100 2018C100 2053.3 100 2088.7 100 2124C100 2159.3 100 2194.7 100 2230.2C100 2265.7 100 2301.3 100 2336.8C100 2372.3 100 2407.7 100 2443C100 2478.3 100 2513.7 100 2549C100 2584.3 100 2619.7 100 2655C100 2690.3 100 2725.7 100 2761.2C100 2796.7 100 2832.3 100 2867.8C100 2903.3 100 2938.7 100 2974C100 3009.3 100 3044.7 100 3062.3L100 3080Z" fill="#ffffff" stroke-linecap="round" stroke-linejoin="miter"></path></svg>