<svg id="visual" viewBox="0 0 200 3080" width="200" height="3080" xmlns="http://www.w3.org/2000/svg" xmlns:xlink="http://www.w3.org/1999/xlink" version="1.1">
<path d="M57 3080L65.7 3062.3C74.3 3044.7 91.7 3009.3 114.3 2974C137 2938.7 165 2903.3 166.3 2867.8C167.7 2832.3 142.3 2796.7 132 2761.2C121.7 2725.7 126.3 2690.3 134.2 2655C142 2619.7 153 2584.3 136.2 2549C119.3 2513.7 74.7 2478.3 54.3 2443C34 2407.7 38 2372.3 63.3 2336.8C88.7 2301.3 135.3 2265.7 150.7 2230.2C166 2194.7 150 2159.3 121.5 2124C93 2088.7 52 2053.3 36.5 2018C21 1982.7 31 1947.3 58.3 1912C85.7 1876.7 130.3 1841.3 124.7 1805.8C119 1770.3 63 1734.7 56.8 1699.2C50.7 1663.7 94.3 1628.3 96 1593C97.7 1557.7 57.3 1522.3 40.7 1487C24 1451.7 31 1416.3 36.3 1380.8C41.7 1345.3 45.3 1309.7 71.3 1274.2C97.3 1238.7 145.7 1203.3 139.8 1168C134 1132.7 74 1097.3 63.3 1062C52.7 1026.7 91.3 991.3 110.3 956C129.3 920.7 128.7 885.3 125.5 849.8C122.3 814.3 116.7 778.7 102 743.2C87.3 707.7 63.7 672.3 49.5 637C35.3 601.7 30.7 566.3 28.3 531C26 495.7 26 460.3 43.2 425C60.3 389.7 94.7 354.3 102.3 318.8C110 283.3 91 247.7 88.5 212.2C86 176.7 100 141.3 90.2 106C80.3 70.7 46.7 35.3 29.8 17.7L13 0L200 0L200 17.7C200 35.3 200 70.7 200 106C200 141.3 200 176.7 200 212.2C200 247.7 200 283.3 200 318.8C200 354.3 200 389.7 200 425C200 460.3 200 495.7 200 531C200 566.3 200 601.7 200 637C200 672.3 200 707.7 200 743.2C200 778.7 200 814.3 200 849.8C200 885.3 200 920.7 200 956C200 991.3 200 1026.7 200 1062C200 1097.3 200 1132.7 200 1168C200 1203.3 200 1238.7 200 1274.2C200 1309.7 200 1345.3 200 1380.8C200 1416.3 200 1451.7 200 1487C200 1522.3 200 1557.7 200 1593C200 1628.3 200 1663.7 200 1699.2C200 1734.7 200 1770.3 200 1805.8C200 1841.3 200 1876.7 200 1912C200 1947.3 200 1982.7 200 2018C200 2053.3 200 2088.7 200 2124C200 2159.3 200 2194.7 200 2230.2C200 2265.7 200 2301.3 200 2336.8C200 2372.3 200 2407.7 200 2443C200 2478.3 200 2513.7 200 2549C200 2584.3 200 2619.7 200 2655C200 2690.3 200 2725.7 200 2761.2C200 2796.7 200 2832.3 200 2867.8C200 2903.3 200 2938.7 200 2974C200 3009.3 200 3044.7 200 3062.3L200 3080Z" fill="#ffffff" stroke-linecap="round" stroke-linejoin="miter"></path></svg>