<svg id="visual" viewBox="0 0 200 3080" width="200" height="3080" xmlns="http://www.w3.org/2000/svg" xmlns:xlink="http://www.w3.org/1999/xlink" version="1.1"><path d="M159 3080L144.3 3062.3C129.7 3044.7 100.3 3009.3 94.3 2974C88.3 2938.7 105.7 2903.3 110.5 2867.8C115.3 2832.3 107.7 2796.7 100.7 2761.2C93.7 2725.7 87.3 2690.3 76.2 2655C65 2619.7 49 2584.3 51.8 2549C54.7 2513.7 76.3 2478.3 94.3 2443C112.3 2407.7 126.7 2372.3 136.3 2336.8C146 2301.3 151 2265.7 153.3 2230.2C155.7 2194.7 155.3 2159.3 130.7 2124C106 2088.7 57 2053.3 33.7 2018C10.3 1982.7 12.7 1947.3 32.5 1912C52.3 1876.7 89.7 1841.3 103.3 1805.8C117 1770.3 107 1734.7 97.8 1699.2C88.7 1663.7 80.3 1628.3 66 1593C51.7 1557.7 31.3 1522.3 49.8 1487C68.3 1451.7 125.7 1416.3 142.3 1380.8C159 1345.3 135 1309.7 130.5 1274.2C126 1238.7 141 1203.3 134.8 1168C128.7 1132.7 101.3 1097.3 104.2 1062C107 1026.7 140 991.3 157.7 956C175.3 920.7 177.7 885.3 174.7 849.8C171.7 814.3 163.3 778.7 148.5 743.2C133.7 707.7 112.3 672.3 113.5 637C114.7 601.7 138.3 566.3 129.7 531C121 495.7 80 460.3 72 425C64 389.7 89 354.3 86 318.8C83 283.3 52 247.7 65.5 212.2C79 176.7 137 141.3 161.8 106C186.7 70.7 178.3 35.3 174.2 17.7L170 0L200 0L200 17.7C200 35.3 200 70.7 200 106C200 141.3 200 176.7 200 212.2C200 247.7 200 283.3 200 318.8C200 354.3 200 389.7 200 425C200 460.3 200 495.7 200 531C200 566.3 200 601.7 200 637C200 672.3 200 707.7 200 743.2C200 778.7 200 814.3 200 849.8C200 885.3 200 920.7 200 956C200 991.3 200 1026.7 200 1062C200 1097.3 200 1132.7 200 1168C200 1203.3 200 1238.7 200 1274.2C200 1309.7 200 1345.3 200 1380.8C200 1416.3 200 1451.7 200 1487C200 1522.3 200 1557.7 200 1593C200 1628.3 200 1663.7 200 1699.2C200 1734.7 200 1770.3 200 1805.8C200 1841.3 200 1876.7 200 1912C200 1947.3 200 1982.7 200 2018C200 2053.3 200 2088.7 200 2124C200 2159.3 200 2194.7 200 2230.2C200 2265.7 200 2301.3 200 2336.8C200 2372.3 200 2407.7 200 2443C200 2478.3 200 2513.7 200 2549C200 2584.3 200 2619.7 200 2655C200 2690.3 200 2725.7 200 2761.2C200 2796.7 200 2832.3 200 2867.8C200 2903.3 200 2938.7 200 2974C200 3009.3 200 3044.7 200 3062.3L200 3080Z" fill="#ffffff" stroke-linecap="round" stroke-linejoin="miter"></path></svg>