<svg xmlns="http://www.w3.org/2000/svg" width="40" height="40" viewBox="0 0 40 40">
  <path fill-rule="evenodd" d="M12.1530043,9.3667 C12.4910043,10.2277 12.3860043,11.2007 11.8740043,11.9677 C11.3960043,12.6817 10.6360043,13.1257 9.78800427,13.1867 L9.46800427,13.1997 L9.46800427,11.8877 L9.59400427,11.8887 L9.60700427,11.8887 C10.1010043,11.8887 10.5540043,11.6377 10.8200043,11.2137 C11.0620043,10.8497 11.1280043,10.4037 11.0040043,9.9877 L10.9150043,9.7337 L12.1070043,9.2487 L12.1530043,9.3667 Z M26.8830043,36.6737 L23.3310043,33.0697 L23.2570043,33.0057 C23.1470043,32.9267 23.0150043,32.8847 22.8820043,32.8847 C22.8370043,32.8847 22.7920043,32.8897 22.7470043,32.8997 L22.0600043,33.0497 L21.8400043,33.0917 C20.6850043,33.2757 19.4980043,32.8787 18.6730043,32.0337 L15.2680043,28.5347 L15.2930043,28.5257 C15.5500043,28.4027 15.7840043,28.2357 15.9890043,28.0277 L16.1290043,27.8737 C16.5480043,27.3757 16.7560043,26.7327 16.7120043,26.0817 C16.8820043,26.1187 17.0540043,26.1377 17.2280043,26.1377 L17.2320043,26.1377 C17.8810043,26.1377 18.5150043,25.8697 18.9750043,25.4017 L19.1170043,25.2477 C19.4980043,24.7957 19.7070043,24.2197 19.7050043,23.6247 C19.7050043,23.5857 19.7040043,23.5467 19.7030043,23.5077 C19.7410043,23.5097 19.7730043,23.5177 19.8190043,23.5107 C20.4770043,23.5107 21.0950043,23.2497 21.5640043,22.7747 L21.7030043,22.6207 C22.0830043,22.1687 22.2920043,21.5927 22.2920043,20.9987 C22.2920043,20.3407 22.0290043,19.6967 21.5700043,19.2317 L14.0350043,11.5827 L14.0820043,11.3917 C14.2920043,10.4187 14.1920043,9.4227 13.7920043,8.5087 L13.7280043,8.3907 L13.7360043,8.3907 C14.0470043,8.3907 14.3450043,8.5157 14.5650043,8.7407 L22.4420043,16.7337 L25.2800043,19.6537 L22.7690043,22.2027 L22.6480043,22.3357 C21.8550043,23.2767 21.9090043,24.6997 22.7730043,25.5757 C23.2170043,26.0277 23.8090043,26.2767 24.4390043,26.2767 C25.0680043,26.2767 25.6600043,26.0277 26.1040043,25.5757 L28.5630043,23.0807 L28.6060043,23.1407 C29.1390043,23.9267 29.3570043,24.8797 29.2170043,25.8247 L29.0800043,26.7457 L29.0750043,26.8577 C29.0810043,27.0227 29.1480043,27.1767 29.2630043,27.2927 L32.6940043,30.7757 L26.8830043,36.6737 Z M14.9740043,27.1987 C14.7670043,27.3667 14.5070043,27.4577 14.2420043,27.4577 C13.9270043,27.4577 13.6320043,27.3337 13.4100043,27.1087 L11.6810043,25.3527 L11.5910043,25.2507 C11.2140043,24.7747 11.2510043,24.0887 11.6720043,23.6587 L11.7830043,23.5567 C11.9990043,23.3807 12.2590043,23.2937 12.5180043,23.2937 C12.8200043,23.2937 13.1210043,23.4117 13.3500043,23.6437 L15.0800043,25.3997 L15.1700043,25.5007 C15.5480043,25.9777 15.5100043,26.6637 15.0890043,27.0927 L14.9740043,27.1987 Z M13.0370043,19.3887 L13.1490043,19.2857 C13.3650043,19.1097 13.6250043,19.0227 13.8840043,19.0227 C14.1860043,19.0227 14.4860043,19.1397 14.7160043,19.3727 L18.0660043,22.7737 L18.1590043,22.8787 C18.3250043,23.0897 18.4160043,23.3557 18.4160043,23.6247 C18.4160043,23.9407 18.2900043,24.2487 18.0750043,24.4667 L17.9600043,24.5727 C17.5090043,24.9357 16.8020043,24.8947 16.3970043,24.4827 L13.0470043,21.0817 L12.9560043,20.9797 C12.5780043,20.5037 12.6150043,19.8177 13.0370043,19.3887 L13.0370043,19.3887 Z M14.3340043,15.4537 L14.4490043,15.3477 C14.6560043,15.1797 14.9170043,15.0877 15.1810043,15.0877 C15.4910043,15.0877 15.7940043,15.2157 16.0120043,15.4377 L20.6530043,20.1477 L20.7470043,20.2537 C20.9120043,20.4647 21.0030043,20.7297 21.0030043,20.9997 C21.0030043,21.3207 20.8800043,21.6207 20.6610043,21.8417 L20.5500043,21.9447 C20.0820043,22.3247 19.4090043,22.2867 18.9840043,21.8577 L14.3430043,17.1467 L14.2500043,17.0407 C14.0850043,16.8307 13.9930043,16.5657 13.9930043,16.2957 C13.9930043,15.9807 14.1190043,15.6727 14.3340043,15.4537 L14.3340043,15.4537 Z M26.4650043,20.2997 L26.5590043,20.2137 C26.7470043,20.0617 26.9830043,19.9787 27.2220043,19.9787 C27.5070043,19.9787 27.7740043,20.0907 27.9750043,20.2947 C28.3910043,20.7177 28.3910043,21.4067 27.9750043,21.8287 L25.1960043,24.6497 L25.1050043,24.7337 C24.6800043,25.0757 24.0710043,25.0437 23.6870043,24.6527 C23.2710043,24.2307 23.2700043,23.5437 23.6850043,23.1207 L26.4650043,20.2997 Z M12.3620043,12.2307 C11.4180043,13.7047 9.55500427,14.1897 8.02900427,13.3557 C6.52800427,12.5367 5.88300427,10.6507 6.55600427,9.0747 L9.59300427,3.7117 L12.6230043,9.0587 L12.7010043,9.2577 C13.0530043,10.2417 12.9270043,11.3527 12.3620043,12.2307 L12.3620043,12.2307 Z M34.0600043,30.3147 L30.4050043,26.6047 L30.4930043,26.0157 L30.5240043,25.7607 C30.6530043,24.4137 30.2360043,23.0547 29.3800043,22.0177 C29.7630043,21.1287 29.5730043,20.0797 28.8980043,19.3857 C28.2240043,18.6917 27.1950043,18.4837 26.3150043,18.8577 L15.4740043,7.8157 L15.3410043,7.6907 C14.7110043,7.1407 13.8420043,6.9517 13.0460043,7.1857 L10.3620043,2.4477 L10.3010043,2.3537 C10.1330043,2.1327 9.86800427,1.9997 9.59300427,1.9997 C9.31800427,1.9997 9.05300427,2.1327 8.88100427,2.3607 L5.40400427,8.4887 L5.30800427,8.7207 C4.47700427,10.8987 5.37800427,13.3817 7.40300427,14.4957 C9.49300427,15.6477 12.1470043,14.9647 13.4460043,12.9367 L13.4850043,12.8717 L14.4830043,13.8847 C14.0880043,14.0027 13.7260043,14.2207 13.4350043,14.5197 L13.2990043,14.6657 C12.5360043,15.5657 12.5100043,16.8837 13.2100043,17.8127 C12.8050043,17.9287 12.4390043,18.1477 12.1380043,18.4547 L12.0040043,18.5997 C11.1670043,19.5857 11.2220043,21.0777 12.1290043,21.9987 L12.1490043,22.0187 C11.6310043,22.0977 11.1450043,22.3467 10.7720043,22.7257 L10.6380043,22.8707 C9.80300427,23.8567 9.85800427,25.3487 10.7630043,26.2697 L12.5010043,28.0337 L12.6360043,28.1597 C12.9130043,28.4017 13.2440043,28.5797 13.5970043,28.6777 L17.7580043,32.9517 L17.9390043,33.1277 C19.1220043,34.2247 20.7640043,34.6717 22.3290043,34.3257 L22.6750043,34.2497 L26.4350043,38.0667 L26.5160043,38.1337 C26.6270043,38.2117 26.7550043,38.2497 26.8830043,38.2497 C27.0490043,38.2497 27.2150043,38.1847 27.3400043,38.0587 L34.0680043,31.2277 L34.1340043,31.1457 C34.3120043,30.8877 34.2800043,30.5377 34.0600043,30.3147 L34.0600043,30.3147 Z"/>
</svg>
