<svg xmlns="http://www.w3.org/2000/svg" width="40" height="40" viewBox="0 0 40 40">
  <path fill-rule="evenodd" d="M13.024,2 C15.91,2 18.258,4.348 18.258,7.234 C18.258,7.555 18.228,7.876 18.169,8.19 L18.101,8.503 L17.76,9.871 C18.067,10.265 18.258,10.754 18.258,11.291 C18.258,12.518 17.301,13.526 16.094,13.608 L15.935,13.613 L15.593,13.613 C15.254,14.45 14.677,15.163 13.947,15.674 L13.744,15.808 L14.076,17.137 L16.356,17.344 C18.691,17.556 20.47,19.433 20.576,21.751 L20.58,21.97 L20.58,26.387 C20.58,27.931 19.369,29.197 17.848,29.285 L17.677,29.29 L14.774,29.29 L14.774,35.677 C14.774,36.318 15.295,36.839 15.935,36.839 C16.533,36.839 17.027,36.385 17.09,35.804 L17.097,35.677 L17.097,32.774 C17.097,31.493 18.138,30.452 19.419,30.452 C20.647,30.452 21.655,31.408 21.736,32.615 L21.742,32.774 L21.742,33.935 C21.742,35.536 23.044,36.839 24.645,36.839 C25.986,36.839 27.117,35.924 27.449,34.687 L27.49,34.516 L24.645,34.516 C23.733,34.516 22.982,33.811 22.909,32.917 L22.903,32.774 L22.903,15.935 L22.322,15.935 C20.779,15.935 19.513,14.724 19.424,13.203 L19.419,13.032 L19.419,6.065 C19.419,5.152 20.125,4.401 21.018,4.328 L21.161,4.323 L22.903,4.323 L22.903,3.161 C22.903,2.564 23.357,2.07 23.938,2.007 L24.064,2 L29.871,2 C30.469,2 30.962,2.454 31.025,3.035 L31.032,3.161 L31.032,12.452 L36.258,12.452 C37.17,12.452 37.921,13.157 37.994,14.051 L38,14.194 L38,32.774 C38,33.687 37.295,34.438 36.401,34.51 L36.258,34.516 L28.663,34.516 C28.389,36.417 26.799,37.898 24.848,37.995 L24.645,38 L3.742,38 C2.829,38 2.078,37.295 2.006,36.401 L2,36.258 L2,29.871 C2,29.25 2.328,28.708 2.819,28.4 C2.36,27.925 2.059,27.296 2.008,26.598 L2,26.387 L2,21.97 C2,19.625 3.708,17.683 6.007,17.368 L6.224,17.344 L8.504,17.136 L8.836,15.808 C8.079,15.334 7.468,14.651 7.085,13.838 L6.987,13.613 L6.645,13.613 C5.364,13.613 4.322,12.571 4.322,11.29 C4.322,10.82 4.469,10.387 4.711,10.022 L4.821,9.87 L4.479,8.503 C4.375,8.089 4.322,7.662 4.322,7.234 C4.322,4.42 6.555,2.118 9.34,2.004 L9.556,2 L13.024,2 Z M19.419,31.613 C18.821,31.613 18.328,32.067 18.265,32.648 L18.258,32.774 L18.258,35.677 C18.258,36.042 18.167,36.383 18.016,36.689 L17.935,36.839 L21.806,36.839 C21.105,36.153 20.649,35.218 20.588,34.177 L20.58,33.935 L20.58,32.774 C20.58,32.134 20.06,31.613 19.419,31.613 L19.419,31.613 Z M13.613,29.29 L3.742,29.29 C3.453,29.29 3.214,29.501 3.169,29.777 L3.161,29.871 L3.161,36.258 C3.161,36.546 3.372,36.786 3.648,36.831 L3.742,36.839 L13.936,36.839 C13.764,36.545 13.649,36.214 13.62,35.858 L13.613,35.677 L13.613,29.29 Z M31.032,33.355 L32.193,33.355 L32.193,32.194 L31.032,32.194 L31.032,33.355 Z M28.71,33.355 L29.871,33.355 L29.871,32.194 L28.71,32.194 L28.71,33.355 Z M36.258,13.613 L24.645,13.613 C24.357,13.613 24.117,13.824 24.072,14.1 L24.064,14.194 L24.064,32.774 C24.064,33.062 24.275,33.302 24.551,33.347 L24.645,33.355 L25.226,33.355 L25.226,28.71 L27.548,28.71 L27.548,27.442 C26.874,27.201 26.387,26.562 26.387,25.806 C26.387,24.846 27.168,24.065 28.129,24.065 C29.089,24.065 29.871,24.846 29.871,25.806 C29.871,26.512 29.446,27.115 28.842,27.388 L28.71,27.442 L28.71,28.71 L35.677,28.71 L35.677,33.355 L36.258,33.355 C36.546,33.355 36.786,33.144 36.831,32.868 L36.839,32.774 L36.839,14.194 C36.839,13.906 36.628,13.666 36.352,13.621 L36.258,13.613 Z M26.387,33.355 L27.548,33.355 L27.548,32.194 L26.387,32.194 L26.387,33.355 Z M33.355,33.355 L34.516,33.355 L34.516,32.194 L33.355,32.194 L33.355,33.355 Z M28.71,31.032 L29.871,31.032 L29.871,29.871 L28.71,29.871 L28.71,31.032 Z M33.355,31.032 L34.516,31.032 L34.516,29.871 L33.355,29.871 L33.355,31.032 Z M31.032,31.032 L32.193,31.032 L32.193,29.871 L31.032,29.871 L31.032,31.032 Z M26.387,31.032 L27.548,31.032 L27.548,29.871 L26.387,29.871 L26.387,31.032 Z M5.484,24.645 L3.161,24.645 L3.161,26.387 C3.161,27.299 3.866,28.05 4.76,28.123 L4.903,28.129 L10.452,28.129 C10.252,27.786 10.129,27.393 10.129,26.968 C10.129,26.603 10.219,26.263 10.371,25.957 L10.452,25.806 L6.305,25.806 L5.314,26.798 L4.493,25.977 L5.484,24.985 L5.484,24.645 Z M19.419,24.645 L17.097,24.645 L17.097,24.985 L18.088,25.977 L17.267,26.798 L16.276,25.806 L12.451,25.806 C11.811,25.806 11.29,26.327 11.29,26.968 C11.29,27.565 11.744,28.059 12.325,28.122 L12.451,28.129 L13.613,28.129 L13.613,26.968 L14.774,26.968 L14.774,28.129 L17.677,28.129 C18.59,28.129 19.341,27.424 19.413,26.53 L19.419,26.387 L19.419,24.645 Z M32.774,24.065 C33.734,24.065 34.516,24.846 34.516,25.806 C34.516,26.767 33.734,27.548 32.774,27.548 C31.814,27.548 31.032,26.767 31.032,25.806 C31.032,24.846 31.814,24.065 32.774,24.065 L32.774,24.065 Z M32.774,25.226 C32.454,25.226 32.193,25.487 32.193,25.806 C32.193,26.126 32.454,26.387 32.774,26.387 C33.095,26.387 33.355,26.126 33.355,25.806 C33.355,25.487 33.095,25.226 32.774,25.226 L32.774,25.226 Z M28.129,25.226 C27.808,25.226 27.548,25.487 27.548,25.806 C27.548,26.126 27.808,26.387 28.129,26.387 C28.449,26.387 28.71,26.126 28.71,25.806 C28.71,25.487 28.449,25.226 28.129,25.226 L28.129,25.226 Z M13.871,18.284 L11.871,20.784 L11.871,22.323 L13.032,22.323 L13.032,23.484 L11.871,23.484 L11.871,24.645 L15.935,24.645 L15.935,21.161 L17.097,21.161 L17.097,23.484 L19.419,23.484 L19.419,21.97 C19.419,20.221 18.153,18.771 16.442,18.523 L16.251,18.501 L13.871,18.284 Z M8.71,18.284 L6.33,18.5 C4.588,18.659 3.259,20.051 3.166,21.777 L3.161,21.97 L3.161,23.484 L5.484,23.484 L5.484,21.161 L6.645,21.161 L6.645,24.645 L10.71,24.645 L10.71,23.484 L9.548,23.484 L9.548,22.323 L10.71,22.323 L10.71,20.784 L8.71,18.284 Z M25.225,22.903 L35.677,22.903 L35.677,14.774 L25.225,14.774 L25.225,22.903 Z M27.189,18.258 L26.387,18.258 L26.387,21.742 L34.516,21.742 L34.516,20.581 L31.903,20.581 L30.451,18.645 L28.61,21.1 L27.189,18.258 Z M12.672,16.306 C12.236,16.442 11.771,16.516 11.29,16.516 C10.906,16.516 10.531,16.469 10.174,16.38 L9.909,16.306 L9.6,17.539 L11.29,19.651 L12.98,17.539 L12.672,16.306 Z M34.516,15.935 L26.387,15.935 L26.387,17.097 L27.907,17.097 L28.809,18.9 L30.451,16.709 L32.484,19.419 L34.516,19.419 L34.516,15.935 Z M9.66,7.458 L8.536,7.907 C8.133,8.068 7.86,8.433 7.813,8.857 L7.806,8.986 L7.806,11.871 C7.806,13.792 9.369,15.355 11.29,15.355 C13.147,15.355 14.669,13.895 14.769,12.062 L14.774,11.871 L14.774,9.438 C14.774,9.172 14.597,8.946 14.348,8.878 L14.251,8.86 L11.802,8.615 C11.002,8.535 10.299,8.164 9.793,7.613 L9.66,7.458 Z M25.806,5.484 L21.161,5.484 C20.873,5.484 20.633,5.695 20.588,5.971 L20.58,6.065 L20.58,13.032 C20.58,13.945 21.286,14.696 22.18,14.768 L22.322,14.774 L22.903,14.774 L22.903,14.194 C22.903,13.281 23.608,12.53 24.502,12.457 L24.645,12.452 L26.387,12.452 L26.387,10.129 L24.064,10.129 L24.064,8.968 L26.387,8.968 L26.387,7.806 L24.064,7.806 L24.064,6.645 L26.387,6.645 L26.387,6.065 C26.387,5.777 26.176,5.537 25.9,5.491 L25.806,5.484 Z M12.512,12.191 L13.551,12.711 L13.49,12.834 C13.071,13.673 12.228,14.194 11.29,14.194 C10.415,14.194 9.622,13.74 9.18,12.997 L9.09,12.834 L9.029,12.712 L10.068,12.192 L10.129,12.315 C10.35,12.757 10.795,13.032 11.29,13.032 C11.74,13.032 12.149,12.805 12.386,12.431 L12.451,12.315 L12.512,12.191 Z M29.871,3.161 L24.064,3.161 L24.064,4.323 L25.806,4.323 C26.719,4.323 27.47,5.028 27.542,5.922 L27.548,6.065 L27.548,12.452 L29.871,12.452 L29.871,3.161 Z M6.645,10.129 C6.005,10.129 5.484,10.65 5.484,11.29 C5.484,11.888 5.937,12.382 6.519,12.445 L6.645,12.452 L6.685,12.452 C6.669,12.325 6.657,12.196 6.65,12.067 L6.645,11.871 L6.645,10.129 Z M15.935,10.129 L15.935,11.871 C15.935,12.002 15.928,12.132 15.916,12.26 L15.895,12.452 L15.935,12.452 C16.576,12.452 17.097,11.931 17.097,11.29 C17.097,10.693 16.643,10.199 16.062,10.136 L15.935,10.129 Z M13.025,3.161 L9.556,3.161 C7.31,3.161 5.484,4.988 5.484,7.234 C5.484,7.483 5.507,7.733 5.552,7.978 L5.605,8.221 L5.83,9.123 C6.034,9.046 6.249,8.993 6.474,8.975 L6.645,8.968 C6.653,8.079 7.155,7.287 7.944,6.901 L8.105,6.83 L9.111,6.427 C9.041,6.204 8.995,5.969 8.977,5.728 L8.968,5.484 L10.129,5.484 C10.129,6.454 10.819,7.268 11.758,7.438 L11.917,7.46 L14.367,7.705 C15.046,7.773 15.592,8.221 15.818,8.826 L15.864,8.968 L15.935,8.968 C16.165,8.968 16.386,9.006 16.595,9.07 L16.75,9.123 L16.975,8.222 C17.056,7.899 17.097,7.567 17.097,7.234 C17.097,5.056 15.379,3.272 13.227,3.166 L13.025,3.161 Z"/>
</svg>
