<svg xmlns="http://www.w3.org/2000/svg" width="40" height="40" viewBox="0 0 40 40">
  <path fill-rule="evenodd" d="M29.4973857,35.8772587 L29.496375,35.8782657 C28.9627305,36.414993 28.1400284,36.6868811 27.0515148,36.6868811 C23.3887727,36.6868811 17.1073316,33.4866573 13.3364455,29.6983497 C11.5930045,27.9471888 10.5105551,26.3511049 9.93041875,24.6764755 L9.88695906,24.5506014 L10.0153167,24.5143497 C11.8608375,23.9957483 13.5840647,22.9414266 15.1374959,21.3815944 C16.6747561,19.8368671 17.8673708,17.8551049 18.784067,15.3225175 C20.8883245,9.29465734 25.9256057,7.33605594 27.4194062,6.87888112 L27.5427104,6.84162238 L28.134975,8.96436364 L28.0217777,9.00363636 C27.8135754,9.07211189 27.5942556,9.22013986 27.3072195,9.43664336 C26.2692404,10.0458741 25.1878017,10.9924476 24.4035059,11.9762797 L24.3560034,12.0246154 L24.3560034,12.0930909 L24.3287148,12.1273287 C24.0356146,12.4958881 23.8092199,12.8745175 23.5909108,13.2400559 C22.4205312,15.5188811 23.0784907,18.2347413 25.1241282,19.5559161 C26.4400471,20.437035 28.1946057,20.6646154 30.204869,20.2165035 L30.3120022,20.1923357 L30.3504084,20.2960559 C32.4981256,26.046993 32.1069884,33.1825455 29.4973857,35.8772587 L29.4973857,35.8772587 Z M9.43113767,23.3663776 L9.40182764,23.2304336 C9.25224546,22.5547413 9.1734116,21.7894266 9.1734116,21.0180699 C9.1734116,18.4794406 10.3326735,15.9579301 12.4379417,13.9177622 L13.4112366,12.940979 L13.4021404,13.2591888 C13.32836,15.8572308 13.8397694,18.0202517 14.8807805,19.5136224 L14.9323257,19.5881399 L14.8777485,19.6606434 C14.5563489,20.0916364 12.7886513,22.2929231 9.56353811,23.3240839 L9.43113767,23.3663776 Z M9.56151673,9.27955245 C9.81317865,8.77303497 10.2962887,8.31787413 10.8218477,8.0913007 C11.274637,7.86472727 11.7425867,7.83854545 12.335862,8.00872727 L12.3874072,8.02383217 L12.4126745,8.07015385 C12.9574366,9.08721678 13.5486905,10.359049 13.625503,10.8222657 C13.6275244,11.0025175 13.6275244,11.0991888 13.5385836,11.2764196 L13.5042202,11.3187133 C11.444433,12.9278881 10.4852878,14.2138182 10.0759582,14.7626294 L9.86674525,15.0445874 L9.80003968,13.6780979 C9.73838756,12.3418182 9.66662854,10.8283077 9.54938845,9.34601399 L9.54635638,9.31177622 L9.56151673,9.27955245 Z M22.8945451,7.80833566 L22.7298025,7.93018182 C21.5654871,8.78713287 20.4638345,9.91899301 19.4551655,11.2945455 L19.2267494,11.6057063 L19.2267494,11.220028 C19.2267494,9.08923077 19.7614047,7.70965035 20.7326782,7.33404196 C21.2723869,7.17997203 21.8788012,7.2987972 22.7116101,7.71569231 L22.8945451,7.80833566 Z M14.6513538,12.7184336 C14.9545609,8.06713287 17.3852714,3.25572028 20.9287521,3.25572028 C22.6823001,3.25572028 24.3175972,4.26674126 25.5364899,6.10148252 L25.614313,6.2193007 L25.486966,6.28274126 C25.0402409,6.5073007 24.5864409,6.73588811 24.0679567,7.03295105 L23.9941763,7.07524476 L23.9274707,7.02388811 C22.6651183,6.05314685 21.4421829,5.78226573 20.2980813,6.21325874 C18.3929298,6.87586014 17.5419285,9.632 18.1271182,13.235021 C18.1301503,13.2652308 18.1443,13.2934266 18.1533962,13.3125594 C18.1756314,13.3578741 18.2039307,13.4132587 18.2039307,13.4807273 L18.1907917,13.5371189 C17.9290229,14.0637762 17.7299169,14.5632448 17.5995378,15.0234406 C17.2084006,16.1371748 16.6646492,17.2539301 15.9349307,18.4452028 L15.8237547,18.6274685 L15.7176322,18.4431888 C14.9201975,17.0595804 14.5715093,15.1885874 14.6503431,12.7234685 L14.6513538,12.7184336 Z M27.2445567,11.7315804 C27.2627491,11.8836364 27.282963,12.0417343 27.282963,12.1998322 C27.282963,12.5029371 27.282963,12.8151049 27.2041291,13.2038042 L27.1637015,13.4082238 L25.767938,12.2854266 L25.865975,12.1867413 C26.2459946,11.8050909 26.6300569,11.4959441 27.0009803,11.1978741 L27.2071612,11.0327273 L27.2071612,11.2955524 C27.2071612,11.4385455 27.2243429,11.5815385 27.2445567,11.7315804 L27.2445567,11.7315804 Z M29.8187853,18.849007 L29.9016619,19.0060979 L29.7258018,19.0322797 C29.2760445,19.0997483 28.8495331,19.133986 28.4462677,19.133986 C27.4355772,19.133986 26.5684048,18.9205035 25.8174618,18.4895105 C24.3277041,17.5439441 23.8567224,15.529958 24.7178306,13.801958 C24.7572475,13.7213986 24.7976752,13.660979 24.8370921,13.5995524 C24.8724662,13.5481958 24.9068297,13.4948252 24.9422039,13.4253427 L25.0129522,13.2833566 L25.1362565,13.3840559 C25.9559264,14.0577343 26.7937888,14.7475245 27.5457425,15.5027692 C28.2734396,16.2338462 29.0173078,17.3284476 29.8187853,18.849007 L29.8187853,18.849007 Z M28.4169576,14.5491469 L28.2946641,14.4273007 L28.3078031,14.3608392 C28.4553639,13.6196923 28.4553639,12.9621259 28.4553639,12.1998322 C28.4553639,11.6359161 28.402808,11.1747133 28.3411558,10.641007 L28.2976962,10.2492867 L28.3664231,10.208 C28.7403786,9.98243357 29.0365109,9.83239161 29.0496498,9.82634965 C29.3083866,9.69644755 29.4913216,9.36917483 29.4347229,9.14058741 L28.6837799,5.89806993 C28.6211171,5.58288112 28.3037603,5.40363636 27.9267728,5.46506294 C27.8469282,5.46808392 27.482069,5.54159441 26.900922,5.76011189 L26.8018743,5.79737063 L26.747297,5.70875524 C25.3313197,3.38662937 23.1836025,2 21.0035432,2 C18.1190327,2 15.6731618,4.33118881 14.2955908,8.39641958 L14.1985645,8.68441958 L13.4627818,7.20615385 C13.400119,7.08027972 13.2687293,6.94836364 13.1434037,6.88492308 C12.6552402,6.71071329 12.192344,6.6231049 11.7516829,6.6231049 C11.2524018,6.6231049 10.7814201,6.73588811 10.3316629,6.96145455 C9.28660893,7.41158042 8.58316839,8.30075524 8.44773587,8.91099301 C8.45076794,8.92509091 8.44066103,8.96033566 8.43055413,8.99054545 C8.41640446,9.03888112 8.40730825,9.06808392 8.43762896,9.12951049 L8.44975725,9.17482517 C8.64785257,11.5563636 8.71556883,13.9308531 8.76003921,15.5027692 C8.78328509,16.3184336 8.79945614,16.9075245 8.8247234,17.1622937 L8.82775547,17.1925035 L8.81663788,17.2217063 C8.26783297,18.561007 8,19.8278042 8,21.0935944 C8,22.1972587 8.14655011,23.2465455 8.44571449,24.2998601 C9.10872742,26.4467692 10.4246464,28.5252028 12.4672518,30.653986 C15.9834438,34.1855105 22.5438355,38 27.0060338,38 C28.4139256,38 29.5145675,37.6173427 30.3716329,36.8278601 C34.9389431,32.091972 33.081294,19.3102098 28.4169576,14.5491469 L28.4169576,14.5491469 Z"/>
</svg>
