<svg xmlns="http://www.w3.org/2000/svg" width="40" height="40" viewBox="0 0 40 40">
  <path fill-rule="evenodd" d="M18.8925514,28.6597688 L13.7783718,35.3572254 L13.7730984,2.55872832 C13.7425124,2.25595376 13.4482546,2 13.0928249,2 C12.7152468,2 12.4083328,2.29549133 12.4083328,2.65861272 L12.4083328,35.342659 L7.16759064,28.5463584 C6.95665314,28.3236994 6.55165315,28.2883237 6.27110628,28.4922543 C6.1255594,28.597341 6.03169222,28.7523699 6.00637972,28.9261272 C5.9821219,29.0988439 6.02747347,29.2694798 6.13505159,29.4089017 L12.6688406,37.8127168 C12.6846609,37.8231214 12.7004812,37.8314451 12.7184109,37.8397688 L12.7553249,37.8397688 L12.9884109,37.9230058 C13.0443093,37.9531792 13.1023171,37.9760694 13.1624343,37.9947977 L13.3691531,37.9344509 C13.3754812,37.930289 13.4134499,37.9105202 13.4493093,37.8855491 L13.6328249,37.7138728 L20.0537623,29.3568786 C20.2109108,29.0998844 20.136028,28.7305202 19.8586452,28.5276301 C19.5517311,28.3028902 19.1193092,28.3642775 18.8925514,28.6597688 M32.9462622,11.2382659 C32.8513403,11.4557225 32.6414575,11.6076301 32.3978247,11.636763 C32.1837231,11.6648555 31.9601294,11.5847399 31.8356762,11.456763 L26.5928248,4.65734104 L26.5928248,37.3413873 C26.5928248,37.7034682 26.2859107,38 25.9072779,38 C25.5518482,38 25.2586451,37.7430058 25.2270045,37.4402312 L25.221731,4.64901734 L20.1012233,11.332948 C19.8734108,11.6284393 19.4388795,11.6877457 19.1351295,11.4650867 L19.1351295,11.4650867 C18.8577467,11.2621965 18.7828639,10.8928324 18.9400124,10.6358382 L25.3778248,2.25907514 L25.5328638,2.11132948 C25.542356,2.10612717 25.5518482,2.09988439 25.5613404,2.09468208 L25.592981,2.09676301 L25.7089966,2.06867052 C25.7543482,2.05722543 25.8007544,2.0499422 25.8218482,2.04682081 L25.9990357,2.0416185 C26.0370044,2.0416185 26.0749732,2.04682081 26.0791919,2.04682081 L32.8661059,10.5900578 C33.0095434,10.777341 33.0401294,11.0249711 32.9462622,11.2382659"/>
</svg>
