<svg xmlns="http://www.w3.org/2000/svg" width="40" height="40" viewBox="0 0 40 40">
  <path fill-rule="evenodd" d="M25.259,2 C26.189,2 27.068,2.425 27.64,3.153 C28.172,3.83 28.384,4.696 28.231,5.534 L28.19,5.727 L27.776,7.37 L30.279,14.413 C30.588,15.283 30.453,16.247 29.917,17 C29.419,17.699 28.632,18.135 27.779,18.193 L27.581,18.2 L26.182,18.2 C25.978,18.54 25.744,18.861 25.483,19.16 L25.282,19.38 L31.724,23.143 C33.675,24.288 34.902,26.335 34.994,28.573 L35,28.832 L35,38 L6,38 L6,28.832 C6.005,26.581 7.159,24.493 9.054,23.279 L9.276,23.143 L15.718,19.38 C15.443,19.093 15.195,18.782 14.977,18.452 L14.818,18.2 L13.419,18.2 C12.49,18.2 11.62,17.753 11.083,17 C10.585,16.301 10.433,15.419 10.662,14.601 L10.721,14.413 L13.224,7.37 L12.81,5.727 C12.585,4.831 12.787,3.882 13.36,3.153 C13.892,2.477 14.687,2.062 15.543,2.006 L15.741,2 L25.259,2 Z M10.719,23.693 L9.889,24.178 C8.3,25.11 7.298,26.773 7.214,28.594 L7.208,28.832 L7.208,36.8 L12.042,36.8 L12.042,32 L13.25,32 L13.25,36.8 L19.897,36.8 L19.907,30.46 L16.802,27.376 C16.711,27.286 16.595,27.227 16.47,27.207 L16.374,27.2 L15.509,27.2 C15.131,27.2 14.763,27.082 14.457,26.865 L14.33,26.766 L10.719,23.693 Z M30.281,23.693 L26.67,26.766 C26.383,27.011 26.026,27.159 25.652,27.193 L25.491,27.2 L24.626,27.2 C24.497,27.2 24.373,27.24 24.271,27.314 L24.198,27.376 L21.104,30.448 L21.104,36.8 L27.75,36.8 L27.75,32 L28.958,32 L28.958,36.8 L33.792,36.8 L33.792,28.832 C33.788,26.999 32.852,25.298 31.315,24.303 L31.111,24.178 L30.281,23.693 Z M24.729,32 C25.73,32.001 26.541,32.806 26.542,33.8 C26.542,34.794 25.73,35.6 24.729,35.6 C23.728,35.6 22.917,34.794 22.917,33.8 C22.917,32.806 23.728,32 24.729,32 L24.729,32 Z M17.479,35.6 L18.687,35.6 L18.687,34.4 L17.479,34.4 L17.479,35.6 Z M24.729,33.2 C24.395,33.2 24.125,33.469 24.125,33.8 C24.125,34.131 24.395,34.4 24.729,34.4 C25.063,34.4 25.333,34.131 25.333,33.8 C25.333,33.469 25.063,33.2 24.729,33.2 L24.729,33.2 Z M17.479,33.2 L18.687,33.2 L18.687,32 L17.479,32 L17.479,33.2 Z M14.375,21.557 L11.82,23.05 L15.116,25.856 C15.199,25.925 15.298,25.972 15.403,25.99 L15.509,26 L16.374,26 C16.802,25.999 17.214,26.149 17.539,26.42 L17.656,26.527 L19.516,28.375 L18.894,25.282 C18.843,25.033 18.642,24.846 18.395,24.807 L18.301,24.8 L17.522,24.8 C16.971,24.801 16.452,24.552 16.111,24.13 L16.014,23.998 L14.375,21.557 Z M26.625,21.557 L24.986,23.998 C24.681,24.454 24.186,24.744 23.642,24.793 L23.478,24.8 L22.699,24.8 C22.443,24.801 22.219,24.96 22.132,25.192 L22.106,25.282 L21.484,28.375 L23.344,26.527 C23.645,26.226 24.044,26.043 24.466,26.007 L24.626,26 L25.491,26 C25.599,26 25.704,25.971 25.796,25.918 L25.883,25.856 L29.18,23.05 L26.625,21.557 Z M24.301,20.199 L24.113,20.334 L23.919,20.462 L22.676,21.203 C21.407,21.961 19.838,22.001 18.538,21.323 L18.324,21.203 L17.081,20.462 L16.887,20.334 L16.699,20.199 L15.418,20.948 L17.019,23.333 C17.112,23.472 17.259,23.565 17.422,23.592 L17.522,23.6 L18.301,23.6 C19.114,23.602 19.819,24.137 20.042,24.901 L20.078,25.047 L20.5,27.14 L20.922,25.047 C21.083,24.256 21.75,23.674 22.548,23.606 L22.699,23.6 L23.478,23.6 C23.647,23.6 23.806,23.531 23.919,23.411 L23.981,23.333 L25.582,20.948 L24.301,20.199 Z M25.937,10.4 L15.062,10.4 L15.062,14.803 C15.068,16.616 15.983,18.301 17.493,19.301 L17.702,19.433 L18.946,20.174 C19.842,20.71 20.949,20.743 21.872,20.274 L22.054,20.174 L23.298,19.433 C24.86,18.496 25.844,16.849 25.931,15.049 L25.937,14.803 L25.937,10.4 Z M27.245,9.481 L27.146,9.874 L27.146,14.803 C27.142,15.445 27.043,16.083 26.852,16.696 L26.749,17 L27.581,17 C28.117,17 28.62,16.742 28.93,16.307 C29.209,15.916 29.3,15.425 29.185,14.965 L29.139,14.813 L27.245,9.481 Z M13.755,9.481 L11.861,14.813 C11.682,15.315 11.76,15.872 12.07,16.307 C12.349,16.698 12.784,16.947 13.259,16.992 L13.419,17 L14.251,17 C14.03,16.396 13.899,15.764 13.864,15.123 L13.854,14.803 L13.854,9.874 L13.755,9.481 Z M25.259,3.19998837 L15.741,3.19998837 C15.182,3.198 14.655,3.454 14.312,3.893 C14.002,4.285 13.872,4.786 13.949,5.274 L13.983,5.437 L14.024,5.6 L17.479,5.6 L17.479,6.8 L14.326,6.8 L14.93,9.2 L26.07,9.2 L26.674,6.8 L23.521,6.8 L23.521,5.6 L26.976,5.6 L27.017,5.437 C27.153,4.899 27.031,4.329 26.687,3.892 C26.378,3.499 25.921,3.253 25.425,3.208 L25.259,3.19998837 Z M21.104,4.4 L21.104,5.6 L22.312,5.6 L22.312,6.8 L21.104,6.8 L21.104,8 L19.896,8 L19.896,6.8 L18.687,6.8 L18.687,5.6 L19.896,5.6 L19.896,4.4 L21.104,4.4 Z"/>
</svg>
