<svg xmlns="http://www.w3.org/2000/svg" xmlns:xlink="http://www.w3.org/1999/xlink" width="40" height="40" viewBox="0 0 40 40">
  <defs>
    <polygon id="ic-neurology-a" points="0 0 36 0 36 36 0 36"/>
  </defs>
  <g fill="none" fill-rule="evenodd" transform="translate(2 2)">
    <mask id="ic-neurology-b" fill="#fff">
      <use xlink:href="#ic-neurology-a"/>
    </mask>
    <path fill="#000" d="M21.4431,0.1378 C22.2481,0.7928 22.5721,1.4228 22.6751,1.9348 L22.6851,1.9928 L22.6941,2.0488 C22.6971,2.0678 22.6991,2.0868 22.7021,2.1048 L22.7071,2.1588 C22.7081,2.1678 22.7091,2.1768 22.7091,2.1858 L22.7131,2.2388 C22.7131,2.2468 22.7131,2.2558 22.7141,2.2648 L22.7151,2.3158 L22.7151,2.3648 C22.7141,2.3738 22.7141,2.3818 22.7141,2.3898 L22.7121,2.4378 L22.7091,2.4838 C22.7081,2.4918 22.7081,2.4998 22.7071,2.5068 L22.7031,2.5518 C22.7021,2.5588 22.7011,2.5658 22.7001,2.5738 L22.6941,2.6158 L22.6881,2.6578 L22.6801,2.6968 L22.6731,2.7358 L22.6641,2.7728 L22.6551,2.8078 C22.4301,3.6858 21.5951,4.3458 20.4181,4.5818 L20.2031,4.6228 L20.1071,4.6418 L20.0161,4.6608 L19.8921,4.6878 L19.7821,4.7128 L19.6921,4.7358 L19.6221,4.7538 L19.5601,4.7708 L19.5041,4.7868 L19.4551,4.8028 C19.4471,4.8048 19.4401,4.8078 19.4331,4.8098 L19.3921,4.8248 C19.3861,4.8268 19.3801,4.8288 19.3741,4.8308 L19.3421,4.8448 L19.3141,4.8568 C19.3101,4.8588 19.3061,4.8608 19.3021,4.8628 C19.3081,4.8988 19.3191,4.9438 19.3331,4.9948 L19.3511,5.0588 L19.3731,5.1278 L19.3961,5.1998 L19.4211,5.2748 L19.4721,5.4278 C19.9911,5.7878 20.5141,6.3038 20.9721,7.1588 C21.2461,6.9038 21.5621,6.6998 21.9331,6.5428 C21.9601,6.5318 21.9861,6.5198 22.0121,6.5078 L22.0911,6.4728 L22.1691,6.4358 C22.2601,6.3908 22.3501,6.3438 22.4381,6.2938 L22.5131,6.2498 C22.5381,6.2348 22.5631,6.2198 22.5871,6.2048 L22.6611,6.1588 C22.6851,6.1428 22.7091,6.1268 22.7331,6.1108 L22.8031,6.0618 C22.9211,5.9798 23.0331,5.8928 23.1381,5.8008 L23.2001,5.7458 C23.8161,5.1878 24.1801,4.4848 23.9521,3.8058 L23.9401,3.7718 C23.8251,3.4568 23.9891,3.1088 24.3061,2.9948 C24.6241,2.8808 24.9741,3.0438 25.0891,3.3588 C25.7501,5.1658 24.2421,6.8898 22.4121,7.6578 C21.9821,7.8408 21.6511,8.1408 21.3751,8.6018 C21.3641,8.6248 21.3511,8.6468 21.3371,8.6678 C21.2951,8.7418 21.2541,8.8198 21.2151,8.9018 L21.1751,8.9848 C21.1241,9.0978 21.0741,9.2178 21.0251,9.3458 L20.9891,9.4428 C20.9831,9.4598 20.9771,9.4758 20.9711,9.4928 L20.9361,9.5948 L20.9011,9.6998 L20.8671,9.8078 L20.8331,9.9188 C20.8281,9.9368 20.8221,9.9558 20.8161,9.9748 L20.7831,10.0908 C20.7771,10.1108 20.7721,10.1298 20.7661,10.1498 L20.7331,10.2698 L20.7011,10.3938 L20.6681,10.5208 L20.6361,10.6508 L20.6041,10.7838 L20.5561,10.9908 L20.5241,11.1328 L20.4921,11.2778 L20.4601,11.4268 L20.4121,11.6568 L20.3801,11.8138 L20.3311,12.0568 L20.2821,12.3088 L20.2331,12.5688 L20.1481,13.0208 L20.0791,13.3998 C20.1791,14.0628 20.4071,14.5138 20.7551,14.7398 C21.1751,15.0118 21.8411,15.0198 22.7341,14.7618 L23.1301,14.6228 L23.4281,14.5178 L23.6201,14.4498 L23.9011,14.3488 L24.0821,14.2828 L24.2591,14.2178 L24.4321,14.1528 L24.6831,14.0578 L24.8441,13.9958 L25.0021,13.9338 L25.1551,13.8728 L25.3041,13.8118 C25.3291,13.8018 25.3531,13.7918 25.3771,13.7818 L25.5201,13.7218 L25.6591,13.6618 L25.7941,13.6028 L25.9241,13.5438 L26.0511,13.4848 C26.1131,13.4548 26.1741,13.4258 26.2331,13.3958 L26.3501,13.3378 C27.4011,12.7988 27.9621,12.2598 28.1471,11.5158 C28.6161,9.6068 30.0851,7.8488 31.9771,8.1878 C32.3091,8.2478 32.5301,8.5628 32.4701,8.8918 C32.4111,9.2128 32.1021,9.4298 31.7851,9.3848 L31.7601,9.3808 C31.1111,9.2658 30.5211,9.6358 30.0731,10.2208 L30.0241,10.2868 C29.9761,10.3528 29.9291,10.4228 29.8841,10.4938 L29.8401,10.5658 C29.7741,10.6748 29.7131,10.7888 29.6571,10.9058 L29.6201,10.9838 C29.6081,11.0108 29.5961,11.0368 29.5841,11.0638 L29.5501,11.1438 C29.5391,11.1708 29.5291,11.1978 29.5181,11.2248 L29.4871,11.3058 C29.4271,11.4698 29.3751,11.6368 29.3341,11.8048 C29.2371,12.1938 29.0831,12.5378 28.8711,12.8498 C29.8001,13.1618 30.4011,13.5888 30.8431,14.0358 L31.0121,14.0638 L31.1351,14.0838 L31.2131,14.0948 C31.3001,14.1058 31.3761,14.1138 31.4311,14.1148 L31.4401,14.0838 L31.4481,14.0478 L31.4541,14.0208 L31.4621,13.9728 L31.4681,13.9378 L31.4761,13.8788 L31.4841,13.8108 L31.4891,13.7618 L31.4981,13.6498 L31.5051,13.5558 L31.5111,13.4508 L31.5161,13.3358 L31.5211,13.2098 L31.5261,13.0248 C31.5521,11.8288 32.0571,10.8918 32.8791,10.5068 L32.9351,10.4818 L32.9701,10.4668 L33.0071,10.4528 L33.0451,10.4388 L33.0851,10.4248 L33.1261,10.4118 L33.1691,10.3988 C33.1761,10.3968 33.1831,10.3948 33.1911,10.3928 L33.2361,10.3808 L33.2821,10.3698 L33.3301,10.3598 L33.3801,10.3508 C33.3881,10.3498 33.3971,10.3478 33.4051,10.3468 L33.4571,10.3388 L33.5101,10.3328 C33.5281,10.3308 33.5461,10.3298 33.5651,10.3278 L33.6211,10.3248 L33.6781,10.3228 C33.6881,10.3218 33.6981,10.3218 33.7071,10.3218 L33.7671,10.3218 L33.8281,10.3238 L33.8901,10.3278 L33.9531,10.3338 C33.9641,10.3348 33.9751,10.3358 33.9861,10.3368 L34.0511,10.3458 L34.1181,10.3558 C34.5891,10.4378 35.1541,10.6808 35.7881,11.2228 C36.0431,11.4418 36.0721,11.8238 35.8521,12.0778 C35.6311,12.3308 35.2461,12.3598 34.9901,12.1408 C34.3821,11.6218 33.8101,11.4228 33.4151,11.5968 C33.0281,11.7678 32.7751,12.3048 32.7491,13.0038 L32.7431,13.2258 L32.7401,13.3378 L32.7351,13.4448 L32.7301,13.5488 L32.7241,13.6498 L32.7171,13.7458 L32.7091,13.8388 C32.7071,13.8548 32.7061,13.8698 32.7041,13.8848 L32.6951,13.9728 C32.6311,14.5038 32.4991,14.8438 32.2131,15.0778 C32.0941,15.1748 31.9701,15.2378 31.8361,15.2758 C32.3621,15.8278 33.0491,15.9218 33.6141,15.8728 L33.6851,15.8658 L33.7551,15.8578 L33.8241,15.8478 L33.8901,15.8368 L33.9551,15.8258 L34.0181,15.8128 L34.0781,15.7998 L34.1371,15.7858 L34.1931,15.7718 L34.2461,15.7578 L34.2971,15.7438 L34.3451,15.7288 L34.4121,15.7078 C34.7321,15.6048 35.0781,15.7788 35.1831,16.0958 C35.2881,16.4148 35.1121,16.7568 34.7921,16.8608 C34.2941,17.0218 33.8101,17.1008 33.3531,17.1008 C32.2401,17.1008 31.2821,16.6338 30.6511,15.7478 L30.6181,15.7008 C30.5461,15.5998 30.4751,15.4988 30.4011,15.3988 L30.3611,15.3448 L30.3161,15.2848 C30.3081,15.2758 30.3011,15.2658 30.2931,15.2558 L30.2471,15.1978 C30.2391,15.1878 30.2311,15.1778 30.2231,15.1688 L30.1751,15.1108 L30.1261,15.0528 C29.6861,14.5488 29.0821,14.1058 27.8851,13.8308 C27.3551,14.2128 26.6911,14.5498 25.8941,14.8838 L25.7271,14.9528 L25.5571,15.0218 L25.3821,15.0908 L25.2041,15.1598 L25.0221,15.2298 L24.8371,15.2988 L24.6471,15.3698 L24.3551,15.4758 L24.1561,15.5478 L23.7471,15.6928 L23.2141,15.8788 C22.0621,16.7798 21.8351,18.1808 22.5191,20.1528 L22.7791,20.3348 L23.0321,20.5098 L23.2771,20.6778 L23.5141,20.8388 L23.6691,20.9438 L23.8201,21.0448 L24.0411,21.1908 L24.1851,21.2838 L24.3251,21.3748 L24.4631,21.4628 C24.4861,21.4768 24.5091,21.4908 24.5311,21.5048 L24.6651,21.5888 L24.7961,21.6688 L24.9241,21.7458 L25.0501,21.8198 C25.0711,21.8318 25.0911,21.8438 25.1121,21.8558 L25.2341,21.9248 C26.4831,22.6278 27.3451,22.8438 28.1381,22.5408 L28.1771,22.5248 C30.0051,21.7818 32.2961,21.9338 33.1431,23.6638 C33.2901,23.9648 33.1631,24.3278 32.8601,24.4738 C32.7741,24.5148 32.6831,24.5338 32.5941,24.5338 C32.3761,24.5348 32.1661,24.4188 32.0571,24.2188 L32.0441,24.1928 C31.5431,23.1698 29.9791,23.1318 28.7241,23.6138 L28.6401,23.6468 C28.2661,23.7988 27.8951,23.8788 27.5171,23.8918 C27.7991,24.8208 27.7961,25.5628 27.6881,26.1768 L27.7611,26.3218 L27.7981,26.3928 L27.8351,26.4618 L27.8701,26.5258 L27.9041,26.5848 C27.9261,26.6218 27.9461,26.6538 27.9641,26.6788 L27.9931,26.6678 L28.0281,26.6538 L28.0681,26.6358 L28.1131,26.6138 L28.1641,26.5878 L28.2221,26.5558 L28.2861,26.5198 L28.3581,26.4778 L28.4651,26.4128 L28.5541,26.3568 L28.6511,26.2938 L28.7581,26.2238 L28.8331,26.1728 L28.9131,26.1188 C29.9431,25.4328 31.0311,25.3068 31.8271,25.7768 L31.8601,25.7968 L31.8931,25.8178 L31.9271,25.8408 L31.9611,25.8648 L32.0141,25.9038 L32.0501,25.9318 C32.0561,25.9358 32.0621,25.9408 32.0681,25.9458 L32.1041,25.9768 L32.1401,26.0088 L32.1771,26.0428 L32.2131,26.0788 C32.2191,26.0848 32.2251,26.0918 32.2311,26.0978 L32.2681,26.1368 L32.3041,26.1768 L32.3401,26.2198 C32.3461,26.2268 32.3521,26.2348 32.3581,26.2418 L32.3931,26.2878 C32.4111,26.3108 32.4281,26.3348 32.4461,26.3598 L32.4791,26.4108 C32.5021,26.4458 32.5241,26.4818 32.5451,26.5198 L32.5771,26.5778 C32.8051,27.0088 32.9541,27.6268 32.8691,28.5068 C32.8391,28.8208 32.5731,29.0548 32.2621,29.0548 C32.2431,29.0548 32.2231,29.0538 32.2031,29.0518 C31.8671,29.0198 31.6201,28.7238 31.6531,28.3908 C31.7291,27.6068 31.5641,27.0338 31.2021,26.8188 C30.8281,26.5998 30.2151,26.7138 29.5991,27.1228 L29.4511,27.2218 L29.3111,27.3148 L29.1761,27.4008 L29.0901,27.4548 L29.0061,27.5058 C28.9921,27.5138 28.9781,27.5218 28.9651,27.5298 L28.8841,27.5768 C28.8581,27.5908 28.8321,27.6058 28.8061,27.6198 L28.7301,27.6598 C28.3031,27.8808 27.9711,27.9558 27.6361,27.8708 C27.4911,27.8328 27.3671,27.7698 27.2571,27.6858 C27.1131,28.4378 27.4331,29.0448 27.7981,29.4688 L27.8471,29.5238 C27.8631,29.5418 27.8801,29.5598 27.8961,29.5768 L27.9451,29.6278 L27.9951,29.6768 C28.0031,29.6848 28.0111,29.6928 28.0191,29.7008 L28.0681,29.7458 C28.0761,29.7538 28.0841,29.7608 28.0921,29.7678 L28.1391,29.8098 L28.1861,29.8498 L28.2311,29.8868 L28.2751,29.9228 L28.3381,29.9708 L28.3961,30.0138 C28.6681,30.2098 28.7291,30.5888 28.5301,30.8598 C28.4111,31.0228 28.2241,31.1088 28.0351,31.1088 C27.9111,31.1088 27.7851,31.0718 27.6761,30.9928 C26.2191,29.9418 25.6661,28.4308 26.1961,26.9508 C26.2181,26.8898 26.2401,26.8288 26.2621,26.7668 L26.2831,26.7048 C26.3381,26.5448 26.3901,26.3818 26.4321,26.2108 C26.4361,26.1498 26.4501,26.0898 26.4721,26.0328 C26.5921,25.4238 26.5711,24.7008 26.1421,23.6748 C25.6251,23.5058 25.0801,23.2428 24.4861,22.9008 L24.3431,22.8168 C24.2711,22.7738 24.1981,22.7308 24.1241,22.6858 L23.9761,22.5948 C23.9511,22.5788 23.9261,22.5638 23.9011,22.5478 L23.7501,22.4518 L23.5961,22.3538 L23.4411,22.2528 L23.2831,22.1488 L23.1231,22.0428 L22.9601,21.9338 L22.7951,21.8218 L22.6271,21.7068 L22.2841,21.4708 L21.8411,21.1628 C21.8111,21.1418 21.7801,21.1198 21.7501,21.0988 L21.7051,21.0888 L21.6361,21.0748 L21.5891,21.0668 L21.5411,21.0598 L21.4931,21.0528 L21.4441,21.0468 L21.3941,21.0418 L21.3441,21.0388 L21.2931,21.0358 L21.2421,21.0348 L21.1901,21.0348 C21.1461,21.0348 21.1021,21.0368 21.0571,21.0408 L21.0031,21.0458 L20.9491,21.0528 C20.9401,21.0538 20.9311,21.0548 20.9211,21.0568 L20.8661,21.0658 C20.6351,21.1078 20.3921,21.1968 20.1421,21.3578 L20.0821,21.3968 C19.7001,21.6588 19.3031,22.0878 18.9101,22.7698 L18.8311,23.3218 L18.7831,23.6408 L18.7521,23.8488 L18.7201,24.0538 L18.6881,24.2538 L18.6561,24.4508 L18.6241,24.6438 L18.5911,24.8338 L18.5581,25.0188 C18.5521,25.0498 18.5471,25.0798 18.5411,25.1108 L18.5071,25.2908 C18.5011,25.3208 18.4951,25.3498 18.4901,25.3798 L18.4541,25.5538 L18.4181,25.7248 C18.4001,25.8098 18.3811,25.8928 18.3631,25.9748 L18.3241,26.1368 C18.1811,26.7238 18.0161,27.2388 17.8121,27.6838 C18.2981,28.7618 18.8501,29.2708 19.4141,29.5958 L19.4791,29.6318 L19.5441,29.6678 L19.6091,29.7008 L19.6751,29.7338 L19.7401,29.7648 L19.8051,29.7958 L19.9031,29.8398 L19.9691,29.8688 L20.1321,29.9388 L20.1971,29.9658 C21.6091,30.5578 22.1461,31.8318 22.1941,33.0338 L22.1961,33.1218 C22.2011,33.3558 22.1881,33.5858 22.1591,33.8078 C22.1191,34.1138 21.8561,34.3358 21.5541,34.3358 C21.5271,34.3358 21.5011,34.3338 21.4741,34.3308 C21.1491,34.2888 20.9161,33.9998 20.9441,33.6778 L20.9561,33.5808 L20.9611,33.5298 L20.9661,33.4758 L20.9701,33.4198 L20.9731,33.3608 L20.9751,33.2988 L20.9771,33.2358 C20.9771,33.2248 20.9771,33.2138 20.9771,33.2028 L20.9771,33.1358 C20.9771,33.1248 20.9761,33.1138 20.9761,33.1028 L20.9741,33.0328 L20.9701,32.9628 L20.9641,32.8908 L20.9561,32.8178 C20.8931,32.2658 20.6651,31.6318 20.0201,31.2358 C20.0101,31.3718 19.9721,31.5058 19.9011,31.6398 C19.7111,31.9948 19.3471,32.1908 18.8291,32.3478 L18.7361,32.3748 C18.7051,32.3838 18.6731,32.3928 18.6401,32.4008 L18.5411,32.4268 L18.4381,32.4528 L18.3331,32.4778 L18.1691,32.5158 L17.9981,32.5538 C17.2881,32.7198 16.7851,33.0888 16.6941,33.5118 C16.6061,33.9238 16.9191,34.4338 17.5521,34.9118 C17.8211,35.1148 17.8731,35.4948 17.6681,35.7618 C17.5481,35.9178 17.3661,35.9998 17.1821,35.9998 C17.0531,35.9998 16.9231,35.9598 16.8121,35.8758 C16.0171,35.2758 15.6651,34.6838 15.5301,34.1878 L15.5151,34.1298 L15.5021,34.0728 C15.5001,34.0638 15.4981,34.0538 15.4971,34.0448 L15.4861,33.9898 L15.4781,33.9348 L15.4711,33.8818 C15.4701,33.8728 15.4691,33.8638 15.4681,33.8548 L15.4631,33.8028 L15.4601,33.7528 L15.4581,33.7028 L15.4581,33.6548 C15.4581,33.6468 15.4581,33.6388 15.4581,33.6308 L15.4591,33.5838 L15.4611,33.5388 L15.4641,33.4948 L15.4681,33.4518 L15.4731,33.4108 L15.4791,33.3708 L15.4881,33.3138 L15.4951,33.2778 L15.4991,33.2598 C15.6921,32.3588 16.5241,31.6538 17.7251,31.3728 L17.8671,31.3408 L17.9961,31.3108 L18.1511,31.2728 L18.2221,31.2548 L18.3491,31.2208 L18.4061,31.2048 L18.4831,31.1828 L18.5521,31.1608 L18.6121,31.1408 L18.6641,31.1228 L18.7231,31.0998 L18.7591,31.0848 L18.7801,31.0748 C18.7831,31.0738 18.7861,31.0718 18.7891,31.0698 C18.7821,31.0388 18.7711,31.0018 18.7581,30.9608 L18.7361,30.8958 L18.7111,30.8248 L18.6831,30.7508 L18.6381,30.6348 L18.5911,30.5158 C18.0671,30.1778 17.5221,29.6758 17.0361,28.8408 C16.7861,29.0918 16.4971,29.2978 16.1591,29.4598 L16.0911,29.4918 C16.0521,29.5108 16.0131,29.5298 15.9741,29.5488 L15.8961,29.5888 C15.7291,29.6758 15.5661,29.7738 15.4111,29.8808 L15.3391,29.9318 C15.3281,29.9398 15.3161,29.9488 15.3041,29.9568 L15.2351,30.0088 C15.2231,30.0178 15.2121,30.0268 15.2011,30.0348 L15.1331,30.0888 C15.1221,30.0978 15.1111,30.1068 15.1001,30.1158 L15.0351,30.1718 C14.3351,30.7768 13.9021,31.5648 14.1741,32.3008 L14.1871,32.3348 C14.3121,32.6448 14.1591,32.9978 13.8451,33.1218 C13.7711,33.1508 13.6951,33.1648 13.6201,33.1648 C13.3761,33.1648 13.1471,33.0198 13.0511,32.7818 C12.3451,31.0178 13.7531,29.2598 15.5231,28.4178 L15.5771,28.3928 C16.2741,28.0738 16.6961,27.4218 17.0211,26.2838 L17.0561,26.1608 L17.0891,26.0328 C17.1001,25.9898 17.1121,25.9458 17.1221,25.9018 L17.1551,25.7658 L17.1871,25.6268 C17.1921,25.6038 17.1981,25.5798 17.2031,25.5558 L17.2341,25.4108 L17.2651,25.2618 L17.2961,25.1088 L17.3261,24.9518 L17.3561,24.7908 L17.3861,24.6248 L17.4151,24.4558 L17.4591,24.1928 L17.4891,24.0128 L17.5181,23.8278 L17.5471,23.6388 L17.6061,23.2468 L17.6511,22.9418 L17.6971,22.6258 L17.6801,22.5788 L17.6621,22.5308 L17.6431,22.4838 C17.6401,22.4758 17.6371,22.4678 17.6341,22.4608 L17.6131,22.4128 L17.5921,22.3668 L17.5701,22.3198 L17.5471,22.2728 L17.5221,22.2268 C17.5181,22.2188 17.5141,22.2118 17.5091,22.2038 L17.4831,22.1578 L17.4551,22.1128 C17.4451,22.0978 17.4361,22.0828 17.4261,22.0688 L17.3951,22.0248 C17.3741,21.9948 17.3521,21.9658 17.3291,21.9378 L17.2941,21.8958 C16.8861,21.4208 16.1641,21.0888 14.7911,21.2238 L14.3601,21.5568 L14.1931,21.6848 L13.9461,21.8728 L13.7041,22.0548 L13.5461,22.1728 L13.3901,22.2878 L13.2371,22.3998 C13.2111,22.4188 13.1861,22.4368 13.1611,22.4558 L13.0111,22.5638 L12.8621,22.6688 C12.8381,22.6858 12.8131,22.7028 12.7891,22.7198 L12.6431,22.8208 L12.5001,22.9178 L12.3581,23.0128 C12.3351,23.0278 12.3111,23.0438 12.2881,23.0588 L12.1491,23.1488 C11.5961,23.5018 11.0841,23.7788 10.5921,23.9678 C10.2261,24.9848 10.2231,25.6908 10.3561,26.2718 L10.3731,26.3448 C10.3801,26.3698 10.3861,26.3938 10.3921,26.4178 L10.4131,26.4888 L10.4341,26.5588 L10.4571,26.6278 C10.4611,26.6388 10.4641,26.6498 10.4681,26.6618 L10.4921,26.7288 L10.5171,26.7958 L10.5421,26.8618 L10.5661,26.9218 C10.6101,27.0318 10.6561,27.1388 10.7021,27.2458 C11.1651,28.3338 10.9601,29.3578 10.4661,30.1828 L10.4191,30.2598 C10.4031,30.2858 10.3871,30.3108 10.3701,30.3358 L10.3201,30.4098 L10.2681,30.4828 C10.2331,30.5318 10.1971,30.5788 10.1601,30.6258 L10.1051,30.6948 C10.0861,30.7178 10.0671,30.7408 10.0481,30.7628 L9.9891,30.8298 C9.9801,30.8408 9.9701,30.8518 9.9601,30.8628 L9.9001,30.9268 L9.8391,30.9898 C9.8191,31.0108 9.7991,31.0318 9.7781,31.0518 L9.7151,31.1118 C9.7051,31.1218 9.6941,31.1318 9.6841,31.1418 L9.6201,31.1998 C9.6101,31.2098 9.5991,31.2188 9.5881,31.2278 L9.5241,31.2838 C9.4921,31.3118 9.4591,31.3388 9.4261,31.3648 C9.3131,31.4558 9.1771,31.4998 9.0421,31.4998 C8.8641,31.4998 8.6871,31.4238 8.5671,31.2758 C8.3541,31.0148 8.3951,30.6338 8.6571,30.4228 L8.6931,30.3938 L8.7321,30.3608 L8.7931,30.3088 L8.8351,30.2708 L8.8791,30.2298 C8.8861,30.2228 8.8931,30.2158 8.9011,30.2088 L8.9461,30.1648 L8.9921,30.1188 L9.0381,30.0708 L9.0841,30.0198 L9.1301,29.9668 C9.5171,29.5188 9.8861,28.8498 9.6861,28.0428 C9.5831,28.1298 9.4661,28.1988 9.3251,28.2448 C8.9351,28.3728 8.5161,28.2578 8.0241,28.0148 L7.9391,27.9718 L7.8521,27.9268 C7.8381,27.9188 7.8231,27.9108 7.8091,27.9038 L7.7201,27.8548 L7.6291,27.8048 L7.4911,27.7248 L7.3001,27.6138 C6.6691,27.2288 6.0611,27.1368 5.7021,27.3698 C5.3471,27.5998 5.2061,28.1878 5.3181,28.9808 C5.3641,29.3128 5.1311,29.6188 4.7971,29.6648 C4.7681,29.6688 4.7401,29.6708 4.7121,29.6708 C4.4121,29.6708 4.1501,29.4508 4.1071,29.1478 C3.9601,28.0948 4.1621,27.4028 4.4451,26.9558 L4.4781,26.9058 C4.4941,26.8818 4.5101,26.8578 4.5271,26.8348 L4.5611,26.7908 L4.5951,26.7478 C4.6011,26.7408 4.6061,26.7338 4.6121,26.7278 L4.6471,26.6878 L4.6811,26.6498 L4.7161,26.6138 C4.7221,26.6078 4.7281,26.6018 4.7331,26.5958 L4.7681,26.5628 L4.8031,26.5308 C4.8091,26.5258 4.8141,26.5208 4.8201,26.5158 L4.8541,26.4868 L4.8881,26.4588 L4.9211,26.4328 L4.9541,26.4088 L5.0021,26.3748 L5.0341,26.3538 C5.8031,25.8548 6.8881,25.9378 7.9321,26.5768 L8.0531,26.6468 L8.2011,26.7318 L8.3321,26.8048 L8.4211,26.8528 L8.4761,26.8818 L8.5521,26.9208 L8.6211,26.9548 L8.6631,26.9748 L8.7211,27.0008 L8.7721,27.0238 L8.8171,27.0418 L8.8571,27.0568 L8.8911,27.0678 L8.9111,27.0738 C8.9151,27.0748 8.9181,27.0758 8.9211,27.0758 C8.9361,27.0518 8.9531,27.0208 8.9721,26.9858 L9.0001,26.9288 L9.0291,26.8668 L9.0751,26.7638 L9.1071,26.6918 L9.1701,26.5428 C9.0211,25.9008 8.9941,25.1748 9.2271,24.2568 C8.8431,24.2638 8.4621,24.2038 8.0731,24.0688 C6.7911,23.6168 5.1801,23.7228 4.7151,24.8028 C4.6161,25.0328 4.3901,25.1718 4.1531,25.1718 C4.0731,25.1718 3.9911,25.1558 3.9131,25.1228 C3.6031,24.9918 3.4591,24.6358 3.5911,24.3278 C4.3571,22.5468 6.6311,22.2748 8.4791,22.9248 C9.1941,23.1738 9.9341,23.0178 10.9171,22.4708 L11.0271,22.4088 C11.1191,22.3548 11.2141,22.2978 11.3111,22.2378 L11.4291,22.1648 L11.5491,22.0878 C11.5901,22.0618 11.6301,22.0348 11.6721,22.0078 L11.7961,21.9248 L11.9241,21.8378 C11.9451,21.8238 11.9671,21.8088 11.9881,21.7938 L12.1191,21.7028 L12.2531,21.6078 L12.3901,21.5108 L12.5291,21.4098 L12.6711,21.3058 L12.8161,21.1988 L13.0391,21.0328 L13.2701,20.8588 L13.5071,20.6778 L13.8351,20.4258 L14.0901,20.2288 L14.1151,20.1878 L14.1391,20.1468 L14.1741,20.0828 L14.1971,20.0388 L14.2191,19.9948 L14.2411,19.9498 L14.2621,19.9038 L14.2821,19.8568 L14.3011,19.8098 C14.3041,19.8018 14.3071,19.7938 14.3101,19.7858 L14.3271,19.7378 C14.3331,19.7208 14.3381,19.7048 14.3431,19.6878 L14.3581,19.6388 L14.3721,19.5878 L14.3841,19.5358 L14.3951,19.4838 C14.5101,18.8878 14.3281,18.1518 13.3301,17.2998 L12.9971,17.2658 L12.6721,17.2308 L12.4601,17.2078 L12.1491,17.1728 L11.9471,17.1498 L11.6501,17.1138 L11.4561,17.0888 L11.2671,17.0628 L11.0811,17.0368 C11.0501,17.0328 11.0191,17.0288 10.9891,17.0238 L10.8081,16.9968 L10.6311,16.9688 C9.7551,16.8278 9.0141,16.6518 8.3971,16.3988 C7.4201,16.8678 6.9271,17.3728 6.6191,17.8838 L6.5811,17.9498 L6.5441,18.0148 C6.5321,18.0368 6.5211,18.0588 6.5101,18.0798 L6.4771,18.1458 L6.4451,18.2108 L6.4151,18.2768 L6.3861,18.3418 L6.3601,18.4018 L6.3231,18.4918 L6.2991,18.5508 L6.2641,18.6408 L6.1961,18.8188 C5.6641,20.1768 4.4931,20.7688 3.3401,20.9038 L3.2511,20.9138 C3.1011,20.9278 2.9521,20.9348 2.8051,20.9348 C2.6611,20.9348 2.5171,20.9278 2.3781,20.9148 C2.0421,20.8848 1.7951,20.5888 1.8261,20.2558 C1.8561,19.9308 2.1351,19.6848 2.4641,19.7058 L2.5641,19.7138 L2.6281,19.7178 L2.6991,19.7208 L2.7501,19.7218 L2.8041,19.7218 L2.8601,19.7218 L2.9181,19.7198 C2.9281,19.7198 2.9381,19.7188 2.9481,19.7188 L3.0101,19.7158 L3.0741,19.7118 L3.1391,19.7058 L3.2061,19.6988 L3.2751,19.6898 C3.2861,19.6878 3.2981,19.6868 3.3091,19.6848 L3.3801,19.6728 L3.4511,19.6598 C3.9651,19.5578 4.5411,19.3028 4.8991,18.7038 C4.7611,18.6978 4.6261,18.6658 4.4881,18.5998 C4.0901,18.4098 3.8661,17.9918 3.6751,17.4148 L3.6451,17.3198 C3.6401,17.3038 3.6341,17.2878 3.6291,17.2718 L3.5991,17.1728 L3.5701,17.0708 L3.5251,16.9128 L3.4801,16.7508 C3.2951,16.0388 2.9171,15.5518 2.4931,15.4738 C2.0761,15.3958 1.5731,15.7238 1.1091,16.3688 C0.9121,16.6418 0.5311,16.7048 0.2561,16.5108 C-0.0179,16.3168 -0.0829,15.9378 0.1131,15.6658 C0.6851,14.8698 1.2611,14.5018 1.7521,14.3478 L1.8101,14.3308 L1.8671,14.3148 L1.9241,14.3018 C1.9431,14.2978 1.9611,14.2938 1.9801,14.2898 L2.0351,14.2798 C2.0441,14.2788 2.0531,14.2768 2.0621,14.2758 L2.1151,14.2678 C2.1241,14.2668 2.1321,14.2658 2.1411,14.2648 L2.1931,14.2588 C2.2011,14.2588 2.2101,14.2578 2.2181,14.2568 L2.2681,14.2538 L2.3171,14.2518 L2.3641,14.2508 C2.3721,14.2508 2.3801,14.2508 2.3881,14.2508 L2.4331,14.2518 L2.4781,14.2538 L2.5211,14.2568 L2.5831,14.2628 L2.6421,14.2698 L2.6981,14.2788 C2.7041,14.2798 2.7101,14.2808 2.7161,14.2818 C3.6111,14.4468 4.3301,15.2308 4.6471,16.3858 L4.6871,16.5328 L4.7241,16.6618 L4.7581,16.7798 L4.8011,16.9208 L4.8211,16.9838 L4.8581,17.0978 L4.8851,17.1738 L4.9091,17.2398 L4.9241,17.2798 L4.9461,17.3338 L4.9661,17.3798 L4.9851,17.4188 L5.0021,17.4528 L5.0121,17.4708 C5.0141,17.4738 5.0161,17.4768 5.0171,17.4798 C5.0451,17.4728 5.0791,17.4628 5.1161,17.4498 L5.1751,17.4288 L5.2391,17.4038 L5.3071,17.3768 L5.4141,17.3328 L5.5661,17.2678 C5.8841,16.7378 6.3691,16.1808 7.2021,15.6678 C6.9221,15.4118 6.6921,15.1098 6.5081,14.7498 L6.4881,14.7118 L6.4481,14.6358 C6.4411,14.6228 6.4341,14.6098 6.4271,14.5978 L6.3851,14.5218 L6.3411,14.4478 C6.2731,14.3358 6.2011,14.2268 6.1241,14.1218 L6.0721,14.0528 C6.0641,14.0408 6.0551,14.0298 6.0461,14.0178 L5.9931,13.9508 L5.9381,13.8838 C5.9101,13.8508 5.8821,13.8188 5.8541,13.7868 L5.7961,13.7238 C5.1681,13.0498 4.3601,12.6488 3.6221,12.9428 L3.5881,12.9568 C3.2791,13.0908 2.9181,12.9488 2.7841,12.6408 C2.6511,12.3338 2.7931,11.9768 3.1031,11.8438 C4.8881,11.0788 6.7161,12.4518 7.6001,14.2048 C7.8091,14.6148 8.1351,14.9208 8.6121,15.1608 C8.6491,15.1748 8.6841,15.1918 8.7181,15.2118 C8.8001,15.2508 8.8871,15.2868 8.9781,15.3218 L9.0701,15.3558 C9.1171,15.3728 9.1651,15.3888 9.2141,15.4058 L9.3141,15.4368 C9.3301,15.4428 9.3471,15.4478 9.3651,15.4528 L9.4691,15.4828 C9.4861,15.4878 9.5041,15.4928 9.5221,15.4978 L9.6311,15.5268 L9.7431,15.5558 C9.7621,15.5608 9.7811,15.5648 9.8001,15.5698 L9.9171,15.5968 L10.0371,15.6238 C10.0571,15.6278 10.0771,15.6318 10.0981,15.6368 L10.2221,15.6618 C10.2441,15.6658 10.2651,15.6708 10.2861,15.6748 L10.4161,15.6988 L10.5491,15.7228 L10.6851,15.7468 L10.8251,15.7698 L10.9681,15.7928 L11.1151,15.8148 L11.2661,15.8368 L11.4191,15.8588 L11.6571,15.8898 L11.8201,15.9108 L12.0711,15.9418 L12.3311,15.9728 L12.5991,16.0028 L12.9701,16.0438 L13.2581,16.0738 L13.5561,16.1038 L13.5991,16.0958 L13.6421,16.0848 L13.6861,16.0738 C14.1071,15.9568 14.5361,15.6448 14.6651,14.6708 L14.4081,14.3318 L14.2231,14.0888 L14.0431,13.8538 L13.8681,13.6288 L13.7541,13.4838 L13.5881,13.2738 L13.4801,13.1388 L13.3731,13.0068 L13.2691,12.8798 L13.1671,12.7558 L13.0661,12.6368 L12.9671,12.5208 C12.9511,12.5018 12.9351,12.4828 12.9191,12.4648 L12.8221,12.3538 C12.7901,12.3178 12.7591,12.2828 12.7271,12.2478 L12.6341,12.1448 L12.5421,12.0468 C12.4971,11.9978 12.4511,11.9508 12.4071,11.9048 L12.3181,11.8158 C11.5111,11.0098 10.8531,10.6648 10.1001,10.7018 L10.0591,10.7038 C8.0781,10.8228 5.9571,9.9488 5.7221,8.0568 C5.6811,7.7248 5.9191,7.4228 6.2541,7.3808 C6.5861,7.3408 6.8931,7.5758 6.9351,7.9088 C7.0311,8.6848 7.7421,9.1758 8.6251,9.3868 L8.7111,9.4058 C9.0571,9.4798 9.4271,9.5118 9.7951,9.5028 L9.8871,9.4988 C9.9021,9.4988 9.9171,9.4978 9.9331,9.4968 L9.9791,9.4938 C10.3851,9.4658 10.7661,9.5088 11.1331,9.6168 C11.1491,8.6738 11.3671,7.9818 11.6821,7.4038 L11.6651,7.2798 L11.6461,7.1548 L11.6331,7.0748 L11.6201,6.9988 L11.6061,6.9298 C11.5971,6.8858 11.5881,6.8478 11.5781,6.8168 L11.5571,6.8148 C11.5541,6.8148 11.5501,6.8138 11.5461,6.8138 L11.5211,6.8138 C11.5171,6.8138 11.5131,6.8138 11.5081,6.8138 L11.4801,6.8148 L11.4501,6.8178 C11.4441,6.8178 11.4391,6.8188 11.4331,6.8198 L11.3801,6.8268 L11.3411,6.8328 L11.2991,6.8408 L11.2531,6.8498 L11.1781,6.8668 L11.0651,6.8928 L10.9011,6.9348 L10.6691,6.9968 L10.4911,7.0458 C9.3201,7.3888 8.2511,7.1818 7.6391,6.4898 L7.6141,6.4618 L7.5891,6.4318 L7.5641,6.3998 L7.5391,6.3668 L7.5131,6.3318 L7.4881,6.2948 C7.4841,6.2888 7.4791,6.2828 7.4751,6.2758 L7.4501,6.2368 L7.4251,6.1958 L7.4011,6.1538 L7.3771,6.1088 L7.3541,6.0628 L7.3311,6.0158 C7.3281,6.0078 7.3241,5.9988 7.3201,5.9908 L7.2991,5.9408 C7.2951,5.9318 7.2921,5.9238 7.2881,5.9148 L7.2681,5.8618 C7.2421,5.7898 7.2191,5.7128 7.2001,5.6318 L7.1861,5.5688 C7.0841,5.0748 7.1231,4.4098 7.5091,3.5458 C7.6461,3.2398 8.0071,3.1008 8.3161,3.2368 C8.6241,3.3728 8.7631,3.7308 8.6271,4.0368 C8.3001,4.7678 8.2741,5.3708 8.5571,5.6908 C8.8431,6.0128 9.4551,6.0848 10.1531,5.8808 L10.3241,5.8338 L10.4341,5.8048 L10.5401,5.7778 L10.6421,5.7518 C10.6591,5.7478 10.6761,5.7438 10.6921,5.7398 L10.7901,5.7168 C10.8061,5.7138 10.8221,5.7098 10.8381,5.7058 L10.9301,5.6868 C10.9451,5.6838 10.9601,5.6808 10.9751,5.6778 L11.0631,5.6608 C11.5981,5.5648 11.9641,5.5908 12.2721,5.7908 C12.4021,5.8758 12.5011,5.9778 12.5791,6.0958 C12.8751,5.5608 12.8551,5.0138 12.7281,4.5548 L12.7081,4.4868 L12.6871,4.4198 C12.6831,4.4088 12.6801,4.3978 12.6761,4.3868 L12.6531,4.3228 C12.6411,4.2908 12.6291,4.2588 12.6161,4.2288 L12.5911,4.1678 L12.5641,4.1088 L12.5381,4.0528 L12.5101,3.9968 L12.4831,3.9438 L12.4561,3.8928 L12.4291,3.8438 L12.4021,3.7978 L12.3751,3.7528 L12.3361,3.6908 L12.3111,3.6518 L12.2871,3.6158 L12.2431,3.5518 L12.2141,3.5108 C12.0151,3.2398 12.0761,2.8608 12.3481,2.6638 C12.6211,2.4668 13.0031,2.5268 13.2021,2.7978 C13.2181,2.8198 13.2351,2.8428 13.2511,2.8658 L13.2991,2.9358 C13.3151,2.9588 13.3311,2.9828 13.3461,3.0068 L13.3921,3.0788 L13.4381,3.1518 C13.4451,3.1648 13.4521,3.1768 13.4601,3.1898 L13.5031,3.2648 L13.5451,3.3418 C13.5521,3.3538 13.5591,3.3668 13.5661,3.3798 L13.6061,3.4588 C13.6251,3.4978 13.6451,3.5378 13.6631,3.5778 L13.7001,3.6588 C14.1591,4.7028 14.2381,5.9868 13.3581,7.1198 L13.2971,7.1948 C13.2701,7.2288 13.2441,7.2618 13.2171,7.2958 L13.1371,7.3978 L13.0761,7.4788 L13.0341,7.5368 L12.9921,7.5948 L12.9501,7.6548 C12.9441,7.6648 12.9371,7.6748 12.9301,7.6848 L12.8901,7.7468 C12.8831,7.7568 12.8761,7.7678 12.8701,7.7778 L12.8311,7.8408 C12.5031,8.3868 12.2791,9.0908 12.3771,10.2638 C12.9281,10.6728 13.4761,11.2348 14.0681,11.9368 L14.1831,12.0738 C14.2211,12.1208 14.2601,12.1678 14.2991,12.2148 L14.4171,12.3598 L14.5351,12.5078 L14.6561,12.6588 L14.8391,12.8918 L15.0251,13.1328 L15.1521,13.2968 L15.4101,13.6358 L15.6761,13.9878 C16.7371,14.3318 17.7931,14.0318 18.8961,13.0758 L18.9791,12.6208 L19.0381,12.3088 L19.0761,12.1058 L19.1341,11.8088 L19.1721,11.6158 L19.2101,11.4258 L19.2491,11.2408 L19.2871,11.0588 L19.3261,10.8798 L19.3651,10.7058 L19.4051,10.5348 C19.4121,10.5068 19.4181,10.4788 19.4251,10.4508 L19.4651,10.2858 L19.5061,10.1238 C19.5481,9.9638 19.5901,9.8098 19.6341,9.6608 L19.6781,9.5138 C19.8191,9.0528 19.9741,8.6438 20.1541,8.2848 C19.7671,7.3428 19.3251,6.8268 18.8501,6.4778 L18.7871,6.4328 C18.7551,6.4098 18.7231,6.3888 18.6911,6.3678 C18.6531,6.3488 18.6171,6.3268 18.5841,6.2998 C18.4141,6.1968 18.2401,6.1078 18.0641,6.0228 L17.9131,5.9498 L17.8501,5.9198 C16.2361,5.1648 15.8291,3.5498 15.9901,2.2148 L16.0011,2.1308 C16.0031,2.1178 16.0051,2.1038 16.0071,2.0898 L16.0201,2.0068 C16.0751,1.6768 16.3901,1.4508 16.7231,1.5088 C17.0561,1.5638 17.2811,1.8758 17.2251,2.2058 L17.2181,2.2518 L17.2111,2.2998 L17.2041,2.3508 L17.1951,2.4338 L17.1891,2.4908 L17.1851,2.5508 C17.1841,2.5618 17.1831,2.5718 17.1831,2.5818 L17.1801,2.6458 L17.1781,2.7108 L17.1771,2.7778 C17.1771,2.8798 17.1811,2.9878 17.1931,3.0978 L17.2011,3.1718 C17.2681,3.6928 17.4931,4.2698 18.0811,4.6608 C18.0971,4.5208 18.1411,4.3858 18.2201,4.2518 C18.4141,3.9208 18.7501,3.7348 19.3071,3.5828 L19.3971,3.5588 L19.4901,3.5358 C19.5061,3.5318 19.5221,3.5278 19.5381,3.5248 L19.6381,3.5018 C19.6551,3.4978 19.6721,3.4938 19.6891,3.4908 L19.7941,3.4678 L19.9031,3.4458 L20.0751,3.4128 C20.0951,3.4088 20.1141,3.4048 20.1341,3.4008 C20.8521,3.2668 21.3651,2.9248 21.4721,2.5078 C21.5771,2.0988 21.2841,1.5768 20.6681,1.0748 C20.4071,0.8628 20.3691,0.4808 20.5831,0.2218 C20.7971,-0.0382 21.1831,-0.0742 21.4431,0.1378 M19.0941,14.4618 C18.0081,15.2158 16.9041,15.4858 15.7951,15.2708 C15.5931,16.1188 15.1751,16.6318 14.7021,16.9358 C15.7031,18.0468 15.7941,19.1058 15.5291,19.9868 C17.0121,20.0318 17.8861,20.6248 18.4001,21.3498 C19.2961,20.2168 20.2761,19.8498 21.1451,19.8278 C20.7251,18.1998 20.9371,17.0128 21.4051,16.1538 C20.8981,16.1278 20.4581,15.9948 20.0861,15.7548 C19.6401,15.4648 19.3091,15.0318 19.0941,14.4618 M18.2591,16.2528 C19.2131,16.2528 19.9891,17.0228 19.9891,17.9688 C19.9891,18.9158 19.2131,19.6848 18.2591,19.6848 C17.2941,19.6848 16.5091,18.9158 16.5091,17.9688 C16.5091,17.0228 17.2941,16.2528 18.2591,16.2528 M18.2591,17.4658 C17.9681,17.4658 17.7311,17.6918 17.7311,17.9688 C17.7311,18.2468 17.9681,18.4728 18.2591,18.4728 C18.5341,18.4728 18.7671,18.2418 18.7671,17.9688 C18.7671,17.6968 18.5341,17.4658 18.2591,17.4658" mask="url(#ic-neurology-b)"/>
  </g>
</svg>
