<svg xmlns="http://www.w3.org/2000/svg" width="40" height="40" viewBox="0 0 40 40">
  <path fill-rule="evenodd" d="M9.7295,6.41817079 C13.0205,2.50317079 17.0535,1.86817079 19.8655,2.02017079 C23.4085,2.21417079 26.4425,3.68717079 28.1025,4.97317079 C31.7385,7.83517079 32.7115,12.5401708 32.4265,15.9911708 C32.3725,16.6221708 32.1545,17.4611708 31.8495,18.4011708 L31.6335,19.0411708 L31.3965,19.7031708 L31.1435,20.3821708 L30.8795,21.0681708 L29.5835,24.3481708 L29.4235,24.7661708 L29.2125,25.3411708 L29.0945,25.6811708 C29.0765,25.7351708 29.0595,25.7861708 29.0445,25.8361708 L28.9615,26.1111708 C28.9155,26.2781708 28.8885,26.4101708 28.8845,26.5001708 C28.8385,27.4501708 29.0325,29.0981708 29.5205,29.7171708 C29.6635,29.8971708 29.9715,30.1091708 30.3275,30.3241708 L30.6955,30.5391708 L31.6395,31.0711708 C32.2965,31.4551708 32.7935,31.8081708 32.9505,32.2491708 L32.9855,32.3711708 L32.9855,32.3911708 C33.0565,32.6941708 32.8645,32.9961708 32.5575,33.0661708 C32.2505,33.1361708 31.9435,32.9471708 31.8735,32.6441708 C31.8285,32.5751708 31.7125,32.4811708 31.5615,32.3771708 L31.3125,32.2151708 L31.0365,32.0481708 L30.0495,31.4891708 C29.4525,31.1471708 28.9225,30.8081708 28.6215,30.4251708 C27.9255,29.5441708 27.7545,27.8681708 27.7385,26.9151708 L27.7385,26.5951708 C27.7395,26.5481708 27.7415,26.5051708 27.7435,26.4661708 C27.7485,26.3221708 27.7785,26.1451708 27.8325,25.9331708 L27.9075,25.6601708 C27.9225,25.6111708 27.9375,25.5611708 27.9535,25.5101708 L28.0625,25.1821708 L28.2655,24.6191708 L28.5135,23.9671708 L29.7515,20.8381708 L30.1155,19.8921708 L30.3465,19.2671708 C30.3845,19.1641708 30.4215,19.0621708 30.4575,18.9601708 L30.6655,18.3601708 C30.9965,17.3791708 31.2375,16.5071708 31.2885,15.9061708 L31.3055,15.6791708 L31.3205,15.3721708 L31.3285,14.9921708 L31.3235,14.5491708 L31.3115,14.2201708 L31.2895,13.8691708 C31.2855,13.8081708 31.2805,13.7471708 31.2755,13.6851708 L31.2375,13.3021708 L31.1865,12.9021708 C31.1765,12.8341708 31.1665,12.7651708 31.1555,12.6961708 L31.0825,12.2731708 C30.6895,10.1981708 29.7125,7.69017079 27.3925,5.86417079 L27.2695,5.76917079 L27.0055,5.57817079 C26.9595,5.54617079 26.9135,5.51417079 26.8655,5.48217079 L26.5695,5.29017079 C26.5175,5.25817079 26.4655,5.22617079 26.4135,5.19417079 L26.0855,5.00417079 C26.0295,4.97317079 25.9725,4.94217079 25.9155,4.91017079 L25.5595,4.72517079 C25.4385,4.66417079 25.3135,4.60417079 25.1865,4.54417079 L24.7965,4.36917079 C24.3325,4.16917079 23.8355,3.98317079 23.3135,3.81917079 L22.8605,3.68517079 C19.1115,2.63617079 14.2265,2.81817079 10.6075,7.14417079 C9.2585,8.74117079 8.4635,10.0771708 8.4235,10.7991708 L8.3955,11.4281708 L8.3745,12.2081708 L8.3615,13.0741708 L8.3575,13.8411708 L8.3635,14.7351708 L8.3715,15.1451708 L8.3905,15.6841708 L8.4075,15.9811708 L8.4295,16.2171708 C8.4365,16.2841708 8.4455,16.3391708 8.4545,16.3811708 L8.5125,16.4571708 L8.5775,16.5361708 C8.8655,16.8961708 9.2275,17.3401708 9.2275,17.8631708 L9.2235,17.9391708 L9.2085,18.0331708 L9.1605,18.2021708 L9.1215,18.3101708 L9.0415,18.5091708 L8.9285,18.7611708 L8.7185,19.1911708 L8.4305,19.7491708 L8.0515,20.4551708 L7.1825,22.0201708 C7.1165,22.2401708 7.1555,22.4781708 7.2885,22.6671708 L7.5705,22.7751708 L8.1815,22.9751708 C8.7445,23.1651708 9.1355,23.3511708 9.2075,23.7751708 C9.2415,24.2851708 9.1655,24.7971708 8.9825,25.2761708 C9.0435,25.3271708 9.1215,25.3851708 9.1985,25.4401708 L9.4045,25.5831708 C9.5545,25.6771708 9.6965,25.7841708 9.8265,25.9031708 C9.9805,26.0361708 10.0705,26.2271708 10.0715,26.4291708 C10.0585,26.6241708 9.9735,26.8051708 9.8355,26.9411708 L9.7465,27.0171708 L9.6785,27.0821708 L9.6985,27.1131708 C9.8485,27.3301708 9.9705,27.5661708 10.0635,27.8131708 C10.1565,28.0871708 10.1495,28.4601708 10.0965,28.9641708 L10.0205,29.5871708 L9.9205,30.3181708 C9.8695,30.7381708 10.5425,31.2721708 11.1845,31.4881708 C12.3105,31.5241708 13.4375,31.4421708 14.5465,31.2461708 C14.6975,31.1471708 14.8855,31.1181708 15.0595,31.1681708 L15.1335,31.1921708 L15.2145,31.2311708 C15.2245,31.2371708 15.2345,31.2431708 15.2435,31.2501708 L15.3065,31.3001708 L15.3745,31.3691708 C15.3865,31.3821708 15.3985,31.3961708 15.4115,31.4121708 L15.4905,31.5171708 L15.5785,31.6531708 L15.6765,31.8241708 L15.7845,32.0321708 C15.8035,32.0711708 15.8235,32.1111708 15.8435,32.1531708 L15.9695,32.4271708 L16.1085,32.7511708 L16.3455,33.3391708 C16.3735,33.4111708 16.4025,33.4861708 16.4315,33.5641708 C16.9005,34.7921708 17.2875,36.0491708 17.5925,37.3261708 C17.6595,37.6291708 17.4655,37.9281708 17.1595,37.9961708 L17.0965,38.0001708 L17.0335,37.9961708 C16.7605,38.0021708 16.5215,37.8171708 16.4635,37.5541708 C16.0375,35.7641708 15.4355,34.0181708 14.6665,32.3431708 C14.4635,32.3921708 14.2235,32.4331708 13.9635,32.4671708 L13.5625,32.5131708 L13.1445,32.5481708 L12.7235,32.5741708 L12.3125,32.5901708 L11.9245,32.5981708 L11.5705,32.5971708 L11.2655,32.5891708 C11.2195,32.5871708 11.1765,32.5841708 11.1355,32.5821708 L10.9265,32.5631708 C10.8705,32.5551708 10.8265,32.5471708 10.7985,32.5371708 C9.9445,32.2471708 8.7385,31.4321708 8.7645,30.3241708 L8.7765,30.1641708 L8.8425,29.6601708 C8.9355,29.1631708 8.9765,28.6581708 8.9655,28.1531708 C8.9025,27.9971708 8.8235,27.8481708 8.7285,27.7091708 C8.5315,27.4891708 8.4455,27.1941708 8.4915,26.9051708 C8.5365,26.7461708 8.6095,26.5961708 8.7085,26.4631708 L8.5305,26.3401708 C8.0725,26.0111708 7.5525,25.5341708 7.8875,24.9561708 C7.9975,24.6931708 8.0655,24.4151708 8.0865,24.1321708 L7.9545,24.0811708 L7.6535,23.9791708 C7.6045,23.9631708 7.5575,23.9481708 7.5165,23.9351708 C7.1715,23.8511708 6.8425,23.7091708 6.5465,23.5161708 C6.0285,23.0131708 5.8645,22.2601708 6.1155,21.5981708 L6.1755,21.4571708 L6.2845,21.2721708 L7.0245,19.9501708 L7.4615,19.1441708 L7.8065,18.4741708 L7.9745,18.1201708 L8.0725,17.8821708 L8.0865,17.8381708 C7.9835,17.6191708 7.8475,17.4161708 7.6845,17.2361708 C7.6105,17.1461708 7.5415,17.0591708 7.4825,16.9801708 C7.3745,16.8341708 7.3065,16.4141708 7.2655,15.8561708 L7.2395,15.4141708 L7.2225,14.9341708 L7.2135,14.4271708 L7.2105,13.9071708 L7.2155,13.1291708 L7.2405,11.9491708 L7.2825,10.7351708 C7.3395,9.73617079 8.1635,8.28217079 9.7295,6.41817079 L9.7295,6.41817079 Z M26.0545,29.6911708 C26.1665,29.4071708 26.4875,29.2621708 26.7795,29.3651708 C26.9205,29.4181708 27.0355,29.5241708 27.0975,29.6601708 C27.1595,29.7961708 27.1635,29.9511708 27.1105,30.0911708 C25.7095,33.7141708 21.5975,35.5341708 17.9205,34.1601708 C17.6265,34.0491708 17.4785,33.7231708 17.5915,33.4331708 C17.7035,33.1431708 18.0335,32.9971708 18.3285,33.1081708 C21.4185,34.2671708 24.8775,32.7381708 26.0545,29.6911708 L26.0545,29.6911708 Z M24.5775,27.1941708 C24.8925,27.2071708 25.1375,27.4681708 25.1255,27.7791708 C25.0215,30.1771708 23.0775,32.0841708 20.6705,32.1971708 L20.4505,32.2031708 L20.2565,32.2031708 C20.0525,32.1971708 19.8685,32.0831708 19.7735,31.9051708 C19.6795,31.7271708 19.6875,31.5121708 19.7965,31.3421708 C19.9055,31.1721708 20.0985,31.0731708 20.3025,31.0811708 C22.2555,31.1581708 23.9035,29.6601708 23.9845,27.7341708 C23.9965,27.4231708 24.2625,27.1821708 24.5775,27.1941708 L24.5775,27.1941708 Z M20.3825,25.3401708 L20.5385,25.3411708 L20.7125,25.3511708 C21.4585,25.4221708 22.1265,25.8511708 22.4925,26.5051708 C22.8855,27.2091708 22.8685,28.0661708 22.4465,28.7551708 C22.0545,29.3931708 21.3695,29.7961708 20.6215,29.8371708 L20.3505,29.8401708 C19.0905,29.7891708 18.1115,28.7401708 18.1635,27.4981708 C18.2125,26.3071708 19.1915,25.3711708 20.3825,25.3401708 L20.3825,25.3401708 Z M20.4965,26.4661692 L20.4475,26.4661692 C19.8345,26.4651708 19.3315,26.9421708 19.3065,27.5461708 C19.2805,28.1661708 19.7695,28.6901708 20.3995,28.7161708 C20.7025,28.7291708 20.9985,28.6221708 21.2215,28.4191708 C21.4445,28.2171708 21.5765,27.9351708 21.5885,27.6361708 C21.6125,27.0571708 21.1885,26.5621708 20.6195,26.4781708 L20.4965,26.4661692 Z M20.3905,22.9721708 L20.6385,22.9761708 C20.9535,22.9891708 21.1985,23.2521708 21.1845,23.5621708 C21.1715,23.8731708 20.9055,24.1141708 20.5905,24.1011708 C18.6385,24.0281708 16.9925,25.5231708 16.9085,27.4471708 C16.8975,27.7191708 16.6915,27.9391708 16.4275,27.9801708 L16.3375,27.9871708 L16.3145,27.9871708 C16.1635,27.9811708 16.0205,27.9161708 15.9185,27.8071708 C15.8155,27.6971708 15.7615,27.5511708 15.7675,27.4021708 C15.8165,26.1781708 16.3585,25.0231708 17.2725,24.1931708 C18.1245,23.4181708 19.2365,22.9851708 20.3905,22.9721708 L20.3905,22.9721708 Z M13.7905,25.0911708 C15.1915,21.4661708 19.3055,19.6451708 22.9835,21.0221708 C23.1735,21.0931708 23.3105,21.2601708 23.3435,21.4591708 C23.3755,21.6571708 23.2975,21.8581708 23.1395,21.9841708 C22.9805,22.1111708 22.7655,22.1451708 22.5755,22.0731708 C19.4875,20.9201708 16.0345,22.4481708 14.8575,25.4901708 C14.8035,25.6301708 14.6955,25.7431708 14.5565,25.8051708 C14.4185,25.8661708 14.2605,25.8701708 14.1185,25.8161708 C13.8255,25.7051708 13.6785,25.3801708 13.7905,25.0911708 L13.7905,25.0911708 Z"/>
</svg>
