<svg xmlns="http://www.w3.org/2000/svg" width="40" height="40" viewBox="0 0 40 40">
  <path fill-rule="evenodd" d="M27.548,2 C28.146,2 28.639,2.454 28.702,3.035 L28.709,3.161 L28.709,11.049 L29.36,10.398 C29.644,10.115 29.822,9.736 29.862,9.338 L29.871,9.167 L29.871,4.323 C29.871,3.725 30.324,3.231 30.905,3.168 L31.032,3.161 L32.193,3.161 C32.791,3.161 33.284,3.615 33.348,4.196 L33.354,4.323 L33.354,6.405 L35.096,4.663 C35.312,4.446 35.612,4.323 35.917,4.323 C37.066,4.323 38,5.256 38,6.405 C38,6.671 37.911,6.923 37.747,7.128 L37.659,7.226 L34.005,10.88 C33.896,10.99 33.835,11.135 33.835,11.29 C33.835,11.415 33.874,11.533 33.946,11.631 L34.005,11.701 L35.337,13.032 C35.556,13.252 35.677,13.543 35.677,13.853 C35.677,15.002 34.743,15.936 33.595,15.936 C33.333,15.936 33.075,15.845 32.871,15.682 L32.774,15.595 L32.263,15.085 C31.605,14.426 30.458,14.426 29.8,15.085 C29.151,15.734 28.771,16.581 28.716,17.49 L28.709,17.719 L28.709,24.17 C31.999,24.725 34.516,27.587 34.516,31.032 C34.516,34.794 31.519,37.869 27.787,37.996 L27.548,38 L12.451,38 C11.853,38 11.36,37.546 11.297,36.965 L11.29,36.839 L11.29,32.815 C11.29,31.82 10.903,30.885 10.199,30.182 C9.56,29.542 8.544,29.505 7.86,30.069 L7.736,30.182 L7.225,30.692 C7.009,30.908 6.71,31.032 6.404,31.032 C5.256,31.032 4.322,30.099 4.322,28.95 C4.322,28.688 4.413,28.431 4.576,28.227 L4.662,28.129 L5.994,26.798 C6.104,26.688 6.164,26.542 6.164,26.387 C6.164,26.263 6.125,26.145 6.053,26.046 L5.994,25.977 L2.34,22.323 C2.124,22.107 2,21.807 2,21.501 C2,20.353 2.933,19.419 4.082,19.419 C4.344,19.419 4.601,19.51 4.805,19.673 L4.903,19.76 L6.645,21.501 L6.645,19.419 C6.645,18.822 7.099,18.328 7.68,18.265 L7.806,18.258 L8.967,18.258 C9.565,18.258 10.059,18.712 10.122,19.293 L10.129,19.419 L10.129,24.264 C10.129,24.671 10.268,25.057 10.523,25.367 L10.639,25.496 L11.29,26.147 L11.29,3.161 C11.29,2.564 11.744,2.07 12.325,2.007 L12.451,2 L27.548,2 Z M27.548,3.161 L12.451,3.161 L12.451,28.95 L9.818,26.317 C9.32,25.818 9.024,25.171 8.975,24.474 L8.967,24.264 L8.967,19.419 L7.806,19.419 L7.806,21.501 C7.806,21.973 7.525,22.394 7.09,22.575 C6.697,22.738 6.256,22.673 5.928,22.416 L5.824,22.323 L4.082,20.581 C3.611,20.581 3.22,20.937 3.167,21.394 L3.161,21.501 L6.815,25.156 C7.454,25.795 7.492,26.811 6.928,27.494 L6.815,27.619 L5.484,28.95 C5.484,29.421 5.84,29.811 6.297,29.865 L6.404,29.871 L6.915,29.361 C8.046,28.229 9.888,28.229 11.02,29.361 C11.882,30.222 12.382,31.348 12.444,32.555 L12.451,32.815 L12.451,36.839 L23.704,36.839 C22.758,36.21 21.971,35.358 21.425,34.356 C20.96,34.462 20.482,34.516 20,34.516 C16.555,34.516 13.737,31.774 13.616,28.358 L13.612,28.129 L13.612,11.871 C13.612,8.349 16.478,5.484 20,5.484 C23.445,5.484 26.262,8.226 26.383,11.642 L26.387,11.871 L26.387,24.17 C26.671,24.122 26.959,24.087 27.252,24.072 L27.548,24.064 L27.548,17.719 C27.548,16.413 28.056,15.186 28.979,14.264 C29.527,13.716 30.256,13.414 31.032,13.414 C31.737,13.414 32.404,13.664 32.931,14.121 L33.084,14.264 L33.595,14.774 C34.067,14.774 34.456,14.418 34.51,13.961 L34.516,13.853 L33.184,12.522 C32.856,12.193 32.674,11.756 32.674,11.29 C32.674,10.883 32.813,10.497 33.068,10.187 L33.184,10.058 L36.838,6.405 C36.838,5.933 36.482,5.543 36.025,5.49 L35.917,5.484 L34.176,7.226 C33.842,7.559 33.346,7.658 32.91,7.478 C32.514,7.314 32.245,6.951 32.2,6.532 L32.193,6.405 L32.193,4.323 L31.032,4.323 L31.032,9.167 C31.032,9.872 30.782,10.539 30.325,11.066 L30.181,11.22 L27.548,13.854 L27.548,3.161 Z M27.548,25.226 C24.346,25.226 21.741,27.831 21.741,31.032 C21.741,34.234 24.346,36.839 27.548,36.839 C30.75,36.839 33.354,34.234 33.354,31.032 C33.354,27.831 30.75,25.226 27.548,25.226 L27.548,25.226 Z M27.548,26.387 C30.109,26.387 32.193,28.471 32.193,31.032 C32.193,33.593 30.109,35.677 27.548,35.677 C24.987,35.677 22.903,33.593 22.903,31.032 C22.903,28.471 24.987,26.387 27.548,26.387 L27.548,26.387 Z M27.548,27.548 C25.627,27.548 24.064,29.111 24.064,31.032 C24.064,32.954 25.627,34.516 27.548,34.516 C29.469,34.516 31.032,32.954 31.032,31.032 C31.032,29.111 29.469,27.548 27.548,27.548 L27.548,27.548 Z M20.574,28.011 L20.58,28.129 C20.58,30.129 19.413,31.935 17.679,32.804 C18.38,33.153 19.166,33.355 20,33.355 C20.321,33.355 20.638,33.316 20.951,33.258 C20.714,32.558 20.58,31.811 20.58,31.032 C20.58,30.051 20.786,29.118 21.154,28.271 C20.956,28.194 20.763,28.107 20.574,28.011 L20.574,28.011 Z M15.354,24.064 C15.224,24.064 15.095,24.072 14.966,24.085 L14.774,24.109 L14.774,25.29 C14.964,25.251 15.158,25.226 15.354,25.226 C16.955,25.226 18.258,26.528 18.258,28.129 C18.258,29.632 17.105,30.857 15.639,31.003 C15.886,31.376 16.181,31.713 16.513,32.011 C18.209,31.503 19.419,29.921 19.419,28.129 C19.419,25.888 17.595,24.064 15.354,24.064 L15.354,24.064 Z M15.354,26.387 C15.204,26.387 15.057,26.413 14.915,26.454 L14.774,26.5 L14.774,28.129 C14.774,28.732 14.881,29.308 15.07,29.847 C15.163,29.863 15.259,29.871 15.354,29.871 C16.315,29.871 17.096,29.089 17.096,28.129 C17.096,27.169 16.315,26.387 15.354,26.387 L15.354,26.387 Z M23.484,17.097 C20.602,17.097 18.258,19.441 18.258,22.323 C18.258,22.896 18.353,23.455 18.534,23.991 C19.346,24.617 19.969,25.473 20.303,26.463 C20.734,26.795 21.206,27.054 21.713,27.236 C21.941,26.886 22.201,26.561 22.486,26.258 C20.727,25.812 19.419,24.219 19.419,22.323 C19.419,20.081 21.243,18.258 23.484,18.258 C24.005,18.258 24.515,18.359 24.991,18.549 L25.225,18.652 L25.225,17.4 C24.668,17.202 24.084,17.097 23.484,17.097 L23.484,17.097 Z M23.484,19.419 C21.883,19.419 20.58,20.722 20.58,22.323 C20.58,23.923 21.883,25.226 23.484,25.226 C23.566,25.226 23.648,25.218 23.73,25.211 C24.1,24.967 24.495,24.76 24.911,24.591 L25.225,24.471 L25.225,20.015 C24.724,19.636 24.118,19.419 23.484,19.419 L23.484,19.419 Z M14.774,21.248 L14.774,22.94 C14.967,22.918 15.16,22.903 15.354,22.903 C15.993,22.903 16.601,23.024 17.167,23.234 C17.124,22.933 17.096,22.63 17.096,22.323 C17.096,22.126 17.109,21.932 17.126,21.74 L17.096,21.742 C16.389,21.742 15.699,21.608 15.05,21.361 L14.774,21.248 Z M14.774,18.525 L14.774,19.945 C15.479,20.354 16.272,20.581 17.096,20.581 C17.182,20.581 17.264,20.568 17.348,20.564 C17.471,20.135 17.636,19.724 17.841,19.337 C17.601,19.39 17.352,19.419 17.096,19.419 C16.278,19.419 15.527,19.133 14.932,18.659 L14.774,18.525 Z M17.096,13.613 C15.816,13.613 14.774,14.655 14.774,15.936 C14.774,17.216 15.816,18.258 17.096,18.258 C18.377,18.258 19.419,17.216 19.419,15.936 C19.419,14.655 18.377,13.613 17.096,13.613 L17.096,13.613 Z M17.096,11.29 C16.364,11.29 15.655,11.469 15.012,11.796 L14.774,11.926 L14.774,13.346 C15.391,12.792 16.203,12.452 17.096,12.452 C19.018,12.452 20.58,14.014 20.58,15.936 C20.58,16.191 20.551,16.44 20.498,16.68 C20.885,16.475 21.296,16.311 21.725,16.188 C21.729,16.103 21.741,16.021 21.741,15.936 C21.741,13.374 19.658,11.29 17.096,11.29 L17.096,11.29 Z M25.225,13.063 C24.507,13.419 23.712,13.613 22.903,13.613 C22.735,13.613 22.568,13.605 22.403,13.589 C22.682,14.218 22.855,14.903 22.894,15.624 L22.903,15.936 L22.901,15.965 C23.093,15.948 23.287,15.936 23.484,15.936 C23.961,15.936 24.428,15.992 24.885,16.096 L25.225,16.183 L25.225,13.063 Z M20,6.645 C19.73,6.645 19.466,6.672 19.207,6.712 C18.969,7.236 18.838,7.807 18.838,8.387 C18.838,9.217 19.092,10.007 19.56,10.685 C20.329,11.048 21.01,11.571 21.551,12.217 C21.984,12.37 22.438,12.452 22.903,12.452 C23.745,12.452 24.536,12.189 25.217,11.712 C25.203,11.251 25.133,10.805 25.006,10.382 C24.471,10.948 23.72,11.29 22.903,11.29 C21.302,11.29 20,9.988 20,8.387 C20,7.76 20.206,7.165 20.563,6.676 C20.378,6.657 20.19,6.645 20,6.645 L20,6.645 Z M17.833,7.121 C16.42,7.769 15.347,9.026 14.948,10.556 C15.628,10.284 16.352,10.129 17.096,10.129 C17.41,10.129 17.715,10.161 18.016,10.209 C17.8,9.631 17.677,9.019 17.677,8.387 C17.677,7.959 17.73,7.534 17.833,7.121 L17.833,7.121 Z M21.876,6.999 C21.437,7.326 21.161,7.831 21.161,8.387 C21.161,9.348 21.942,10.129 22.903,10.129 C23.572,10.129 24.17,9.749 24.461,9.164 C23.865,8.184 22.959,7.417 21.876,6.999 L21.876,6.999 Z"/>
</svg>
